<svg width="136" height="41" viewBox="0 0 136 41" fill="none" xmlns="http://www.w3.org/2000/svg">
<g clip-path="url(#clip0_7198_5468)">
<path d="M0 26.8793H5.45037C6.55583 26.8793 7.56005 27.0531 8.46305 27.4047C9.37009 27.7563 10.1516 28.2453 10.8116 28.8677C11.4676 29.4941 11.9778 30.2256 12.3382 31.0703C12.6946 31.9109 12.8768 32.8242 12.8768 33.8063V33.8467C12.8768 34.8288 12.6946 35.7462 12.3382 36.5989C11.9778 37.4436 11.4676 38.1872 10.8116 38.8096C10.1516 39.4319 9.37009 39.925 8.46305 40.2847C7.56005 40.6403 6.55583 40.8222 5.45037 40.8222H0V26.8793ZM5.45037 38.0538C6.07801 38.0538 6.64896 37.9568 7.16727 37.7588C7.68558 37.5567 8.13101 37.2698 8.50354 36.898C8.87608 36.5262 9.16358 36.0897 9.362 35.5764C9.56041 35.0632 9.66164 34.5014 9.66164 33.8952V33.8548C9.66164 33.2284 9.56041 32.6626 9.362 32.1534C9.16358 31.6401 8.87608 31.1996 8.50354 30.8278C8.13101 30.456 7.68558 30.165 7.16727 29.9629C6.64896 29.7568 6.07801 29.6558 5.45037 29.6558H3.07747V38.0619H5.45037V38.0538Z" fill="white"/>
<path d="M19.6914 30.751H24.3036C25.5831 30.751 26.5631 31.0905 27.2474 31.7735C27.8265 32.3474 28.1099 33.1152 28.1099 34.0771V34.1054C28.1099 34.9217 27.9115 35.5805 27.5106 36.0937C27.1138 36.607 26.5914 36.9869 25.9476 37.2253L28.4136 40.8222L23.6557 37.5971H21.9104V40.8222H19.6914V30.747V30.751ZM24.1618 35.6573C24.7125 35.6573 25.1296 35.5279 25.4252 35.2652C25.7168 35.0066 25.8625 34.659 25.8625 34.2226V34.1943C25.8625 33.7134 25.7087 33.3537 25.4009 33.1112C25.0932 32.8727 24.664 32.7515 24.1173 32.7515H21.9104V35.6573H24.1578H24.1618Z" fill="white"/>
<path d="M33.5078 30.751H35.7268V40.8262H33.5078V30.751Z" fill="white"/>
<path d="M40.6719 30.751H43.1258L45.7659 37.8437L48.406 30.751H50.7992L46.7215 40.8949H44.7617L40.68 30.751H40.6719Z" fill="white"/>
<path d="M55.6367 30.751H63.2332V32.7232H57.8274V34.7682H62.5853V36.7404H57.8274V38.854H63.3061V40.8262H55.6367V30.751Z" fill="white"/>
<path d="M68.584 30.751H70.803V38.8096H75.8363V40.8262H68.584V30.751Z" fill="white"/>
<path d="M85.1247 41C84.3432 41 83.6264 40.8626 82.9745 40.5837C82.3185 40.313 81.7556 39.9411 81.2819 39.4764C80.8081 39.0116 80.4356 38.466 80.1683 37.8356C79.9051 37.2092 79.7715 36.5342 79.7715 35.8108V35.7825C79.7715 35.0632 79.9051 34.3923 80.1724 33.7618C80.4396 33.1354 80.8122 32.5818 81.2859 32.1089C81.7637 31.6361 82.3306 31.2602 82.9866 30.9854C83.6467 30.7106 84.3674 30.5772 85.1449 30.5772C85.9224 30.5772 86.6391 30.7106 87.291 30.9854C87.943 31.2602 88.5099 31.628 88.9877 32.0927C89.4615 32.5575 89.834 33.1071 90.0932 33.7336C90.3604 34.3559 90.494 35.0308 90.494 35.7543V35.7825C90.494 36.506 90.3604 37.1768 90.0891 37.8073C89.8219 38.4337 89.4493 38.9874 88.9715 39.4602C88.4977 39.9371 87.9308 40.3089 87.2748 40.5837C86.6148 40.8585 85.8981 41 85.1206 41H85.1247ZM85.153 38.951C85.6025 38.951 86.0155 38.8702 86.384 38.7085C86.7525 38.5469 87.0724 38.3205 87.3315 38.0336C87.5988 37.7467 87.8013 37.4112 87.9511 37.0313C88.1009 36.6555 88.1738 36.2513 88.1738 35.8149V35.7866C88.1738 35.3542 88.1009 34.95 87.9511 34.5661C87.8013 34.1822 87.5907 33.8467 87.3194 33.5557C87.044 33.2688 86.7201 33.0384 86.3516 32.8727C85.9831 32.703 85.5701 32.6181 85.1206 32.6181C84.6711 32.6181 84.2703 32.703 83.8937 32.8647C83.5211 33.0304 83.2012 33.2526 82.9299 33.5436C82.6667 33.8306 82.4602 34.166 82.3104 34.5459C82.1646 34.9217 82.0877 35.3259 82.0877 35.7583V35.7866C82.0877 36.219 82.1646 36.6272 82.3104 37.0111C82.4602 37.3951 82.6708 37.7305 82.9461 38.0174C83.2215 38.3044 83.5454 38.5347 83.918 38.7045C84.2946 38.8702 84.6995 38.955 85.1449 38.955L85.153 38.951Z" fill="white"/>
<path d="M95.7578 30.751H99.6937C100.491 30.751 101.22 30.8763 101.872 31.1309C102.524 31.3855 103.091 31.7371 103.565 32.1897C104.043 32.6424 104.407 33.1678 104.666 33.778C104.929 34.3883 105.059 35.047 105.059 35.7583V35.7866C105.059 36.4979 104.929 37.1607 104.666 37.775C104.411 38.3852 104.043 38.9227 103.565 39.3713C103.087 39.828 102.524 40.1796 101.872 40.4423C101.22 40.6969 100.491 40.8262 99.6937 40.8262H95.7578V30.751ZM99.6978 38.8257C100.151 38.8257 100.564 38.753 100.937 38.6115C101.313 38.466 101.633 38.2599 101.901 37.9932C102.172 37.7224 102.374 37.4032 102.52 37.0313C102.662 36.6636 102.739 36.2594 102.739 35.8149V35.7866C102.739 35.338 102.666 34.9217 102.52 34.554C102.374 34.1862 102.172 33.8669 101.901 33.6002C101.629 33.3335 101.309 33.1233 100.937 32.9738C100.56 32.8283 100.147 32.7515 99.6978 32.7515H97.9809V38.8257H99.6978Z" fill="white"/>
<path d="M115.184 41C114.398 41 113.677 40.8666 113.029 40.612C112.381 40.3493 111.823 39.9896 111.357 39.533C110.891 39.0722 110.527 38.5226 110.268 37.8881C110.008 37.2536 109.879 36.5625 109.879 35.8149V35.7866C109.879 35.0672 110.013 34.3964 110.276 33.7659C110.539 33.1395 110.903 32.5858 111.377 32.113C111.847 31.6401 112.406 31.2643 113.058 30.9895C113.706 30.7146 114.41 30.5813 115.167 30.5813C115.625 30.5813 116.034 30.6096 116.402 30.6742C116.771 30.7348 117.119 30.8238 117.435 30.9369C117.751 31.0541 118.05 31.1996 118.326 31.3693C118.605 31.5431 118.872 31.7371 119.136 31.9594L117.735 33.6446C117.54 33.483 117.35 33.3375 117.156 33.2122C116.965 33.0869 116.763 32.9819 116.556 32.897C116.35 32.8121 116.127 32.7434 115.884 32.6949C115.645 32.6464 115.382 32.6222 115.094 32.6222C114.689 32.6222 114.309 32.707 113.961 32.8768C113.608 33.0425 113.301 33.2688 113.037 33.5517C112.77 33.8346 112.568 34.166 112.418 34.5459C112.268 34.9217 112.195 35.3259 112.195 35.7583V35.7866C112.195 36.2473 112.268 36.6717 112.418 37.0596C112.568 37.4476 112.774 37.7871 113.05 38.074C113.325 38.365 113.649 38.5832 114.025 38.7449C114.402 38.8985 114.807 38.9833 115.252 38.9833C115.657 38.9833 116.038 38.9348 116.39 38.8338C116.747 38.7328 117.066 38.5792 117.342 38.3812V36.9384H115.107L119.492 35.0228V39.3996C118.974 39.8401 118.35 40.216 117.637 40.5312C116.921 40.8424 116.103 41 115.179 41H115.184Z" fill="white"/>
<path d="M125.379 26.8793H135.899V29.6073H128.412V32.4363H135V35.1642H128.412V38.0983H135.996V40.8262H125.375V26.8834L125.379 26.8793Z" fill="white"/>
<path d="M113.916 25.865C112.855 25.8932 111.782 25.8447 110.725 25.865C110.191 25.8771 109.66 25.8771 109.122 25.865H100.938L100.748 25.6629C100.618 25.5214 100.488 25.3759 100.351 25.2345C100.213 25.0971 100.079 24.9556 99.9378 24.8263C99.796 24.693 99.6543 24.5596 99.5085 24.4343L99.2858 24.2444L99.0631 24.0625C98.9133 23.9372 98.7554 23.8281 98.6055 23.7109C98.4476 23.6018 98.2897 23.4886 98.1277 23.3835L97.8848 23.23L97.6378 23.0845C97.5568 23.036 97.4758 22.9875 97.3907 22.943C97.3057 22.8986 97.2247 22.8501 97.1356 22.8097L96.8805 22.6803L96.6214 22.5631C96.5363 22.5187 96.4513 22.4863 96.3622 22.45C96.2731 22.4136 96.1841 22.3772 96.095 22.3449C95.9208 22.2762 95.7427 22.2156 95.5645 22.155C95.3823 22.0984 95.2041 22.0458 95.0219 21.9933C94.8437 21.9448 94.6575 21.9044 94.4752 21.868C94.293 21.8316 94.1108 21.7993 93.9245 21.7751C93.7423 21.7508 93.5561 21.7306 93.3779 21.7225C93.2848 21.7185 93.1997 21.7144 93.1106 21.7104H92.9244H92.896H92.8839L92.3089 21.5124L88.2272 18.1176L84.1617 14.7067L84.2507 14.7754C84.1293 14.6945 83.9997 14.6137 83.8701 14.541C83.7446 14.4682 83.611 14.3955 83.4773 14.3308C83.2101 14.2015 82.9307 14.0883 82.6472 13.9873C82.3638 13.8903 82.0722 13.8095 81.7807 13.7448C81.6349 13.7165 81.4851 13.6882 81.3393 13.668C81.1935 13.6478 81.0477 13.6276 80.9101 13.6195H80.8169L80.7967 13.6155H80.7886C80.7886 13.6155 80.7764 13.6155 80.8007 13.6155H79.9625H78.934H76.881L75.9942 13.6074L75.8079 12.7183L74.5972 6.37733L73.8764 2.91385L73.8359 2.71986L73.8683 2.51779C73.8886 2.35613 73.9453 2.21064 74.0101 2.09344C74.0627 1.98433 74.1356 1.89541 74.1923 1.83075C74.3097 1.69739 74.4028 1.63272 74.4838 1.5721C74.5729 1.51956 74.6377 1.48319 74.7025 1.45086C74.7632 1.41853 74.8199 1.39428 74.8685 1.37407C75.075 1.29325 75.237 1.24879 75.399 1.21242C75.5569 1.17605 75.7027 1.14371 75.8484 1.11947L76.0671 1.08713L76.1724 1.07097L76.2979 1.05884L75.2451 2.22277V1.29325L76.5085 2.46525L75.5164 2.56629L74.5243 2.69561L73.5241 2.85323L72.5199 3.03105C72.1879 3.08763 71.8558 3.16037 71.5238 3.22504C71.1877 3.28566 70.8556 3.3584 70.5236 3.43115C69.8555 3.5726 69.1914 3.72213 68.5232 3.87166C67.8551 4.02523 67.191 4.18689 66.5269 4.35259C66.1949 4.43341 65.8628 4.51828 65.5268 4.60719L64.5306 4.8618L62.5384 5.39527C61.8743 5.57309 61.2142 5.75899 60.5502 5.9449C59.8861 6.13484 59.226 6.32075 58.566 6.51474L56.5859 7.0967L54.6058 7.69078L52.6338 8.29699L50.6617 8.91533L48.6938 9.54174L46.7299 10.1803L44.7741 10.8309L44.6202 10.8794H44.5028L44.3934 13.7488L40.4939 13.9671H40.4373H40.4089H40.336H40.2672C40.2267 13.9671 40.1821 13.9671 40.1498 13.9752C40.0769 13.9873 40.0283 14.0075 39.9918 14.0237C39.9554 14.0398 39.9311 14.06 39.9068 14.0924C39.8946 14.1085 39.8825 14.1287 39.8744 14.1449C39.8703 14.153 39.8663 14.1651 39.8623 14.1732V14.1813H39.8582V14.153L39.8461 14.2581L39.105 16.9618L38.3559 19.6614L37.5987 22.3611L36.8374 25.0567L36.6066 25.873H36.1855H32.7233H23.8837C23.2925 25.8609 22.681 25.8932 22.0898 25.873C22.681 25.8286 23.2884 25.7316 23.8796 25.6912L25.6289 25.5214L29.1923 25.2305L30.9335 25.089L32.7071 24.9597L36.1652 24.7212L35.6226 25.1537L36.3313 22.0337L36.9387 19.2977L37.5541 16.5657L38.1777 13.8337L38.1575 13.9388L38.1656 13.8862L38.1737 13.8499L38.1858 13.7933C38.1939 13.7529 38.202 13.7206 38.2101 13.6842C38.2304 13.6155 38.2506 13.5508 38.2749 13.4902C38.3235 13.3609 38.3883 13.2396 38.4652 13.1224C38.6151 12.888 38.8256 12.6819 39.0605 12.5324C39.2953 12.3788 39.5505 12.2859 39.7894 12.2333C39.9108 12.205 40.0283 12.1889 40.1457 12.1808L40.3158 12.1687H40.4818H40.3927L42.3202 11.8696L42.4983 9.71148L44.1181 8.98807C44.7741 8.74155 45.4219 8.49906 46.0739 8.2687L48.0338 7.57358L50.0017 6.89058C50.6577 6.66427 51.3137 6.44603 51.9737 6.22779L53.9498 5.57713L55.9339 4.94263C56.598 4.73248 57.2621 4.52637 57.9262 4.3243C58.5903 4.12223 59.2584 3.9242 59.9225 3.72617C60.5906 3.53218 61.2588 3.33415 61.9269 3.14825C62.263 3.0553 62.5951 2.9583 62.9311 2.86535L63.9394 2.59458L64.9517 2.33189C65.2878 2.24297 65.628 2.15811 65.9641 2.07324C66.6403 1.9035 67.3206 1.7378 68.0009 1.57614C68.6852 1.41853 69.3614 1.26091 70.0498 1.12351C70.39 1.05076 70.7342 0.978017 71.0824 0.917396C71.4266 0.852733 71.7708 0.779988 72.119 0.723408L73.1637 0.545587L74.2166 0.387972L75.2734 0.254606L76.3465 0.14953L77.6261 0.0242462L77.618 1.32154L77.6099 2.25106V3.2897L76.5611 3.41498L76.4153 3.43115L76.2534 3.45539C76.1481 3.47156 76.0469 3.49177 75.9578 3.51197C75.8687 3.53218 75.7877 3.55643 75.7593 3.56855C75.7593 3.56855 75.7756 3.56047 75.8079 3.54026C75.8363 3.52006 75.8808 3.49177 75.9618 3.40286C75.9983 3.36244 76.0509 3.29778 76.0914 3.21695C76.1359 3.12804 76.1805 3.01488 76.1967 2.88556L76.1886 2.49354L76.8648 5.9651L78.0148 12.3182L76.9417 11.4291L78.9947 11.4735L80.0192 11.4937L80.5335 11.5099H80.7886L80.8534 11.518H80.9222L80.9627 11.5261L81.1206 11.5382C81.3271 11.5584 81.5215 11.5867 81.7118 11.619C81.9021 11.6514 82.0925 11.6918 82.2787 11.7362C82.6553 11.8251 83.0198 11.9383 83.3801 12.0757C83.7405 12.2091 84.0928 12.3667 84.437 12.5445C84.6071 12.6334 84.7731 12.7304 84.9432 12.8314C85.1052 12.9325 85.2712 13.0376 85.4291 13.1507L85.4817 13.1871L85.5222 13.2194L89.4703 16.7637L93.4103 20.3242L92.8393 20.1262H93.0418C93.1066 20.1302 93.1633 20.1343 93.2159 20.1383C93.3333 20.1464 93.4467 20.1545 93.5561 20.1666C93.7788 20.1908 93.9974 20.2272 94.212 20.2676C94.4307 20.308 94.6453 20.3565 94.8518 20.4131C95.0624 20.4656 95.273 20.5263 95.4754 20.5909C95.686 20.6596 95.8844 20.7283 96.0869 20.8092C96.2893 20.886 96.4877 20.9668 96.6821 21.0597C96.7833 21.1042 96.8805 21.1486 96.9737 21.1971C97.0708 21.2456 97.168 21.2901 97.2612 21.3386L97.5487 21.4922L97.8281 21.6538C97.9172 21.7064 98.0103 21.767 98.0994 21.8236C98.1885 21.8761 98.2816 21.9367 98.3666 21.9973L98.6339 22.1792L98.889 22.3651C99.0591 22.4904 99.2251 22.6238 99.3911 22.7571C99.5531 22.8945 99.7191 23.0279 99.873 23.1734L100.108 23.3876L100.331 23.6099C100.484 23.7553 100.626 23.913 100.768 24.0665C100.914 24.2161 101.043 24.3818 101.185 24.5394C101.319 24.701 101.448 24.8667 101.582 25.0284L101.169 24.8344L104.36 25.0648L105.943 25.182L107.546 25.3113L109.134 25.4406C109.664 25.4568 110.207 25.5578 110.737 25.578C111.802 25.6184 112.871 25.8448 113.932 25.8932L113.916 25.865Z" fill="white"/>
<path d="M77.4365 11.3806L41.418 13.8297L76.0557 13.6074L78.2343 13.4255" fill="white"/>
<path d="M70.3852 3.47156L65.7852 12.5283L68.3929 3.47156H70.3852Z" fill="white"/>
<path d="M66.0607 12.9688C65.8825 12.9971 65.7084 13.0133 65.5303 13.0376C65.3521 13.0578 65.178 13.0739 64.9957 13.0941C64.6435 13.1305 64.2871 13.1628 63.9348 13.1911L63.7567 13.2073L63.7121 12.9971C63.6635 12.7587 63.1371 9.64278 63.0926 9.40837C63.048 9.17397 63.0035 8.93553 62.9589 8.70113C62.9185 8.46269 62.878 8.22829 62.8375 7.98984C62.797 7.7514 62.7605 7.517 62.72 7.27856L62.6836 7.05224L62.8901 6.89867C62.9387 6.86229 62.9751 6.83804 63.0197 6.80975C63.0602 6.78146 63.1007 6.75722 63.1412 6.73297C63.2221 6.68043 63.3031 6.63193 63.3882 6.58748C63.5501 6.49048 63.7202 6.40966 63.8862 6.32075C64.0563 6.23992 64.2223 6.15505 64.3964 6.08634C64.5706 6.0136 64.7406 5.93681 64.9148 5.87619C65.0889 5.81153 65.267 5.74687 65.4452 5.69433C65.6234 5.64179 65.8016 5.58117 65.9838 5.54075L66.5304 5.41143L67.0811 5.31444C67.2674 5.27806 67.4537 5.26594 67.6399 5.24169C67.8262 5.22553 68.0125 5.19724 68.1987 5.19319C68.385 5.18107 68.5753 5.17703 68.7616 5.16895C68.9438 5.1649 69.1341 5.17703 69.3204 5.17703C69.5067 5.18107 69.6929 5.18511 69.8752 5.20936L70.4299 5.26594C70.6121 5.28211 70.7944 5.32656 70.9806 5.35485L71.5273 5.45589L71.8229 5.51247L71.8593 5.79132C71.8917 6.07018 71.9282 6.34903 71.9606 6.62789C71.993 6.90675 72.0213 7.1856 72.0496 7.4685C72.078 7.74736 72.1063 8.03026 72.1306 8.30911L72.6489 11.615L72.6854 12.0353L72.7016 12.2293L72.5396 12.2576C72.2481 12.3061 71.9565 12.3505 71.6609 12.395C71.5111 12.4152 71.3653 12.4394 71.2195 12.4556C71.0738 12.4758 70.9239 12.496 70.7741 12.5122C70.9118 12.4556 71.0495 12.4031 71.1871 12.3465C71.3248 12.2899 71.4625 12.2374 71.6042 12.1889C71.8836 12.0838 72.163 11.9787 72.4424 11.8817L72.2966 12.0999L72.1954 11.6918L71.6083 8.39802C71.5435 8.12321 71.4787 7.85244 71.4099 7.57762C71.3491 7.30281 71.2843 7.02799 71.2236 6.75317C71.1669 6.47836 71.1102 6.20354 71.0495 5.92873L71.3775 6.26417L70.8591 6.20759C70.685 6.19142 70.515 6.15909 70.3408 6.15909L69.8185 6.1308C69.6484 6.11463 69.4743 6.1308 69.3002 6.12676C69.1301 6.12676 68.956 6.12676 68.7818 6.13484C68.6118 6.14696 68.4377 6.15909 68.2676 6.17121C68.0935 6.17525 67.9234 6.20354 67.7533 6.22375C67.5833 6.248 67.4091 6.26012 67.2391 6.29246L66.7288 6.37732L66.2227 6.49048C66.0526 6.52686 65.8906 6.57939 65.7206 6.61981C65.5546 6.66022 65.3926 6.72084 65.2266 6.76934C65.0605 6.81784 64.8986 6.8825 64.7366 6.93504C64.5746 6.99162 64.4167 7.06436 64.2588 7.12498C64.1009 7.19369 63.9389 7.25835 63.7931 7.33918C63.7121 7.37555 63.6392 7.41596 63.5663 7.45234C63.5258 7.47254 63.4894 7.49275 63.453 7.50892L63.3558 7.5655L63.5259 7.18965C63.542 7.42809 63.5623 7.66653 63.5744 7.90901C63.5906 8.14746 63.6068 8.3859 63.6149 8.62838C63.6271 8.86683 63.6433 9.10931 63.6514 9.34775C63.6635 9.5862 64.1535 12.7102 64.1616 12.9527L63.9389 12.7547C64.2912 12.7829 64.6475 12.8153 64.9998 12.8557C65.178 12.8759 65.3561 12.8921 65.5343 12.9123C65.7125 12.9325 65.8866 12.9527 66.0648 12.981L66.0607 12.9688Z" fill="white"/>
<path d="M88.1065 16.7758L88.6896 17.1032C88.8839 17.2123 89.0783 17.3255 89.2727 17.4346H89.2807L89.2929 17.4548L89.7626 18.0327L90.2242 18.6147L90.6859 19.1966C90.8397 19.3906 90.9896 19.5846 91.1434 19.7826L91.1191 19.7544L91.1596 19.7948L91.1961 19.8311C91.2163 19.8554 91.2366 19.8837 91.2568 19.912C91.2973 19.9686 91.3337 20.0251 91.3661 20.0898C91.3985 20.1545 91.4269 20.2272 91.4431 20.304C91.4471 20.3444 91.4552 20.3848 91.4552 20.4252C91.4593 20.4656 91.4552 20.5101 91.4552 20.5546V20.4899C91.4552 20.5222 91.4552 20.5263 91.4552 20.5424C91.4552 20.5546 91.4552 20.5667 91.4552 20.5788C91.4552 20.603 91.4552 20.6233 91.4471 20.6475C91.439 20.692 91.4269 20.7324 91.4026 20.7728C91.3702 20.8496 91.3176 20.9223 91.2649 20.9749C91.1556 21.088 91.026 21.1486 90.9005 21.1931C90.779 21.2335 90.6575 21.2578 90.5441 21.2699C90.4834 21.2739 90.4267 21.282 90.37 21.282H90.208L88.9649 21.3224C88.5478 21.3305 88.1307 21.3467 87.7177 21.3507L86.4746 21.375L85.2274 21.3992L83.9843 21.4154L82.7371 21.4235H82.1175L81.9596 21.4275H81.8786C81.826 21.4275 81.7976 21.4235 81.7531 21.4194C81.6114 21.3992 81.4696 21.3628 81.332 21.2982C81.0647 21.1729 80.8258 20.9223 80.7246 20.6515C80.6962 20.5828 80.6719 20.5141 80.6598 20.4495C80.6395 20.3848 80.6274 20.3161 80.6233 20.2514L80.6152 20.1545V20.1302V20.1181V19.8918L80.6233 18.6511C80.6314 17.8226 80.6395 16.9941 80.6557 16.1656V16.008V15.9676C80.6557 15.9433 80.6557 15.9312 80.6557 15.911C80.6557 15.8787 80.6638 15.8463 80.6679 15.8099C80.6841 15.6806 80.7205 15.5513 80.7732 15.422C80.8298 15.2967 80.9027 15.1674 81.008 15.0623C81.0364 15.034 81.0647 15.0098 81.0971 14.9855C81.1254 14.9613 81.1538 14.937 81.1862 14.9168C81.2469 14.8804 81.3158 14.836 81.3806 14.8158L81.4858 14.7794C81.5182 14.7673 81.5547 14.7632 81.5871 14.7551C81.6195 14.7511 81.66 14.743 81.6924 14.739H81.7895L81.8867 14.7309H82.1216L82.7411 14.7511C83.1582 14.7632 83.5753 14.7673 83.9883 14.7875L85.2355 14.8319H85.199C85.2436 14.8319 85.2679 14.8319 85.2962 14.8319C85.3246 14.8319 85.3529 14.8319 85.3772 14.8319C85.4339 14.836 85.4865 14.8441 85.5351 14.8562C85.6404 14.8764 85.7295 14.9128 85.8267 14.9491C85.8712 14.9693 85.9158 14.9936 85.9563 15.0178C85.9968 15.0421 86.0454 15.0623 86.0818 15.0906L86.1992 15.1754C86.2357 15.2037 86.2762 15.232 86.3086 15.2684L86.507 15.4583L86.6892 15.6483L87.0577 16.0282L87.7866 16.792L88.1429 17.18L88.5033 17.568L88.0943 17.2325L87.6934 16.893L86.8876 16.21L86.4867 15.8665L86.2883 15.6927L86.0939 15.5351C86.0656 15.5068 86.0251 15.4907 85.9968 15.4664L85.8915 15.4058C85.8591 15.3816 85.8267 15.3735 85.7902 15.3573C85.7538 15.3411 85.7174 15.325 85.685 15.3129C85.6121 15.2927 85.5392 15.2644 85.4663 15.2603C85.4299 15.2522 85.3975 15.2522 85.361 15.2522C85.3408 15.2522 85.3246 15.2522 85.3124 15.2522C85.2962 15.2522 85.276 15.2522 85.276 15.2522H85.2436L83.9964 15.2967C83.5834 15.3129 83.1663 15.3209 82.7492 15.3331L82.1297 15.3492H81.9717L81.8948 15.3533H81.8381L81.7814 15.3654L81.7288 15.3775C81.7288 15.3775 81.6964 15.3856 81.6802 15.3896C81.664 15.3977 81.6559 15.4018 81.6397 15.4058C81.6114 15.4139 81.5911 15.4381 81.5668 15.4503C81.5506 15.4583 81.5425 15.4705 81.5304 15.4786C81.5263 15.4907 81.5101 15.4947 81.502 15.5068C81.4656 15.5473 81.4332 15.6079 81.4089 15.6645C81.3846 15.7291 81.3684 15.8019 81.3603 15.8746C81.3603 15.8948 81.3603 15.911 81.3603 15.9312V16.1454C81.3806 16.9739 81.3927 17.8024 81.3967 18.6308L81.4048 19.8716V20.0655C81.4048 20.0655 81.4048 20.0898 81.4048 20.0494V20.0615V20.0736L81.417 20.1302C81.417 20.1706 81.4291 20.203 81.4372 20.2353C81.4413 20.2717 81.4534 20.2999 81.4656 20.3282C81.4777 20.3606 81.4939 20.3808 81.5061 20.4091C81.5223 20.4293 81.5344 20.4535 81.5587 20.4697C81.5911 20.5101 81.6357 20.5384 81.6883 20.5667C81.7409 20.5909 81.8098 20.6111 81.8665 20.6152C81.8827 20.6152 81.9029 20.6152 81.8989 20.6152H83.9964L85.2395 20.6233L86.4867 20.6394L87.7299 20.6556C88.1469 20.6556 88.56 20.6718 88.977 20.6798L90.2202 20.7081H90.37C90.4186 20.7122 90.4631 20.7081 90.5077 20.7081C90.5968 20.7041 90.6778 20.6879 90.7587 20.6718C90.8316 20.6515 90.8964 20.6233 90.9329 20.5909C90.9531 20.5748 90.9612 20.5586 90.9734 20.5465L90.9855 20.5263V20.5182H90.9896C90.9896 20.5182 90.9896 20.5182 90.9896 20.5303V20.4656C90.9896 20.4656 90.9936 20.4414 90.9936 20.4252C90.9936 20.4131 90.9936 20.3969 90.9936 20.3767C90.9936 20.3444 90.9774 20.308 90.9612 20.2676C90.9491 20.2312 90.9288 20.1908 90.9045 20.1504C90.8924 20.1342 90.8802 20.114 90.864 20.0938L90.8478 20.0696L90.8276 20.0494L90.8033 20.0211C90.6656 19.815 90.5239 19.6089 90.3862 19.4028L89.9813 18.7804L89.5723 18.158L89.1674 17.5316L89.1917 17.5518C89.0094 17.4184 88.8313 17.2891 88.6491 17.1557L88.1146 16.7556L88.1065 16.7758Z" fill="white"/>
<path d="M39.0645 14.7754L72.1351 15.2725L39.0645 15.7655V14.7754Z" fill="white"/>
<path d="M53.1364 15.3614L50.7676 25.4285L52.1646 15.1795L53.1364 15.3614Z" fill="white"/>
</g>
<defs>
<clipPath id="clip0_7198_5468">
<rect width="136" height="41" fill="white"/>
</clipPath>
</defs>
</svg>
