<svg width="158" height="44" viewBox="0 0 158 44" fill="none" xmlns="http://www.w3.org/2000/svg">
<path d="M36.7993 9.50386L27.6887 3.11731C24.6337 0.975221 20.515 0.975221 17.4581 3.11731L8.34549 9.50386C6.05909 11.1071 4.70239 13.684 4.70239 16.4292V27.5726C4.70239 30.3178 6.05715 32.8948 8.34549 34.498L17.4562 40.8846C20.5112 43.0266 24.6298 43.0266 27.6867 40.8846L36.7974 34.498C39.0838 32.8948 40.4405 30.3178 40.4405 27.5726V16.4292C40.4405 13.684 39.0857 11.1071 36.7993 9.50386ZM19.5038 5.88708C21.338 4.60145 23.8088 4.60145 25.641 5.88708L33.3212 11.2697C33.8763 11.6592 33.8763 12.4627 33.3212 12.8522L25.641 18.2348C23.8068 19.5204 21.336 19.5204 19.5038 18.2348L11.8236 12.8522C11.2685 12.4627 11.2685 11.6592 11.8236 11.2697L19.5038 5.88708ZM36.9391 27.5707C36.9391 29.2175 36.1258 30.764 34.7536 31.7263L25.6429 38.1129C23.8088 39.3985 21.338 39.3985 19.5058 38.1129L10.3951 31.7263C9.02287 30.764 8.20963 29.2175 8.20963 27.5707V16.4274C8.20963 16.4217 8.20963 16.416 8.20963 16.4103C8.21157 15.6219 9.1335 15.1682 9.78953 15.6276L17.46 21.0046C20.515 23.1467 24.6337 23.1467 27.6906 21.0046L35.3611 15.6276C36.0191 15.1663 36.9391 15.6201 36.941 16.4103C36.941 16.416 36.941 16.4217 36.941 16.4274V27.5707H36.9391Z" fill="white"/>
<path d="M27.6401 24.3638C26.1165 24.6549 25.1053 25.829 24.3542 27.1789C24.1329 27.576 24.1484 28.0751 24.492 28.3417C24.7462 28.5383 25.082 28.527 25.3285 28.3209C26.2718 27.5382 27.3723 27.0958 28.0846 26.9445C28.7969 26.7933 29.9673 26.7517 31.1027 27.092C31.4016 27.1808 31.7161 27.0523 31.8869 26.7668C32.1198 26.3773 31.9645 25.9122 31.6307 25.6286C30.4157 24.5982 29.1871 24.067 27.6401 24.3638Z" fill="white"/>
<path d="M17.5206 24.3638C19.0443 24.6549 20.0555 25.829 20.8066 27.1789C21.0279 27.576 21.0124 28.0751 20.6688 28.3417C20.4146 28.5383 20.0788 28.527 19.8323 28.3209C18.889 27.5382 17.7885 27.0958 17.0762 26.9445C16.3639 26.7933 15.1935 26.7517 14.0581 27.092C13.7592 27.1808 13.4447 27.0523 13.2739 26.7668C13.041 26.3773 13.1963 25.9122 13.5301 25.6286C14.7451 24.5982 15.9737 24.067 17.5206 24.3638Z" fill="white"/>
<path d="M50.3516 29.5641H56.6003C58.6746 29.5641 60.4746 29.1538 62.0004 28.3333C63.5261 27.5128 64.709 26.3846 65.549 24.9487C66.389 23.4957 66.809 21.8461 66.809 20C66.809 18.1538 66.389 16.5128 65.549 15.0769C64.709 13.641 63.5261 12.5128 62.0004 11.6923C60.4746 10.8718 58.6746 10.4615 56.6003 10.4615H50.3516V29.5641ZM54.3374 26.1025V13.923H56.7031C57.9546 13.923 59.0346 14.1709 59.9432 14.6666C60.8518 15.1624 61.5546 15.8632 62.0518 16.7692C62.5661 17.6752 62.8232 18.7521 62.8232 20C62.8232 21.2307 62.5661 22.3077 62.0518 23.2307C61.5546 24.1367 60.8518 24.8461 59.9432 25.3589C59.0346 25.8547 57.9546 26.1025 56.7031 26.1025H54.3374Z" fill="white"/>
<path d="M68.3071 29.5641H72.1643V22.0256C72.1643 20.9829 72.4557 20.1795 73.0386 19.6153C73.6214 19.0342 74.3843 18.7436 75.3272 18.7436H76.5358V15.4102H75.7129C74.8557 15.4102 74.0929 15.5726 73.4243 15.8974C72.7729 16.2051 72.2671 16.7948 71.9071 17.6666V15.5641H68.3071V29.5641Z" fill="white"/>
<path d="M84.4235 29.8718C85.8121 29.8718 87.0721 29.5555 88.2036 28.923C89.335 28.2906 90.235 27.4273 90.9036 26.3333C91.5893 25.2222 91.9322 23.9658 91.9322 22.5641C91.9322 21.1453 91.5893 19.8889 90.9036 18.7948C90.235 17.7008 89.335 16.8376 88.2036 16.2051C87.0721 15.5726 85.8121 15.2564 84.4235 15.2564C83.0349 15.2564 81.7664 15.5726 80.6178 16.2051C79.4863 16.8376 78.5777 17.7008 77.892 18.7948C77.2234 19.8889 76.8891 21.1453 76.8891 22.5641C76.8891 23.9658 77.2234 25.2222 77.892 26.3333C78.5777 27.4273 79.4863 28.2906 80.6178 28.923C81.7664 29.5555 83.0349 29.8718 84.4235 29.8718ZM84.4235 26.4102C83.3778 26.4102 82.5206 26.0512 81.8521 25.3333C81.2006 24.6153 80.8749 23.6923 80.8749 22.5641C80.8749 21.453 81.2006 20.5384 81.8521 19.8205C82.5206 19.0854 83.3778 18.7179 84.4235 18.7179C85.4693 18.7179 86.3178 19.0854 86.9693 19.8205C87.6207 20.5384 87.9464 21.453 87.9464 22.5641C87.9464 23.6923 87.6207 24.6153 86.9693 25.3333C86.3178 26.0512 85.4693 26.4102 84.4235 26.4102Z" fill="white"/>
<path d="M93.4331 34.6923H97.2903V28.4871C97.7874 28.9487 98.3789 29.2991 99.0646 29.5384C99.7675 29.7606 100.513 29.8718 101.302 29.8718C102.673 29.8718 103.899 29.547 104.979 28.8974C106.059 28.2478 106.908 27.3675 107.525 26.2564C108.159 25.1453 108.476 23.9145 108.476 22.5641C108.476 21.1965 108.159 19.9658 107.525 18.8718C106.89 17.7606 106.033 16.8803 104.953 16.2307C103.873 15.5812 102.665 15.2564 101.327 15.2564C99.4589 15.2564 98.0275 15.8461 97.0332 17.0256V15.5641H93.4331V34.6923ZM100.839 26.4102C99.7932 26.4102 98.936 26.0598 98.2675 25.3589C97.616 24.641 97.2903 23.7094 97.2903 22.5641C97.2903 21.4359 97.616 20.5128 98.2675 19.7948C98.936 19.0769 99.7932 18.7179 100.839 18.7179C101.902 18.7179 102.776 19.0854 103.462 19.8205C104.148 20.5384 104.49 21.453 104.49 22.5641C104.49 23.6923 104.148 24.6153 103.462 25.3333C102.776 26.0512 101.902 26.4102 100.839 26.4102Z" fill="white"/>
<path d="M115.467 29.8718C117.095 29.8718 118.407 29.4701 119.401 28.6666C120.395 27.8632 120.893 26.8119 120.893 25.5128C120.893 24.5042 120.584 23.6581 119.967 22.9743C119.35 22.2735 118.458 21.7521 117.292 21.4102L115.055 20.7436C114.044 20.453 113.538 20.0342 113.538 19.4871C113.538 19.1282 113.675 18.8461 113.95 18.641C114.241 18.4359 114.635 18.3333 115.132 18.3333C115.818 18.3333 116.427 18.5128 116.958 18.8718C117.507 19.2136 117.884 19.6752 118.09 20.2564L120.944 18.923C120.515 17.7606 119.778 16.8632 118.732 16.2307C117.704 15.5812 116.504 15.2564 115.132 15.2564C114.087 15.2564 113.161 15.4444 112.355 15.8205C111.55 16.1795 110.924 16.6837 110.478 17.3333C110.032 17.9829 109.81 18.7436 109.81 19.6153C109.81 20.6068 110.118 21.47 110.735 22.2051C111.352 22.923 112.235 23.4444 113.384 23.7692L115.775 24.4359C116.701 24.6923 117.164 25.1025 117.164 25.6666C117.164 26.5042 116.598 26.923 115.467 26.923C114.712 26.923 114.027 26.7094 113.41 26.282C112.792 25.8547 112.304 25.2649 111.944 24.5128L109.115 25.8461C109.527 27.0769 110.298 28.0598 111.43 28.7948C112.578 29.5128 113.924 29.8718 115.467 29.8718Z" fill="white"/>
<path d="M122.426 29.5641H126.284V21.3846C126.284 20.5812 126.524 19.9401 127.004 19.4615C127.484 18.9658 128.101 18.7179 128.855 18.7179C129.609 18.7179 130.226 18.9658 130.706 19.4615C131.186 19.9401 131.426 20.5812 131.426 21.3846V29.5641H135.284V20.5641C135.284 19.5042 135.061 18.5812 134.615 17.7948C134.169 16.9914 133.544 16.3675 132.738 15.923C131.949 15.4786 131.024 15.2564 129.961 15.2564C129.172 15.2564 128.461 15.3931 127.826 15.6666C127.192 15.923 126.678 16.3247 126.284 16.8718V10.1538H122.426V29.5641Z" fill="white"/>
<path d="M137.049 14.3077H140.906V10.4615H137.049V14.3077ZM137.049 29.5641H140.906V15.5641H137.049V29.5641Z" fill="white"/>
<path d="M142.957 34.6923H146.814V28.4871C147.311 28.9487 147.903 29.2991 148.588 29.5384C149.291 29.7606 150.037 29.8718 150.826 29.8718C152.197 29.8718 153.423 29.547 154.503 28.8974C155.583 28.2478 156.431 27.3675 157.049 26.2564C157.683 25.1453 158 23.9145 158 22.5641C158 21.1965 157.683 19.9658 157.049 18.8718C156.414 17.7606 155.557 16.8803 154.477 16.2307C153.397 15.5812 152.188 15.2564 150.851 15.2564C148.983 15.2564 147.551 15.8461 146.557 17.0256V15.5641H142.957V34.6923ZM150.363 26.4102C149.317 26.4102 148.46 26.0598 147.791 25.3589C147.14 24.641 146.814 23.7094 146.814 22.5641C146.814 21.4359 147.14 20.5128 147.791 19.7948C148.46 19.0769 149.317 18.7179 150.363 18.7179C151.426 18.7179 152.3 19.0854 152.986 19.8205C153.671 20.5384 154.014 21.453 154.014 22.5641C154.014 23.6923 153.671 24.6153 152.986 25.3333C152.3 26.0512 151.426 26.4102 150.363 26.4102Z" fill="white"/>
</svg>
