<svg width="557" height="148" viewBox="0 0 557 148" fill="none" xmlns="http://www.w3.org/2000/svg">
<path d="M177.639 106.284H199.628C206.927 106.284 213.261 104.802 218.63 101.84C223.999 98.8777 228.162 94.8045 231.118 89.6203C234.074 84.3745 235.552 78.4189 235.552 71.7535C235.552 65.0882 234.074 59.1635 231.118 53.9793C228.162 48.7952 223.999 44.7219 218.63 41.7595C213.261 38.7972 206.927 37.316 199.628 37.316H177.639V106.284ZM191.665 93.7862V49.8135H199.99C204.393 49.8135 208.194 50.7084 211.391 52.4981C214.589 54.2879 217.062 56.8182 218.811 60.0892C220.621 63.3601 221.526 67.2483 221.526 71.7535C221.526 76.1971 220.621 80.0852 218.811 83.4179C217.062 86.6888 214.589 89.25 211.391 91.1015C208.194 92.8913 204.393 93.7862 199.99 93.7862H191.665Z" fill="white"/>
<path d="M240.824 106.284H254.397V79.0669C254.397 75.3022 255.423 72.4016 257.474 70.3649C259.525 68.2666 262.209 67.2174 265.527 67.2174H269.78V55.1828H266.885C263.868 55.1828 261.184 55.7691 258.831 56.9417C256.539 58.0526 254.759 60.1818 253.492 63.3293V55.7382H240.824V106.284Z" fill="white"/>
<path d="M297.537 107.395C302.424 107.395 306.858 106.253 310.839 103.969C314.821 101.686 317.988 98.5692 320.341 94.6193C322.754 90.6078 323.96 86.0717 323.96 81.0109C323.96 75.8885 322.754 71.3524 320.341 67.4026C317.988 63.4527 314.821 60.3361 310.839 58.0526C306.858 55.7691 302.424 54.6273 297.537 54.6273C292.651 54.6273 288.187 55.7691 284.145 58.0526C280.163 60.3361 276.966 63.4527 274.553 67.4026C272.2 71.3524 271.024 75.8885 271.024 81.0109C271.024 86.0717 272.2 90.6078 274.553 94.6193C276.966 98.5692 280.163 101.686 284.145 103.969C288.187 106.253 292.651 107.395 297.537 107.395ZM297.537 94.8971C293.857 94.8971 290.841 93.601 288.488 91.0089C286.196 88.4169 285.05 85.0842 285.05 81.0109C285.05 76.9994 286.196 73.6976 288.488 71.1055C290.841 68.4517 293.857 67.1248 297.537 67.1248C301.217 67.1248 304.203 68.4517 306.496 71.1055C308.788 73.6976 309.934 76.9994 309.934 81.0109C309.934 85.0842 308.788 88.4169 306.496 91.0089C304.203 93.601 301.217 94.8971 297.537 94.8971Z" fill="white"/>
<path d="M329.242 124.798H342.815V102.396C344.565 104.062 346.646 105.327 349.059 106.191C351.532 106.993 354.157 107.395 356.932 107.395C361.758 107.395 366.071 106.222 369.872 103.877C373.672 101.532 376.658 98.3532 378.83 94.3416C381.062 90.3301 382.178 85.8865 382.178 81.0109C382.178 76.0737 381.062 71.6301 378.83 67.6803C376.598 63.6687 373.582 60.4903 369.781 58.1451C365.981 55.7999 361.728 54.6273 357.022 54.6273C350.447 54.6273 345.409 56.7565 341.91 61.0149V55.7382H329.242V124.798ZM355.303 94.8971C351.623 94.8971 348.607 93.6319 346.254 91.1015C343.961 88.5094 342.815 85.1459 342.815 81.0109C342.815 76.9377 343.961 73.605 346.254 71.0129C348.607 68.4209 351.623 67.1248 355.303 67.1248C359.043 67.1248 362.12 68.4517 364.533 71.1055C366.946 73.6976 368.152 76.9994 368.152 81.0109C368.152 85.0842 366.946 88.4169 364.533 91.0089C362.12 93.601 359.043 94.8971 355.303 94.8971Z" fill="white"/>
<path d="M406.778 107.395C412.509 107.395 417.124 105.944 420.623 103.044C424.122 100.143 425.871 96.3474 425.871 91.657C425.871 88.0157 424.785 84.9608 422.614 82.4921C420.442 79.9618 417.305 78.0794 413.203 76.8451L405.33 74.4382C401.771 73.389 399.991 71.877 399.991 69.9021C399.991 68.606 400.474 67.5877 401.439 66.8471C402.465 66.1065 403.852 65.7362 405.602 65.7362C408.015 65.7362 410.156 66.3842 412.026 67.6803C413.957 68.9146 415.284 70.5809 416.008 72.6793L426.052 67.8654C424.544 63.6687 421.95 60.4286 418.27 58.1451C414.651 55.7999 410.428 54.6273 405.602 54.6273C401.922 54.6273 398.664 55.3062 395.829 56.664C392.993 57.96 390.791 59.7806 389.223 62.1258C387.654 64.471 386.87 67.2174 386.87 70.3649C386.87 73.9445 387.956 77.0611 390.128 79.7149C392.3 82.307 395.406 84.1893 399.448 85.3619L407.864 87.7689C411.121 88.6946 412.75 90.1758 412.75 92.2124C412.75 95.2365 410.759 96.7485 406.778 96.7485C404.124 96.7485 401.711 95.9771 399.539 94.4342C397.367 92.8913 395.648 90.7621 394.381 88.0466L384.427 92.8604C385.875 97.304 388.59 100.853 392.571 103.506C396.613 106.099 401.349 107.395 406.778 107.395Z" fill="white"/>
<path d="M431.269 106.284H444.842V76.7525C444.842 73.8519 445.687 71.5375 447.376 69.8095C449.065 68.0197 451.237 67.1248 453.891 67.1248C456.546 67.1248 458.717 68.0197 460.406 69.8095C462.096 71.5375 462.94 73.8519 462.94 76.7525V106.284H476.514V73.7902C476.514 69.9638 475.729 66.6311 474.161 63.7922C472.592 60.8915 470.39 58.6389 467.555 57.0343C464.78 55.4296 461.522 54.6273 457.782 54.6273C455.007 54.6273 452.504 55.1211 450.272 56.1085C448.04 57.0343 446.23 58.4846 444.842 60.4595V36.2051H431.269V106.284Z" fill="white"/>
<path d="M482.724 51.2021H496.298V37.316H482.724V51.2021ZM482.724 106.284H496.298V55.7382H482.724V106.284Z" fill="white"/>
<path d="M503.515 124.798H517.089V102.396C518.838 104.062 520.92 105.327 523.333 106.191C525.806 106.993 528.43 107.395 531.205 107.395C536.031 107.395 540.345 106.222 544.145 103.877C547.946 101.532 550.932 98.3532 553.104 94.3416C555.336 90.3301 556.452 85.8865 556.452 81.0109C556.452 76.0737 555.336 71.6301 553.104 67.6803C550.872 63.6687 547.855 60.4903 544.055 58.1451C540.254 55.7999 536.001 54.6273 531.296 54.6273C524.72 54.6273 519.683 56.7565 516.184 61.0149V55.7382H503.515V124.798ZM529.576 94.8971C525.897 94.8971 522.88 93.6319 520.528 91.1015C518.235 88.5094 517.089 85.1459 517.089 81.0109C517.089 76.9377 518.235 73.605 520.528 71.0129C522.88 68.4209 525.897 67.1248 529.576 67.1248C533.317 67.1248 536.393 68.4517 538.806 71.1055C541.219 73.6976 542.426 76.9994 542.426 81.0109C542.426 85.0842 541.219 88.4169 538.806 91.0089C536.393 93.601 533.317 94.8971 529.576 94.8971Z" fill="white"/>
<path d="M112.949 28.8583L80.8884 5.80032C70.1379 -1.93344 55.6445 -1.93344 44.8872 5.80032L12.82 28.8583C4.77421 34.6466 0 43.9504 0 53.8616V94.0936C0 104.005 4.76738 113.309 12.82 119.097L44.8803 142.155C55.6308 149.889 70.1242 149.889 80.8816 142.155L112.942 119.097C120.988 113.309 125.762 104.005 125.762 94.0936V53.8616C125.762 43.9504 120.995 34.6466 112.949 28.8583ZM52.086 15.8003C58.5405 11.1587 67.2351 11.1587 73.6827 15.8003L100.709 35.2337C102.663 36.6398 102.663 39.5408 100.709 40.947L73.6827 60.3804C67.2283 65.022 58.5336 65.022 52.086 60.3804L25.0595 40.947C23.1061 39.5408 23.1061 36.6398 25.0595 35.2337L52.086 15.8003ZM113.44 94.0867C113.44 100.032 110.579 105.616 105.75 109.09L73.6895 132.148C67.2351 136.79 58.5405 136.79 52.0929 132.148L20.0326 109.09C15.2037 105.616 12.3419 100.032 12.3419 94.0867V53.8548C12.3419 53.8343 12.3419 53.8138 12.3419 53.7933C12.3488 50.9469 15.593 49.3087 17.9016 50.9674L44.894 70.3803C55.6445 78.1141 70.1379 78.1141 80.8952 70.3803L107.888 50.9674C110.203 49.3019 113.44 50.9401 113.447 53.7933C113.447 53.8138 113.447 53.8343 113.447 53.8548V94.0867H113.44Z" fill="white"/>
<path d="M45.1073 82.5085C50.4689 83.5597 54.0274 87.7986 56.6706 92.6723C57.4492 94.1057 57.3946 95.9078 56.1857 96.8702C55.2909 97.5801 54.1093 97.5392 53.2419 96.7951C49.9225 93.9692 46.0499 92.3719 43.5432 91.8259C41.0366 91.2798 36.9181 91.1296 32.9225 92.3583C31.8706 92.6791 30.7642 92.2149 30.1631 91.1842C29.3435 89.7781 29.8899 88.0989 31.0647 87.075C35.3403 83.3549 39.6637 81.4368 45.1073 82.5085Z" fill="white"/>
<path d="M80.7177 82.5085C75.3561 83.5597 71.7976 87.7986 69.1544 92.6723C68.3758 94.1057 68.4304 95.9078 69.6393 96.8702C70.5341 97.5801 71.7157 97.5392 72.5831 96.7951C75.9025 93.9692 79.7751 92.3719 82.2818 91.8259C84.7884 91.2798 88.9069 91.1296 92.9025 92.3583C93.9543 92.6791 95.0608 92.2149 95.6619 91.1842C96.4815 89.7781 95.9351 88.0989 94.7603 87.075C90.4847 83.3549 86.1613 81.4368 80.7177 82.5085Z" fill="white"/>
</svg>
