<?xml version="1.0" encoding="utf-8"?>
<!-- Generator: Adobe Illustrator 27.8.0, SVG Export Plug-In . SVG Version: 6.00 Build 0)  -->
<svg version="1.1" id="Layer_2_00000031906635956239293710000018070660339861309081_"
	 xmlns="http://www.w3.org/2000/svg" xmlns:xlink="http://www.w3.org/1999/xlink" x="0px" y="0px" viewBox="0 0 394 394"
	 style="enable-background:new 0 0 394 394;" xml:space="preserve">
<style type="text/css">
	.st0{fill:url(#SVGID_1_);}
</style>
<g id="Layer_1-2">
	
		<linearGradient id="SVGID_1_" gradientUnits="userSpaceOnUse" x1="394.7789" y1="2.7851" x2="1.4789" y2="392.975" gradientTransform="matrix(-1 0 0 -1 394 396)">
		<stop  offset="0" style="stop-color:#FFFFFF"/>
		<stop  offset="4.000000e-02" style="stop-color:#FFFFFF;stop-opacity:0.86"/>
		<stop  offset="0.1" style="stop-color:#FFFFFF;stop-opacity:0.68"/>
		<stop  offset="0.16" style="stop-color:#FFFFFF;stop-opacity:0.52"/>
		<stop  offset="0.23" style="stop-color:#FFFFFF;stop-opacity:0.38"/>
		<stop  offset="0.31" style="stop-color:#FFFFFF;stop-opacity:0.26"/>
		<stop  offset="0.39" style="stop-color:#FFFFFF;stop-opacity:0.16"/>
		<stop  offset="0.48" style="stop-color:#FFFFFF;stop-opacity:9.000000e-02"/>
		<stop  offset="0.59" style="stop-color:#FFFFFF;stop-opacity:4.000000e-02"/>
		<stop  offset="0.73" style="stop-color:#FFFFFF;stop-opacity:0"/>
		<stop  offset="1" style="stop-color:#FFFFFF;stop-opacity:0"/>
	</linearGradient>
	<path class="st0" d="M0,0l0,394h394V0L39.1,0L0,0z M78.5,0.5v38.6H39.6V0.5H78.5z M236.1,197.2v38.9h-38.9v-38.9H236.1z
		 M197.2,196.8v-38.9h38.9v38.9H197.2z M196.8,236.1h-38.9v-38.9h38.9V236.1z M157.9,196.8v-38.9h38.9v38.9H157.9z M157.9,157.4
		v-38.9h38.9v38.9H157.9z M197.2,118.5h38.9v38.9h-38.9V118.5z M236.6,118.5h38.9v38.9h-38.9V118.5z M275.5,157.9v38.9h-38.9v-38.9
		H275.5z M275.5,197.2v38.9h-38.9v-38.9H275.5z M275.5,236.6v38.9h-38.9v-38.9H275.5z M236.1,275.5h-38.9v-38.9h38.9V275.5z
		 M196.8,275.5h-38.9v-38.9h38.9V275.5z M157.4,275.5h-38.9v-38.9h38.9V275.5z M118.5,236.1v-38.9h38.9v38.9H118.5z M118.5,196.8
		v-38.9h38.9v38.9H118.5z M118.5,157.4v-38.9h38.9v38.9H118.5z M118.5,118V79.1h38.9V118H118.5z M157.9,79.1h38.9V118h-38.9V79.1z
		 M197.2,79.1h38.9V118h-38.9V79.1z M236.6,79.1h38.9V118h-38.9V79.1z M276,79.1H315V118H276V79.1z M315,118.5v38.9H276v-38.9H315z
		 M315,157.9v38.9H276v-38.9H315z M314.9,197.2v38.9H276v-38.9H314.9z M314.9,236.6v38.9H276v-38.9H314.9z M314.9,276v38.9H276V276
		H314.9z M275.5,314.9h-38.9V276h38.9V314.9z M236.1,314.9h-38.9V276h38.9V314.9z M196.8,314.9h-38.9V276h38.9V314.9z M157.4,314.9
		h-38.9V276h38.9V314.9z M118,314.9H79.1V276H118V314.9z M79.1,275.5v-38.9H118v38.9H79.1z M79.1,236.1v-38.9H118v38.9H79.1z
		 M79.1,196.8v-38.9H118v38.9H79.1z M79.1,157.4v-38.9H118v38.9H79.1z M79.1,118V79.1H118V118H79.1z M79.1,78.6V39.7H118v38.9H79.1z
		 M118.5,39.7h38.9v38.9h-38.9V39.7z M157.9,39.7h38.9v38.9h-38.9V39.7z M197.2,39.7h38.9v38.9h-38.9V39.7z M236.6,39.7h38.9v38.9
		h-38.9V39.7z M276,39.7H315v38.9H276V39.7z M315.5,39.7h38.9v38.9h-38.9V39.7z M354.4,79.1V118h-38.9V79.1H354.4z M354.4,118.5
		v38.9h-38.9v-38.9H354.4z M354.4,157.9v38.9h-38.9v-38.9H354.4z M354.4,197.2v38.9h-38.9v-38.9H354.4z M354.4,236.6v38.9h-38.9
		v-38.9H354.4z M354.4,276v38.9h-38.9V276H354.4z M354.4,315.4v38.9h-38.9v-38.9H354.4z M314.9,354.3H276v-38.9h38.9V354.3z
		 M275.5,354.3h-38.9v-38.9h38.9V354.3z M236.1,354.3h-38.9v-38.9h38.9V354.3z M196.8,354.3h-38.9v-38.9h38.9V354.3z M157.4,354.3
		h-38.9v-38.9h38.9V354.3z M118,354.3H79.1v-38.9H118V354.3z M78.6,354.3H39.7v-38.9h38.9V354.3z M39.7,314.9V276h38.9v38.9H39.7z
		 M39.7,275.5v-38.9h38.9v38.9H39.7z M39.7,236.1v-38.9h38.9v38.9H39.7z M39.7,196.8v-38.9h38.9v38.9H39.7z M39.7,157.4v-38.9h38.9
		v38.9H39.7z M39.7,118V79.1h38.9V118H39.7z M39.7,78.6V39.7h38.9v38.9H39.7z M79.1,0.5H118v38.7H79.1V0.5L79.1,0.5z M118.5,0.5
		h38.9v38.7h-38.9V0.5L118.5,0.5z M157.9,0.5h38.9v38.7h-38.9V0.5L157.9,0.5z M197.2,0.5h38.9v38.7h-38.9V0.5L197.2,0.5z M236.6,0.5
		h38.9v38.7h-38.9V0.5L236.6,0.5z M276,0.5H315v38.7H276V0.5L276,0.5z M315.5,0.5h38.9v38.7h-38.9V0.5L315.5,0.5z M393.5,39.1h-38.6
		V0.5h38.6V39.1z M393.5,78.6h-38.6V39.7h38.6V78.6z M393.5,118h-38.6V79.1h38.6V118z M393.5,157.4h-38.6v-38.9h38.6V157.4z
		 M393.5,196.8h-38.6v-38.9h38.6V196.8z M393.5,236.1h-38.6v-38.9h38.6V236.1z M393.5,275.5h-38.6v-38.9h38.6V275.5z M393.5,314.9
		h-38.6V276h38.6V314.9z M393.5,354.3h-38.6v-38.9h38.6V354.3z M354.9,393.5v-38.6h38.6v38.6H354.9z M315.4,393.5v-38.6h38.9v38.6
		H315.4z M276,393.5v-38.6h38.9v38.6H276z M236.6,393.5v-38.6h38.9v38.6H236.6z M197.2,393.5v-38.6h38.9v38.6H197.2z M157.9,393.5
		v-38.6h38.9v38.6H157.9z M118.5,393.5v-38.6h38.9v38.6H118.5z M79.1,393.5v-38.6H118v38.6H79.1z M39.7,393.5v-38.6h38.9v38.6H39.7z
		 M0.5,354.8h38.6v38.6H0.5V354.8z M0.5,315.4h38.6v38.9H0.5V315.4z M0.5,276h38.6v38.9H0.5V276z M0.5,236.6h38.6v38.9H0.5V236.6z
		 M0.5,197.2h38.6v38.9H0.5V197.2z M0.5,157.8h38.6v38.9H0.5V157.8z M0.5,118.4h38.6v38.9H0.5V118.4z M0.5,79h38.6v38.9H0.5V79z
		 M0.5,39.6h38.6v38.9H0.5V39.6z M39.2,39.1H0.5V0.5h38.6V39.1L39.2,39.1z"/>
</g>
</svg>
