<?xml version="1.0" encoding="UTF-8"?><svg id="Layer_2" xmlns="http://www.w3.org/2000/svg" xmlns:xlink="http://www.w3.org/1999/xlink" viewBox="0 0 394 394"><defs><style>.cls-1{fill:url(#linear-gradient);stroke-width:0px;}</style><linearGradient id="linear-gradient" x1="394.78" y1="393.22" x2="1.48" y2="3.03" gradientUnits="userSpaceOnUse"><stop offset="0" stop-color="#fff"/><stop offset=".04" stop-color="#fff" stop-opacity=".86"/><stop offset=".1" stop-color="#fff" stop-opacity=".68"/><stop offset=".16" stop-color="#fff" stop-opacity=".52"/><stop offset=".23" stop-color="#fff" stop-opacity=".38"/><stop offset=".31" stop-color="#fff" stop-opacity=".26"/><stop offset=".39" stop-color="#fff" stop-opacity=".16"/><stop offset=".48" stop-color="#fff" stop-opacity=".09"/><stop offset=".59" stop-color="#fff" stop-opacity=".04"/><stop offset=".73" stop-color="#fff" stop-opacity="0"/><stop offset="1" stop-color="#fff" stop-opacity="0"/></linearGradient></defs><g id="Layer_1-2"><path class="cls-1" d="m354.85,0H0v394h394V0h-39.15Zm-.5.5v38.64h-38.9V.5h38.9Zm-157.6,196.75v38.9h-38.9v-38.9h38.9Zm-38.9-.5v-38.9h38.9v38.9h-38.9Zm39.4.5h38.9v38.9h-38.9v-38.9Zm0-.5v-38.9h38.9v38.9h-38.9Zm0-39.4v-38.9h38.9v38.9h-38.9Zm-.5,0h-38.9v-38.9h38.9v38.9Zm-39.4,0h-38.9v-38.9h38.9v38.9Zm0,.5v38.9h-38.9v-38.9h38.9Zm0,39.4v38.9h-38.9v-38.9h38.9Zm0,39.4v38.9h-38.9v-38.9h38.9Zm.5,0h38.9v38.9h-38.9v-38.9Zm39.4,0h38.9v38.9h-38.9v-38.9Zm39.4,0h38.9v38.9h-38.9v-38.9Zm0-.5v-38.9h38.9v38.9h-38.9Zm0-39.4v-38.9h38.9v38.9h-38.9Zm0-39.4v-38.9h38.9v38.9h-38.9Zm0-39.4v-38.9h38.9v38.9h-38.9Zm-.5,0h-38.9v-38.9h38.9v38.9Zm-39.4,0h-38.9v-38.9h38.9v38.9Zm-39.4,0h-38.9v-38.9h38.9v38.9Zm-39.4,0h-38.9v-38.9h38.9v38.9Zm0,.5v38.9h-38.9v-38.9h38.9Zm0,39.4v38.9h-38.9v-38.9h38.9Zm0,39.4v38.9h-38.9v-38.9h38.9Zm0,39.4v38.9h-38.9v-38.9h38.9Zm0,39.4v38.9h-38.9v-38.9h38.9Zm.5,0h38.9v38.9h-38.9v-38.9Zm39.4,0h38.9v38.9h-38.9v-38.9Zm39.4,0h38.9v38.9h-38.9v-38.9Zm39.4,0h38.9v38.9h-38.9v-38.9Zm39.4,0h38.9v38.9h-38.9v-38.9Zm0-.5v-38.9h38.9v38.9h-38.9Zm0-39.4v-38.9h38.9v38.9h-38.9Zm0-39.4v-38.9h38.9v38.9h-38.9Zm0-39.4v-38.9h38.9v38.9h-38.9Zm0-39.4v-38.9h38.9v38.9h-38.9Zm0-39.4v-38.9h38.9v38.9h-38.9Zm-.5,0h-38.9v-38.9h38.9v38.9Zm-39.4,0h-38.9v-38.9h38.9v38.9Zm-39.4,0h-38.9v-38.9h38.9v38.9Zm-39.4,0h-38.9v-38.9h38.9v38.9Zm-39.4,0h-38.9v-38.9h38.9v38.9Zm-39.4,0h-38.9v-38.9h38.9v38.9Zm0,.5v38.9h-38.9v-38.9h38.9Zm0,39.4v38.9h-38.9v-38.9h38.9Zm0,39.4v38.9h-38.9v-38.9h38.9Zm0,39.4v38.9h-38.9v-38.9h38.9Zm0,39.4v38.9h-38.9v-38.9h38.9Zm0,39.4v38.9h-38.9v-38.9h38.9Zm0,39.4v38.9h-38.9v-38.9h38.9Zm.5,0h38.9v38.9h-38.9v-38.9Zm39.4,0h38.9v38.9h-38.9v-38.9Zm39.4,0h38.9v38.9h-38.9v-38.9Zm39.4,0h38.9v38.9h-38.9v-38.9Zm39.4,0h38.9v38.9h-38.9v-38.9Zm39.4,0h38.9v38.9h-38.9v-38.9Zm39.4,0h38.9v38.9h-38.9v-38.9Zm0-.5v-38.9h38.9v38.9h-38.9Zm0-39.4v-38.9h38.9v38.9h-38.9Zm0-39.4v-38.9h38.9v38.9h-38.9Zm0-39.4v-38.9h38.9v38.9h-38.9Zm0-39.4v-38.9h38.9v38.9h-38.9Zm0-39.4v-38.9h38.9v38.9h-38.9Zm0-39.4v-38.9h38.9v38.9h-38.9Zm-.5-78.04v38.64h-38.9V.5h38.9Zm-39.4,0v38.64h-38.9V.5h38.9Zm-39.4,0v38.64h-38.9V.5h38.9Zm-39.4,0v38.64h-38.9V.5h38.9Zm-39.4,0v38.64h-38.9V.5h38.9Zm-39.4,0v38.64h-38.9V.5h38.9Zm-39.4,0v38.64h-38.9V.5h38.9ZM.5.5h38.64v38.64H.5V.5Zm0,39.15h38.64v38.9H.5v-38.9Zm0,39.4h38.64v38.9H.5v-38.9Zm0,39.4h38.64v38.9H.5v-38.9Zm0,39.4h38.64v38.9H.5v-38.9Zm0,39.4h38.64v38.9H.5v-38.9Zm0,39.4h38.64v38.9H.5v-38.9Zm0,39.4h38.64v38.9H.5v-38.9Zm0,39.4h38.64v38.9H.5v-38.9Zm0,78.04v-38.64h38.64v38.64H.5Zm39.15,0v-38.64h38.9v38.64h-38.9Zm39.4,0v-38.64h38.9v38.64h-38.9Zm39.4,0v-38.64h38.9v38.64h-38.9Zm39.4,0v-38.64h38.9v38.64h-38.9Zm39.4,0v-38.64h38.9v38.64h-38.9Zm39.4,0v-38.64h38.9v38.64h-38.9Zm39.4,0v-38.64h38.9v38.64h-38.9Zm39.4,0v-38.64h38.9v38.64h-38.9Zm78.04,0h-38.64v-38.64h38.64v38.64Zm0-39.15h-38.64v-38.9h38.64v38.9Zm0-39.4h-38.64v-38.9h38.64v38.9Zm0-39.4h-38.64v-38.9h38.64v38.9Zm0-39.4h-38.64v-38.9h38.64v38.9Zm0-39.4h-38.64v-38.9h38.64v38.9Zm0-39.4h-38.64v-38.9h38.64v38.9Zm0-39.4h-38.64v-38.9h38.64v38.9Zm0-39.4h-38.64v-38.9h38.64v38.9Zm-38.64-39.4V.5h38.64v38.64h-38.64Z"/></g></svg>