<svg width="252" height="82" viewBox="0 0 252 82" fill="none" xmlns="http://www.w3.org/2000/svg">
<g id="Group 91">
<g id="Layer_1-2">
<g id="Group">
<path id="Vector" d="M251.705 14.5622C242.166 13.3575 238.642 9.83436 237.438 0.295248C237.387 -0.0987417 236.824 -0.0987417 236.773 0.295248C235.569 9.83436 232.046 13.3575 222.506 14.5622C222.112 14.6127 222.112 15.176 222.506 15.2265C232.046 16.4312 235.569 19.9543 236.773 29.4935C236.824 29.8874 237.387 29.8874 237.438 29.4935C238.642 19.9543 242.166 16.4312 251.705 15.2265C252.099 15.176 252.099 14.6127 251.705 14.5622Z" fill="#40BDEC"/>
<path id="Vector_2" d="M215.013 57.0558C191.813 67.9032 163.294 73.3432 135.046 73.3635C106.805 73.3382 78.5738 67.8981 55.3789 57.0558C54.6338 56.7073 54.0277 57.7124 54.6768 58.2125C59.1294 61.6372 63.9936 64.5719 69.0094 67.1834C87.9159 76.7275 111.459 81.8014 135.195 81.8671C158.928 81.8014 182.474 76.7275 201.38 67.1834C206.396 64.5719 211.26 61.6372 215.713 58.2125C216.364 57.7124 215.756 56.7073 215.011 57.0558H215.013Z" fill="#40BDEC"/>
<g id="Group_2">
<path id="Vector_3" d="M0 14.1387H26.516V20.6976H7.65503V27.9157H23.7278V34.4216H7.65503V49.5649H0V14.1387Z" fill="#27254D"/>
<path id="Vector_4" d="M27.7188 22.2304H34.9369V27.4786C35.7021 25.2359 38.4903 21.6824 44.5037 21.6824V29.6632C38.162 29.6632 35.0454 32.56 35.0454 39.0659V49.5622H27.7188V22.2254V22.2304Z" fill="#27254D"/>
<path id="Vector_5" d="M46.0879 35.8995C46.0879 28.0273 52.2124 21.6855 60.2488 21.6855C67.6841 21.6855 73.5359 28.0273 73.5359 35.7909C73.5359 37.1017 73.3717 38.415 73.3717 38.415H53.5257C54.3996 42.1882 57.5161 43.9914 61.1252 43.9914C63.7493 43.9914 66.4819 43.2262 68.5049 41.8599L71.2401 47.108C68.1791 49.131 64.6231 50.116 61.0721 50.116C53.0888 50.116 46.0904 44.9209 46.0904 35.902L46.0879 35.8995ZM66.6436 33.5482C66.0955 30.1033 63.3628 27.8075 60.0291 27.8075C56.6953 27.8075 54.1243 30.1033 53.4121 33.5482H66.6436Z" fill="#27254D"/>
<path id="Vector_6" d="M75.5553 46.3952L78.1793 40.7631C80.0382 42.185 82.6067 43.66 86.7082 43.66C88.4029 43.66 91.1911 43.0033 91.1911 41.3642C91.1911 39.7251 88.8398 39.3412 86.4885 38.6846C81.0762 37.2627 76.6488 35.4594 76.6488 30.2113C76.6488 24.6348 82.1167 21.6824 87.2537 21.6824C91.7366 21.6824 94.5804 22.7759 97.4217 24.4176L94.9618 29.8855C92.2822 28.5747 89.7667 27.9736 87.3623 27.9736C85.6677 27.9736 84.0816 28.7388 84.0816 29.8855C84.0816 31.416 86.3774 31.9084 88.8928 32.4565C93.5399 33.5501 98.6239 35.573 98.6239 41.1495C98.6239 47.8726 91.7897 50.1153 86.7057 50.1153C80.8564 50.1153 77.0832 47.8196 75.5527 46.3977L75.5553 46.3952Z" fill="#27254D"/>
<path id="Vector_7" d="M101.635 13.5933H108.962V25.6756C111.094 22.8318 114.102 21.6852 117.38 21.6852C124.487 21.6852 127.111 26.1681 127.111 33.8231V49.5676H119.784V34.7526C119.784 30.7621 118.582 28.6306 114.973 28.6306C111.091 28.6306 108.96 31.7471 108.96 35.682V49.5676H101.633V13.5933H101.635Z" fill="#27254D"/>
<path id="Vector_8" d="M131.107 39.1243C131.107 35.735 132.802 31.9062 136.684 29.5574C135.373 27.4814 134.552 25.2943 134.552 23.0515C134.552 18.2959 138.161 13.5933 144.94 13.5933C148.438 13.5933 152.648 14.904 155.272 20.6472L149.696 24.4204C148.658 21.5766 146.852 19.9375 144.993 19.9375C143.134 19.9375 141.821 21.3038 141.821 23.0541C141.821 25.0771 143.079 27.2642 146.468 30.598L153.355 37.3766C153.739 36.7755 154.176 35.682 154.176 33.8787H160.737C160.737 36.9953 159.753 40.276 158.55 42.0793L162.268 45.6883L157.785 50.2823L154.067 46.7844C151.171 48.9716 147.289 50.1182 143.627 50.1182C137.174 50.1182 131.107 46.6733 131.107 39.1294V39.1243ZM149.095 42.2965L140.566 34.0959C138.871 35.1895 138.106 36.8841 138.106 38.4146C138.106 41.4226 140.621 43.7184 144.283 43.7184C146.034 43.7184 147.673 43.1703 149.095 42.2965Z" fill="#27254D"/>
<path id="Vector_9" d="M163.801 31.8532C163.801 21.7383 171.565 13.5933 182.498 13.5933C187.474 13.5933 191.845 15.3435 195.073 18.1317L190.317 23.3243C187.857 21.1372 185.342 20.5361 182.662 20.5361C176.485 20.5361 171.782 25.567 171.782 31.8532C171.782 38.1394 176.374 43.2259 182.662 43.2259C186.052 43.2259 188.895 41.6954 190.807 39.6724V34.4798H184.794V28.9033H197.806V42.6803C194.689 47.3274 188.949 50.1712 182.551 50.1712C171.618 50.1712 163.799 42.0262 163.799 31.8557L163.801 31.8532Z" fill="#27254D"/>
<path id="Vector_10" d="M201.744 35.8995C201.744 27.9717 208.197 21.6855 216.342 21.6855C224.487 21.6855 230.993 27.9742 230.993 35.8995C230.993 43.8248 224.543 50.1135 216.342 50.1135C208.141 50.1135 201.744 43.8248 201.744 35.8995ZM223.505 35.8995C223.505 31.6363 220.444 28.4642 216.342 28.4642C212.24 28.4642 209.179 31.6363 209.179 35.8995C209.179 40.1627 212.24 43.3348 216.342 43.3348C220.444 43.3348 223.505 40.2182 223.505 35.8995Z" fill="#27254D"/>
</g>
</g>
</g>
</g>
</svg>
