<svg width="76" height="76" viewBox="0 0 76 76" fill="none" xmlns="http://www.w3.org/2000/svg">
<g id="Group 69">
<circle id="Ellipse 15" cx="38" cy="38" r="38" fill="url(#paint0_radial_227_2414)"/>
<g id="Group 61">
<path id="Vector" d="M37.4733 37.4531H28.4918C28.4897 35.209 27.5981 33.0574 26.0126 31.4705C24.4271 29.8837 22.2774 28.9913 20.0352 28.9892V20C24.6581 20.0063 29.0899 21.8471 32.3588 25.1189C35.6277 28.3906 37.467 32.8262 37.4733 37.4531Z" fill="white"/>
<path id="Vector_2" d="M37.4733 55.4436H28.4918C28.4897 53.1994 27.5981 51.0478 26.0126 49.461C24.4271 47.8742 22.2774 46.9818 20.0352 46.9797V37.9905C24.6581 37.9968 29.0899 39.8376 32.3588 43.1093C35.6277 46.3811 37.467 50.8167 37.4733 55.4436Z" fill="white"/>
<path id="Vector_3" d="M55.4484 55.4436C50.8251 55.4383 46.3927 53.5978 43.1236 50.3259C39.8544 47.0539 38.0155 42.6177 38.0103 37.9905H46.9917C46.9938 40.2346 47.8855 42.3862 49.471 43.973C51.0564 45.5599 53.2062 46.4523 55.4484 46.4544V55.4436Z" fill="white"/>
<path id="Vector_4" d="M55.4484 37.4531C50.8255 37.4468 46.3937 35.6059 43.1247 32.3342C39.8558 29.0625 38.0166 24.6269 38.0103 20L46.9917 20C46.9938 22.2441 47.8855 24.3957 49.471 25.9826C51.0564 27.5694 53.2062 28.4618 55.4484 28.4639V37.4531Z" fill="white"/>
</g>
</g>
<defs>
<radialGradient id="paint0_radial_227_2414" cx="0" cy="0" r="1" gradientUnits="userSpaceOnUse" gradientTransform="translate(38 38) rotate(90) scale(38)">
<stop stop-color="#A4DEFF"/>
<stop offset="1" stop-color="#20AFFF"/>
</radialGradient>
</defs>
</svg>
