<svg width="461" height="255" viewBox="0 0 461 255" fill="none" xmlns="http://www.w3.org/2000/svg">
<mask id="mask0_1436_2199" style="mask-type:alpha" maskUnits="userSpaceOnUse" x="0" y="0" width="461" height="255">
<rect width="461" height="255" fill="url(#paint0_linear_1436_2199)"/>
</mask>
<g mask="url(#mask0_1436_2199)">
<path opacity="0.6" fill-rule="evenodd" clip-rule="evenodd" d="M339.361 58.498C306.567 40.3385 268.841 30 228.701 30C187.995 30 149.772 40.6318 116.658 59.2699L177.858 165.271C192.964 157.039 210.286 152.361 228.701 152.361C246.55 152.361 263.374 156.756 278.147 164.523L339.361 58.498ZM114.054 60.7585L175.245 166.744C145.021 184.34 124.255 216.4 122.431 253.441H0C1.87889 171.107 47.2584 99.5176 114.054 60.7585ZM457.402 253.441C455.51 170.544 409.521 98.5398 341.976 59.9686L280.783 165.957C311.75 183.374 333.119 215.842 334.971 253.441H457.402Z" fill="url(#paint1_radial_1436_2199)"/>
<g opacity="0.4">
<path d="M85 152C79.6599 152 74.4397 153.584 69.9996 156.55C65.5595 159.517 62.0988 163.734 60.0553 168.668C58.0117 173.601 57.477 179.03 58.5188 184.267C59.5606 189.505 62.1321 194.316 65.9081 198.092C69.6841 201.868 74.4951 204.439 79.7326 205.481C84.9701 206.523 90.3988 205.988 95.3325 203.945C100.266 201.901 104.483 198.441 107.45 194C110.416 189.56 112 184.34 112 179C112 171.839 109.155 164.972 104.092 159.908C99.0284 154.845 92.1609 152 85 152ZM70.5586 179.607C68.999 179.909 68.8853 178.762 68.935 178.122C68.955 177.886 69.0425 177.66 69.1872 177.472L71.9583 173.92C72.1274 173.703 72.2175 173.436 72.2137 173.161C72.2098 172.886 72.1122 172.621 71.937 172.41L69.205 169.113C69.0525 168.932 68.9584 168.709 68.935 168.474C68.832 167.209 69.8196 166.942 70.4129 166.896C70.6625 166.879 70.9111 166.942 71.1234 167.074L79.433 172.193C80.8221 173.049 79.7883 173.991 79.5005 174.218C79.4641 174.246 79.4261 174.272 79.3869 174.296L70.9458 179.455C70.8276 179.53 70.6962 179.582 70.5586 179.607ZM96.6171 195.136C92.9098 193.716 88.97 193 85 193.026C81.0312 193 77.0925 193.716 73.3865 195.136C73.181 195.222 72.9575 195.257 72.7356 195.236C72.5138 195.216 72.3004 195.141 72.1143 195.018C71.9282 194.896 71.7751 194.729 71.6686 194.534C71.5621 194.338 71.5054 194.119 71.5036 193.896C71.5 193.839 71.5 193.782 71.5036 193.726C72.0033 190.508 73.637 187.575 76.1098 185.457C78.5826 183.338 81.7314 182.174 84.9876 182.174C88.2437 182.174 91.3925 183.338 93.8653 185.457C96.3381 187.575 97.9719 190.508 98.4716 193.726C98.4751 193.784 98.4751 193.842 98.4716 193.9C98.4673 194.119 98.4102 194.333 98.305 194.525C98.1998 194.717 98.0497 194.881 97.8675 195.003C97.6853 195.124 97.4764 195.2 97.2587 195.223C97.041 195.246 96.8208 195.216 96.6171 195.136ZM99.4592 179.607C99.3213 179.583 99.1898 179.531 99.072 179.455L90.6167 174.296C90.5774 174.272 90.5395 174.246 90.503 174.218C90.2153 173.991 89.1815 173.049 90.5705 172.193L98.8766 167.092C99.0894 166.96 99.3376 166.898 99.5871 166.914C100.18 166.96 101.168 167.227 101.061 168.491C101.041 168.728 100.947 168.952 100.791 169.131L98.063 172.428C97.8866 172.639 97.7882 172.904 97.7843 173.179C97.7804 173.454 97.8713 173.722 98.0417 173.938L100.809 177.49C100.956 177.677 101.045 177.903 101.065 178.14C101.118 178.762 101.005 179.909 99.445 179.607H99.4592Z" fill="white"/>
</g>
<g opacity="0.25">
<path d="M228 54C222.66 54 217.44 55.5835 213 58.5503C208.559 61.5171 205.099 65.7339 203.055 70.6675C201.012 75.6011 200.477 81.0299 201.519 86.2674C202.561 91.5048 205.132 96.3158 208.908 100.092C212.684 103.868 217.495 106.439 222.733 107.481C227.97 108.523 233.399 107.988 238.332 105.945C243.266 103.901 247.483 100.44 250.45 96.0003C253.416 91.5602 255 86.34 255 80.9999C255 73.8391 252.155 66.9716 247.092 61.9081C242.028 56.8446 235.161 54 228 54ZM218.053 81.579C217.73 81.1959 217.495 80.7474 217.363 80.2645C217.164 79.554 217.466 79.2414 216.738 79.0922C215.672 78.8719 213.956 79.5966 213.001 80.0159C211.918 80.4782 210.93 81.137 210.088 81.9591C210.221 80.6999 210.662 79.4927 211.372 78.4444C212.082 77.3961 213.04 76.5389 214.16 75.9486C215.28 75.3582 216.529 75.0529 217.795 75.0597C219.061 75.0664 220.307 75.385 221.42 75.9872C222.671 76.6693 224.177 77.8026 224.177 79.3764C224.178 79.8444 224.083 80.3076 223.897 80.737C223.667 81.2853 223.299 81.7647 222.828 82.1285C222.358 82.4922 221.802 82.728 221.213 82.8128C220.625 82.8976 220.024 82.8285 219.47 82.6123C218.916 82.396 218.428 82.0401 218.053 81.579ZM235.734 98.3758C233.464 97.4841 230.817 96.7061 227.986 96.7061C225.154 96.7061 222.508 97.4841 220.234 98.3758C220.098 98.4321 219.951 98.4547 219.805 98.4418C219.659 98.4289 219.518 98.3807 219.394 98.3015C219.271 98.2222 219.168 98.1142 219.095 97.9868C219.023 97.8593 218.982 97.7161 218.976 97.5694C218.976 97.5267 218.976 97.4805 218.976 97.4344C219.673 93.0788 223.445 90.56 228 90.56C232.554 90.56 236.327 93.0717 236.995 97.4344V97.5694C236.989 97.7147 236.948 97.8565 236.876 97.9828C236.804 98.1091 236.703 98.2163 236.58 98.2953C236.458 98.3743 236.319 98.4228 236.174 98.4368C236.029 98.4508 235.883 98.4299 235.748 98.3758H235.734ZM245.681 80.737C245.394 81.3933 244.91 81.9444 244.296 82.3144C243.683 82.6845 242.97 82.8554 242.255 82.8036C241.54 82.7518 240.859 82.4798 240.305 82.0252C239.752 81.5705 239.352 80.9554 239.162 80.2645C238.963 79.554 239.265 79.2414 238.537 79.0922C237.471 78.8719 235.755 79.5966 234.8 80.0159C233.717 80.4782 232.729 81.137 231.887 81.9591C232.02 80.7019 232.462 79.4969 233.171 78.4503C233.881 77.4037 234.837 76.5477 235.955 75.9577C237.073 75.3677 238.319 75.0617 239.584 75.0669C240.848 75.072 242.092 75.3881 243.205 75.9872C244.466 76.6693 245.962 77.8061 245.962 79.3764C245.962 79.8447 245.865 80.3079 245.678 80.737H245.681Z" fill="white"/>
</g>
<path d="M373 152C367.66 152 362.44 153.584 358 156.55C353.559 159.517 350.099 163.734 348.055 168.668C346.012 173.601 345.477 179.03 346.519 184.267C347.561 189.505 350.132 194.316 353.908 198.092C357.684 201.868 362.495 204.439 367.733 205.481C372.97 206.523 378.399 205.988 383.332 203.945C388.266 201.901 392.483 198.44 395.45 194C398.416 189.56 400 184.34 400 179C400 171.839 397.155 164.972 392.092 159.908C387.028 154.845 380.161 152 373 152ZM382.883 169.298C383.569 169.297 384.239 169.5 384.809 169.88C385.379 170.26 385.824 170.801 386.086 171.434C386.349 172.067 386.418 172.764 386.284 173.436C386.151 174.109 385.821 174.726 385.336 175.211C384.852 175.695 384.234 176.025 383.562 176.159C382.89 176.292 382.193 176.224 381.56 175.961C380.927 175.698 380.386 175.254 380.005 174.684C379.625 174.114 379.422 173.443 379.423 172.758C379.423 171.84 379.788 170.96 380.437 170.311C381.085 169.662 381.966 169.298 382.883 169.298ZM363.117 169.298C363.802 169.297 364.472 169.5 365.042 169.88C365.612 170.26 366.057 170.801 366.32 171.434C366.582 172.067 366.651 172.764 366.518 173.436C366.384 174.109 366.054 174.726 365.569 175.211C365.085 175.695 364.467 176.025 363.795 176.159C363.123 176.292 362.426 176.224 361.793 175.961C361.16 175.698 360.619 175.254 360.239 174.684C359.858 174.114 359.656 173.443 359.656 172.758C359.657 171.841 360.022 170.961 360.671 170.312C361.32 169.664 362.199 169.299 363.117 169.298ZM388.205 185.885C387.072 192.354 380.695 196.841 373 196.841C365.305 196.841 358.932 192.354 357.798 185.885C357.786 185.819 357.779 185.753 357.777 185.686C357.777 184.752 358.914 184.148 359.909 184.489C363.745 185.814 368.222 186.489 373.003 186.489C377.785 186.489 382.262 185.814 386.098 184.489C387.09 184.133 388.23 184.748 388.23 185.686C388.227 185.753 388.219 185.819 388.205 185.885Z" fill="white"/>
<path opacity="0.8" fill-rule="evenodd" clip-rule="evenodd" d="M236.143 204.016C228.399 206.51 220.941 209.819 213.896 213.886L213.133 214.327C202.043 220.729 198.244 234.91 204.646 246C211.049 257.09 225.23 260.89 236.32 254.487L237.082 254.046C244.128 249.979 250.722 245.175 256.754 239.715L329.354 174L236.143 204.016ZM214.534 239.939C217.988 245.922 225.638 247.972 231.621 244.518C237.603 241.063 239.653 233.413 236.199 227.431C232.745 221.448 225.095 219.398 219.112 222.852C213.129 226.306 211.08 233.956 214.534 239.939Z" fill="white"/>
</g>
<defs>
<linearGradient id="paint0_linear_1436_2199" x1="230.5" y1="0" x2="230.5" y2="255" gradientUnits="userSpaceOnUse">
<stop stop-color="#D9D9D9"/>
<stop offset="1" stop-color="#D9D9D9" stop-opacity="0"/>
</linearGradient>
<radialGradient id="paint1_radial_1436_2199" cx="0" cy="0" r="1" gradientUnits="userSpaceOnUse" gradientTransform="translate(228.7 254.644) rotate(90) scale(234.961 233.923)">
<stop offset="0.692708" stop-color="white" stop-opacity="0"/>
<stop offset="0.890625" stop-color="white" stop-opacity="0.68"/>
<stop offset="1" stop-color="#FBFBFB"/>
</radialGradient>
</defs>
</svg>
