<svg width="492" height="372" viewBox="0 0 492 372" fill="none" xmlns="http://www.w3.org/2000/svg">
<g opacity="0.5">
<mask id="mask0_1436_1998" style="mask-type:alpha" maskUnits="userSpaceOnUse" x="0" y="0" width="492" height="372">
<rect width="492" height="372" fill="url(#paint0_linear_1436_1998)"/>
</mask>
<g mask="url(#mask0_1436_1998)">
<circle opacity="0.9" cx="247.179" cy="250.856" r="137.855" fill="url(#paint1_radial_1436_1998)"/>
<mask id="path-3-inside-1_1436_1998" fill="white">
<path fill-rule="evenodd" clip-rule="evenodd" d="M283.982 317.085C173.496 380.874 67.0403 403.331 46.2061 367.245C32.6096 343.695 58.8385 301.032 109.411 256.503C109.627 261.891 110.162 267.286 111.021 272.66C77.6272 303.251 60.6324 330.136 68.9033 344.461C83.6502 370.004 173.133 345.949 268.768 290.734C364.404 235.519 429.977 170.052 415.23 144.51C407.129 130.48 376.48 131.414 334.648 144.257C330.436 140.802 326.042 137.618 321.493 134.713C384.056 114.045 432.905 113.027 446.31 136.245C467.144 172.331 394.467 253.296 283.982 317.085Z"/>
</mask>
<path fill-rule="evenodd" clip-rule="evenodd" d="M283.982 317.085C173.496 380.874 67.0403 403.331 46.2061 367.245C32.6096 343.695 58.8385 301.032 109.411 256.503C109.627 261.891 110.162 267.286 111.021 272.66C77.6272 303.251 60.6324 330.136 68.9033 344.461C83.6502 370.004 173.133 345.949 268.768 290.734C364.404 235.519 429.977 170.052 415.23 144.51C407.129 130.48 376.48 131.414 334.648 144.257C330.436 140.802 326.042 137.618 321.493 134.713C384.056 114.045 432.905 113.027 446.31 136.245C467.144 172.331 394.467 253.296 283.982 317.085Z" fill="url(#paint2_linear_1436_1998)"/>
<path d="M109.411 256.503L110.41 256.463L110.326 254.365L108.75 255.752L109.411 256.503ZM111.021 272.66L111.697 273.397L112.094 273.034L112.009 272.502L111.021 272.66ZM334.648 144.257L334.014 145.03L334.429 145.37L334.941 145.213L334.648 144.257ZM321.493 134.713L321.18 133.763L319.182 134.423L320.955 135.555L321.493 134.713ZM45.34 367.745C50.7719 377.153 61.7013 382.601 76.4774 384.593C91.2705 386.586 110.108 385.147 131.681 380.596C174.839 371.492 229.173 349.883 284.482 317.951L283.482 316.219C228.305 348.075 174.169 369.589 131.268 378.64C109.812 383.166 91.2241 384.562 76.7445 382.611C62.2478 380.657 52.0574 375.38 47.0721 366.745L45.34 367.745ZM108.75 255.752C83.421 278.055 64.135 299.934 52.8812 319.238C41.6654 338.476 38.2548 355.473 45.34 367.745L47.0721 366.745C40.5609 355.467 43.4665 339.358 54.6091 320.245C65.7138 301.197 84.8286 279.48 110.072 257.253L108.75 255.752ZM112.009 272.502C111.155 267.167 110.625 261.812 110.41 256.463L108.412 256.543C108.63 261.97 109.168 267.405 110.034 272.818L112.009 272.502ZM110.346 271.923C93.6151 287.249 80.9396 301.693 73.48 314.146C66.0682 326.52 63.6033 337.281 68.0373 344.961L69.7694 343.961C65.9324 337.315 67.8295 327.472 75.1958 315.174C82.5144 302.956 95.0332 288.662 111.697 273.397L110.346 271.923ZM68.0373 344.961C71.9938 351.814 80.8235 355.128 92.8652 355.606C104.966 356.086 120.632 353.721 138.762 348.847C175.036 339.096 221.397 319.238 269.268 291.6L268.268 289.868C220.503 317.445 174.305 337.222 138.243 346.916C120.204 351.765 104.758 354.076 92.9444 353.607C81.0719 353.137 73.1863 349.879 69.7694 343.961L68.0373 344.961ZM269.268 291.6C317.139 263.962 357.517 233.741 384.099 207.202C397.384 193.938 407.266 181.553 412.9 170.834C418.508 160.166 420.052 150.863 416.096 144.01L414.364 145.01C417.781 150.928 416.659 159.386 411.13 169.903C405.629 180.368 395.904 192.59 382.686 205.787C356.259 232.171 316.033 262.291 268.268 289.868L269.268 291.6ZM416.096 144.01C411.752 136.487 401.538 133.22 387.582 133.306C373.54 133.392 355.314 136.866 334.354 143.301L334.941 145.213C355.814 138.804 373.829 135.39 387.594 135.306C401.446 135.221 410.607 138.502 414.364 145.01L416.096 144.01ZM320.955 135.555C325.47 138.439 329.832 141.6 334.014 145.03L335.282 143.483C331.039 140.003 326.613 136.796 322.032 133.87L320.955 135.555ZM447.176 135.745C440.19 123.645 424.124 118.086 402.339 118.022C380.482 117.957 352.515 123.411 321.18 133.763L321.807 135.662C353.034 125.346 380.773 119.958 402.333 120.022C423.963 120.086 439.025 125.627 445.444 136.745L447.176 135.745ZM284.482 317.951C339.79 286.018 385.672 249.768 415.135 216.944C429.863 200.537 440.528 184.943 446.198 171.135C451.861 157.343 452.608 145.153 447.176 135.745L445.444 136.745C450.429 145.38 449.904 156.844 444.348 170.375C438.798 183.89 428.294 199.29 413.647 215.608C384.359 248.236 338.659 284.362 283.482 316.219L284.482 317.951Z" fill="url(#paint3_linear_1436_1998)" mask="url(#path-3-inside-1_1436_1998)"/>
<mask id="path-5-inside-2_1436_1998" fill="white">
<path fill-rule="evenodd" clip-rule="evenodd" d="M286.626 184.492C397.112 248.281 469.788 329.246 448.954 365.332C435.358 388.882 385.296 387.498 321.446 365.966C326.004 363.085 330.409 359.925 334.633 356.493C377.823 370.118 409.603 371.394 417.874 357.068C432.621 331.525 367.048 266.059 271.412 210.843C175.777 155.628 86.2946 131.574 71.5477 157.116C63.4474 171.146 79.581 197.222 111.619 227.028C110.733 232.404 110.173 237.801 109.931 243.192C60.7513 199.346 35.4456 157.55 48.8504 134.332C69.6847 98.2459 176.14 120.703 286.626 184.492Z"/>
</mask>
<path fill-rule="evenodd" clip-rule="evenodd" d="M286.626 184.492C397.112 248.281 469.788 329.246 448.954 365.332C435.358 388.882 385.296 387.498 321.446 365.966C326.004 363.085 330.409 359.925 334.633 356.493C377.823 370.118 409.603 371.394 417.874 357.068C432.621 331.525 367.048 266.059 271.412 210.843C175.777 155.628 86.2946 131.574 71.5477 157.116C63.4474 171.146 79.581 197.222 111.619 227.028C110.733 232.404 110.173 237.801 109.931 243.192C60.7513 199.346 35.4456 157.55 48.8504 134.332C69.6847 98.2459 176.14 120.703 286.626 184.492Z" fill="url(#paint4_linear_1436_1998)"/>
<path d="M321.446 365.966L320.911 365.121L319.137 366.242L321.126 366.913L321.446 365.966ZM334.633 356.493L334.934 355.54L334.42 355.378L334.002 355.717L334.633 356.493ZM111.619 227.028L112.606 227.191L112.693 226.662L112.3 226.296L111.619 227.028ZM109.931 243.192L109.266 243.939L110.836 245.339L110.93 243.237L109.931 243.192ZM449.82 365.832C455.252 356.424 454.505 344.234 448.842 330.442C443.172 316.634 432.507 301.04 417.779 284.633C388.316 251.809 342.435 215.559 287.126 183.626L286.126 185.358C341.303 217.215 387.003 253.341 416.291 285.969C430.939 302.287 441.442 317.687 446.992 331.202C452.548 344.734 453.073 356.197 448.088 364.832L449.82 365.832ZM321.126 366.913C353.105 377.698 381.697 383.46 404.041 383.555C426.31 383.649 442.735 378.104 449.82 365.832L448.088 364.832C441.577 376.11 426.173 381.648 404.049 381.555C382.001 381.462 353.636 375.766 321.765 365.018L321.126 366.913ZM334.002 355.717C329.809 359.123 325.436 362.26 320.911 365.121L321.98 366.811C326.571 363.909 331.008 360.726 335.263 357.269L334.002 355.717ZM334.332 357.447C355.97 364.273 374.817 368.028 389.332 368.262C403.754 368.494 414.306 365.248 418.74 357.568L417.008 356.568C413.171 363.214 403.697 366.493 389.364 366.262C375.124 366.033 356.485 362.338 334.934 355.54L334.332 357.447ZM418.74 357.568C422.697 350.715 421.152 341.411 415.545 330.744C409.91 320.025 400.029 307.639 386.743 294.375C360.161 267.836 319.783 237.616 271.912 209.977L270.912 211.71C318.677 239.286 358.903 269.407 385.33 295.791C398.549 308.988 408.273 321.209 413.774 331.675C419.303 342.192 420.425 350.65 417.008 356.568L418.74 357.568ZM271.912 209.977C224.042 182.339 177.681 162.481 141.407 152.73C123.277 147.856 107.61 145.492 95.5096 145.972C83.4679 146.449 74.6382 149.763 70.6817 156.616L72.4137 157.616C75.8306 151.698 83.7163 148.441 95.5888 147.97C107.403 147.502 122.849 149.812 140.887 154.662C176.95 164.356 223.148 184.133 270.912 211.71L271.912 209.977ZM70.6817 156.616C66.3383 164.139 68.6165 174.618 75.6686 186.662C82.7641 198.779 94.8854 212.826 110.938 227.761L112.3 226.296C96.3148 211.424 84.3502 197.53 77.3945 185.651C70.3952 173.698 68.6568 164.123 72.4137 157.616L70.6817 156.616ZM110.93 243.237C111.17 237.885 111.726 232.527 112.606 227.191L110.633 226.866C109.74 232.28 109.176 237.717 108.932 243.148L110.93 243.237ZM47.9844 133.832C40.9986 145.932 44.2172 162.625 55.0541 181.524C65.9263 200.485 84.6332 221.978 109.266 243.939L110.597 242.446C86.0495 220.561 67.5136 199.232 56.7891 180.529C46.0293 161.764 43.2975 145.95 49.7165 134.832L47.9844 133.832ZM287.126 183.626C231.818 151.694 177.483 130.085 134.325 120.981C112.752 116.43 93.9149 114.991 79.1217 116.984C64.3457 118.976 53.4163 124.424 47.9844 133.832L49.7165 134.832C54.7017 126.197 64.8921 120.92 79.3889 118.966C93.8685 117.015 112.457 118.411 133.913 122.938C176.813 131.988 230.949 153.502 286.126 185.358L287.126 183.626Z" fill="url(#paint5_linear_1436_1998)" mask="url(#path-5-inside-2_1436_1998)"/>
<mask id="path-7-inside-3_1436_1998" fill="white">
<path fill-rule="evenodd" clip-rule="evenodd" d="M322.828 252.163C322.828 379.741 289.049 483.163 247.38 483.163C220.187 483.163 196.354 439.117 183.077 373.055C187.851 375.562 192.791 377.797 197.874 379.739C207.67 423.955 222.455 452.115 238.997 452.115C268.491 452.115 292.4 362.594 292.4 252.163C292.4 141.733 268.491 52.2117 238.997 52.2117C222.796 52.2117 208.281 79.222 198.487 121.871C193.389 123.792 188.435 126.005 183.645 128.492C197.027 63.977 220.57 21.1634 247.38 21.1634C289.049 21.1634 322.828 124.586 322.828 252.163Z"/>
</mask>
<path fill-rule="evenodd" clip-rule="evenodd" d="M322.828 252.163C322.828 379.741 289.049 483.163 247.38 483.163C220.187 483.163 196.354 439.117 183.077 373.055C187.851 375.562 192.791 377.797 197.874 379.739C207.67 423.955 222.455 452.115 238.997 452.115C268.491 452.115 292.4 362.594 292.4 252.163C292.4 141.733 268.491 52.2117 238.997 52.2117C222.796 52.2117 208.281 79.222 198.487 121.871C193.389 123.792 188.435 126.005 183.645 128.492C197.027 63.977 220.57 21.1634 247.38 21.1634C289.049 21.1634 322.828 124.586 322.828 252.163Z" fill="url(#paint6_linear_1436_1998)"/>
<path d="M183.077 373.055L183.542 372.17L181.683 371.194L182.097 373.252L183.077 373.055ZM197.874 379.739L198.851 379.523L198.734 378.997L198.231 378.805L197.874 379.739ZM198.487 121.871L198.839 122.807L199.342 122.618L199.462 122.095L198.487 121.871ZM183.645 128.492L182.666 128.288L182.238 130.348L184.105 129.379L183.645 128.492ZM247.38 484.163C258.244 484.163 268.427 477.422 277.539 465.621C286.662 453.807 294.835 436.774 301.68 415.816C315.374 373.888 323.828 316.028 323.828 252.163L321.828 252.163C321.828 315.876 313.392 373.517 299.779 415.195C292.971 436.039 284.886 452.835 275.956 464.399C267.016 475.977 257.351 482.163 247.38 482.163L247.38 484.163ZM182.097 373.252C188.747 406.339 198.052 433.981 209.142 453.379C220.195 472.711 233.21 484.163 247.38 484.163L247.38 482.163C234.358 482.163 221.859 471.592 210.878 452.386C199.935 433.245 190.685 405.833 184.057 372.858L182.097 373.252ZM198.231 378.805C193.185 376.877 188.281 374.658 183.542 372.17L182.612 373.941C187.421 376.465 192.396 378.717 197.517 380.673L198.231 378.805ZM196.898 379.956C201.806 402.108 207.977 420.307 215.032 432.994C222.042 445.6 230.129 453.115 238.997 453.115L238.997 451.115C231.323 451.115 223.747 444.55 216.78 432.022C209.858 419.575 203.739 401.586 198.851 379.523L196.898 379.956ZM238.997 453.115C246.91 453.115 254.195 447.125 260.63 436.936C267.095 426.696 272.881 411.946 277.725 393.809C287.417 357.518 293.4 307.44 293.4 252.163L291.4 252.163C291.4 307.317 285.428 357.214 275.793 393.292C270.973 411.339 265.251 425.871 258.938 435.868C252.595 445.914 245.831 451.115 238.997 451.115L238.997 453.115ZM293.4 252.163C293.4 196.887 287.417 146.808 277.725 110.518C272.881 92.3804 267.095 77.6303 260.63 67.391C254.195 57.2013 246.91 51.2117 238.997 51.2117L238.997 53.2117C245.831 53.2117 252.595 58.4123 258.938 68.4588C265.251 78.4557 270.973 92.9878 275.793 111.034C285.428 147.112 291.4 197.009 291.4 252.163L293.4 252.163ZM238.997 51.2117C230.31 51.2117 222.374 58.4242 215.47 70.5533C208.524 82.7572 202.419 100.278 197.512 121.648L199.462 122.095C204.348 100.815 210.399 83.5063 217.209 71.5427C224.061 59.5044 231.483 53.2117 238.997 53.2117L238.997 51.2117ZM184.105 129.379C188.86 126.911 193.779 124.713 198.839 122.807L198.134 120.935C192.999 122.87 188.009 125.099 183.184 127.604L184.105 129.379ZM247.38 20.1634C233.408 20.1634 220.561 31.2973 209.613 50.132C198.628 69.0281 189.368 95.9752 182.666 128.288L184.624 128.695C191.303 96.4934 200.506 69.7765 211.342 51.1371C222.213 32.4364 234.542 22.1634 247.38 22.1634L247.38 20.1634ZM323.828 252.163C323.828 188.299 315.374 130.439 301.68 88.5113C294.835 67.5529 286.662 50.5198 277.539 38.7054C268.427 26.9046 258.244 20.1634 247.38 20.1634L247.38 22.1634C257.351 22.1634 267.016 28.3501 275.956 39.9278C284.886 51.4918 292.971 68.2879 299.779 89.1322C313.392 130.81 321.828 188.45 321.828 252.163L323.828 252.163Z" fill="url(#paint7_linear_1436_1998)" mask="url(#path-7-inside-3_1436_1998)"/>
</g>
</g>
<defs>
<linearGradient id="paint0_linear_1436_1998" x1="246" y1="0" x2="246" y2="372" gradientUnits="userSpaceOnUse">
<stop offset="0.566992" stop-color="#D9D9D9"/>
<stop offset="0.896028" stop-color="#D9D9D9" stop-opacity="0"/>
</linearGradient>
<radialGradient id="paint1_radial_1436_1998" cx="0" cy="0" r="1" gradientUnits="userSpaceOnUse" gradientTransform="translate(247.179 247.761) rotate(90) scale(140.95)">
<stop offset="0.692708" stop-color="white" stop-opacity="0.4"/>
<stop offset="0.890625" stop-color="white" stop-opacity="0.68"/>
<stop offset="1" stop-color="#FBFBFB"/>
</radialGradient>
<linearGradient id="paint2_linear_1436_1998" x1="449.096" y1="141.071" x2="48.9921" y2="372.071" gradientUnits="userSpaceOnUse">
<stop stop-color="#D9D9D9" stop-opacity="0.35"/>
<stop offset="0.231003" stop-color="#D9D9D9"/>
<stop offset="0.798406" stop-color="#D9D9D9"/>
<stop offset="1" stop-color="#D9D9D9" stop-opacity="0"/>
</linearGradient>
<linearGradient id="paint3_linear_1436_1998" x1="449.096" y1="141.071" x2="48.9921" y2="372.071" gradientUnits="userSpaceOnUse">
<stop stop-color="white"/>
<stop offset="0.252422" stop-color="white" stop-opacity="0"/>
<stop offset="1" stop-color="white" stop-opacity="0"/>
</linearGradient>
<linearGradient id="paint4_linear_1436_1998" x1="51.6364" y1="129.506" x2="451.74" y2="360.506" gradientUnits="userSpaceOnUse">
<stop stop-color="#D9D9D9" stop-opacity="0.35"/>
<stop offset="0.231003" stop-color="#D9D9D9"/>
<stop offset="0.798406" stop-color="#D9D9D9"/>
<stop offset="1" stop-color="#D9D9D9" stop-opacity="0.35"/>
</linearGradient>
<linearGradient id="paint5_linear_1436_1998" x1="51.6364" y1="129.506" x2="451.74" y2="360.506" gradientUnits="userSpaceOnUse">
<stop stop-color="white"/>
<stop offset="0.751396" stop-color="white" stop-opacity="0"/>
<stop offset="1" stop-color="white"/>
</linearGradient>
<linearGradient id="paint6_linear_1436_1998" x1="252.953" y1="21.1635" x2="252.952" y2="483.164" gradientUnits="userSpaceOnUse">
<stop stop-color="#D9D9D9" stop-opacity="0.35"/>
<stop offset="0.231003" stop-color="#D9D9D9"/>
<stop offset="0.798406" stop-color="#D9D9D9"/>
<stop offset="1" stop-color="#D9D9D9" stop-opacity="0.35"/>
</linearGradient>
<linearGradient id="paint7_linear_1436_1998" x1="252.953" y1="21.1635" x2="252.952" y2="483.164" gradientUnits="userSpaceOnUse">
<stop stop-color="white"/>
<stop offset="0.390832" stop-color="white" stop-opacity="0"/>
<stop offset="0.690103" stop-color="white" stop-opacity="0"/>
<stop offset="1" stop-color="white"/>
</linearGradient>
</defs>
</svg>
