<svg width="519" height="350" viewBox="0 0 519 350" fill="none" xmlns="http://www.w3.org/2000/svg">
<mask id="mask0_1445_2316" style="mask-type:alpha" maskUnits="userSpaceOnUse" x="0" y="0" width="519" height="350">
<rect width="519" height="350" fill="url(#paint0_linear_1445_2316)"/>
</mask>
<g mask="url(#mask0_1445_2316)">
<g opacity="0.8">
<rect x="207" y="2" width="99" height="105" fill="url(#paint1_linear_1445_2316)"/>
<rect x="207.5" y="2.5" width="98" height="104" stroke="url(#paint2_linear_1445_2316)" stroke-opacity="0.5"/>
<rect x="306" y="397" width="99" height="105" transform="rotate(-180 306 397)" fill="url(#paint3_linear_1445_2316)"/>
<rect x="305.5" y="396.5" width="98" height="104" transform="rotate(-180 305.5 396.5)" stroke="url(#paint4_linear_1445_2316)" stroke-opacity="0.5"/>
<path d="M358.323 106.677C414.559 162.912 414.559 254.088 358.323 310.323C302.088 366.559 210.912 366.559 154.676 310.323C98.441 254.088 98.441 162.912 154.676 106.677C210.912 50.4411 302.088 50.4411 358.323 106.677Z" fill="url(#paint5_angular_1445_2316)" stroke="url(#paint6_linear_1445_2316)"/>
<path fill-rule="evenodd" clip-rule="evenodd" d="M327.943 279.791L329.455 278.278L263.16 211.983C265.227 209.082 264.959 205.028 262.356 202.426C259.753 199.823 255.7 199.555 252.799 201.622L244.58 193.403L243.067 194.916L251.252 203.1C248.964 206.015 249.164 210.246 251.85 212.932C254.536 215.618 258.767 215.817 261.682 213.53L327.943 279.791Z" fill="#D9D9D9"/>
<g opacity="0.3">
<mask id="mask1_1445_2316" style="mask-type:alpha" maskUnits="userSpaceOnUse" x="126" y="75" width="259" height="259">
<path fill-rule="evenodd" clip-rule="evenodd" d="M255.5 334C327.021 334 385 276.021 385 204.5C385 132.979 327.021 75 255.5 75C183.979 75 126 132.979 126 204.5C126 276.021 183.979 334 255.5 334ZM255.5 317.845C318.099 317.845 368.845 267.099 368.845 204.5C368.845 141.901 318.099 91.1549 255.5 91.1549C192.901 91.1549 142.155 141.901 142.155 204.5C142.155 267.099 192.901 317.845 255.5 317.845Z" fill="#D9D9D9"/>
</mask>
<g mask="url(#mask1_1445_2316)">
<line x1="256.739" y1="85.9437" x2="256.739" y2="319.409" stroke="white" stroke-width="3"/>
<line x1="173.962" y1="119.277" x2="339.047" y2="284.362" stroke="white" stroke-width="3"/>
<line x1="148.473" y1="155.436" x2="363.379" y2="246.658" stroke="white" stroke-width="3"/>
<line x1="138.507" y1="201.176" x2="371.972" y2="201.176" stroke="white" stroke-width="3"/>
<line x1="210.761" y1="94.7379" x2="301.983" y2="309.643" stroke="white" stroke-width="3"/>
<line x1="339.159" y1="121.399" x2="174.075" y2="286.483" stroke="white" stroke-width="3"/>
<line x1="301.958" y1="95.9101" x2="210.736" y2="310.816" stroke="white" stroke-width="3"/>
<line x1="363.178" y1="158.198" x2="148.272" y2="249.42" stroke="white" stroke-width="3"/>
</g>
</g>
</g>
</g>
<defs>
<linearGradient id="paint0_linear_1445_2316" x1="259.5" y1="0" x2="260.233" y2="361.505" gradientUnits="userSpaceOnUse">
<stop stop-color="white"/>
<stop offset="0.924363" stop-color="#DFDFDF" stop-opacity="0"/>
<stop offset="1" stop-color="#D9D9D9" stop-opacity="0"/>
</linearGradient>
<linearGradient id="paint1_linear_1445_2316" x1="256.5" y1="2" x2="257" y2="242.5" gradientUnits="userSpaceOnUse">
<stop/>
<stop offset="1" stop-color="white"/>
</linearGradient>
<linearGradient id="paint2_linear_1445_2316" x1="256.5" y1="2" x2="256.5" y2="107" gradientUnits="userSpaceOnUse">
<stop stop-color="white" stop-opacity="0"/>
<stop offset="1" stop-color="white"/>
</linearGradient>
<linearGradient id="paint3_linear_1445_2316" x1="355.5" y1="397" x2="356" y2="637.5" gradientUnits="userSpaceOnUse">
<stop/>
<stop offset="1" stop-color="white"/>
</linearGradient>
<linearGradient id="paint4_linear_1445_2316" x1="355.5" y1="397" x2="355.5" y2="502" gradientUnits="userSpaceOnUse">
<stop stop-color="white" stop-opacity="0"/>
<stop offset="1" stop-color="white"/>
</linearGradient>
<radialGradient id="paint5_angular_1445_2316" cx="0" cy="0" r="1" gradientUnits="userSpaceOnUse" gradientTransform="translate(256.5 208.5) rotate(45) scale(144.5 144.5)">
<stop stop-color="#D9D9D9"/>
<stop offset="1"/>
</radialGradient>
<linearGradient id="paint6_linear_1445_2316" x1="154.323" y1="106.323" x2="358.677" y2="310.677" gradientUnits="userSpaceOnUse">
<stop stop-color="white"/>
<stop offset="0.392497" stop-color="white" stop-opacity="0"/>
</linearGradient>
</defs>
</svg>
