<svg width="409" height="388" viewBox="0 0 409 388" fill="none" xmlns="http://www.w3.org/2000/svg">
<g filter="url(#filter0_b_1313_1725)">
<rect x="212" width="91.9999" height="91.9999" rx="15" fill="url(#paint0_linear_1313_1725)"/>
<rect x="212.5" y="0.5" width="90.9999" height="90.9999" rx="14.5" stroke="url(#paint1_linear_1313_1725)"/>
</g>
<g clip-path="url(#clip0_1313_1725)">
<path d="M258 74C273.464 74 286 61.464 286 46C286 30.536 273.464 18 258 18C242.536 18 230 30.536 230 46C230 61.464 242.536 74 258 74Z" fill="white"/>
<path d="M266.225 42.6749L263.687 50.6724C263.687 50.0599 261.937 36.7949 261.937 36.7949C257.912 36.7949 255.777 39.6474 254.657 42.6749L251.56 50.6899C251.56 50.1124 251.122 42.7449 251.122 42.7449C250.973 41.15 250.243 39.6653 249.073 38.5719C247.902 37.4786 246.371 36.8526 244.77 36.8124L248.06 56.9024C252.26 56.9024 254.535 54.0499 255.707 51.0224L258.332 44.1974C258.332 44.4774 260.082 56.9024 260.082 56.9024C261.799 56.9002 263.472 56.3512 264.856 55.3349C266.24 54.3185 267.265 52.8878 267.782 51.2499L273.732 36.7949C269.532 36.7949 267.327 39.6474 266.207 42.6749H266.225Z" fill="black"/>
</g>
<g filter="url(#filter1_b_1313_1725)">
<rect x="212" y="112" width="197" height="276" rx="15" fill="#222222"/>
</g>
<g filter="url(#filter2_b_1313_1725)">
<rect y="112" width="197" height="160" rx="15" fill="#222222"/>
</g>
<g filter="url(#filter3_b_1313_1725)">
<path d="M212 126C212 118.268 218.268 112 226 112H395C402.732 112 409 118.268 409 126V162H212V126Z" fill="#373737"/>
</g>
<g filter="url(#filter4_b_1313_1725)">
<rect y="295" width="91.9999" height="91.9999" rx="15" fill="url(#paint2_linear_1313_1725)"/>
<rect x="0.5" y="295.5" width="90.9999" height="90.9999" rx="14.5" stroke="url(#paint3_linear_1313_1725)"/>
</g>
<g filter="url(#filter5_b_1313_1725)">
<rect x="106" y="296" width="91.9999" height="91.9999" rx="15" fill="url(#paint4_linear_1313_1725)"/>
<rect x="106.5" y="296.5" width="90.9999" height="90.9999" rx="14.5" stroke="url(#paint5_linear_1313_1725)"/>
</g>
<g filter="url(#filter6_b_1313_1725)">
<rect x="317" width="91.9999" height="91.9999" rx="15" fill="url(#paint6_linear_1313_1725)"/>
<rect x="317.5" y="0.5" width="90.9999" height="90.9999" rx="14.5" stroke="url(#paint7_linear_1313_1725)"/>
</g>
<rect x="239.5" y="191.5" width="143" height="170" stroke="#25ADF9" stroke-dasharray="2 2"/>
<path d="M296.792 232.328L296.232 231C295.816 231.08 295.384 231.128 294.92 231.128C291.752 231.128 289.736 228.92 289.736 225.384C289.736 221.848 291.752 219.624 294.92 219.624C298.088 219.624 300.072 221.848 300.104 225.384C300.12 227.832 299.176 229.64 297.528 230.52L298.072 231.848L296.792 232.328ZM294.92 229.944C297.256 229.944 298.712 228.184 298.712 225.384C298.712 222.568 297.256 220.792 294.92 220.792C292.6 220.792 291.128 222.568 291.128 225.384C291.128 228.184 292.6 229.944 294.92 229.944ZM304.476 231.128C302.572 231.128 301.644 230.04 301.644 227.688V223H302.972V227.816C302.972 229.288 303.5 229.992 304.62 229.992C306.348 229.992 307.372 228.456 307.372 225.88V223H308.7V231H307.788L307.628 229.224H307.372C306.78 230.504 305.836 231.128 304.476 231.128ZM316.264 231L316.104 229.448H315.944C315.432 230.424 314.456 231.128 312.936 231.128C311.336 231.128 310.264 230.216 310.264 228.632C310.264 226.984 311.72 225.992 314.168 225.992H315.912C315.912 224.744 315.128 224.008 313.88 224.008C312.648 224.008 311.928 224.664 311.88 225.752H310.52C310.696 223.912 311.912 222.84 313.88 222.84C315.944 222.84 317.224 224.008 317.224 225.944V231H316.264ZM311.64 228.632C311.64 229.448 312.264 229.912 313.288 229.912C315.032 229.912 315.912 229.048 315.912 227.32V227.08H314.232C312.616 227.08 311.64 227.672 311.64 228.632ZM320.959 231C319.695 231 318.991 230.28 318.991 228.984V219.48H320.319V228.824C320.319 229.416 320.639 229.752 321.199 229.752H321.823V231H320.959ZM323.481 231V223H324.809V231H323.481ZM324.153 221.272C323.609 221.272 323.273 220.92 323.273 220.376C323.273 219.848 323.609 219.496 324.153 219.496C324.681 219.496 325.033 219.848 325.033 220.376C325.033 220.92 324.681 221.272 324.153 221.272ZM329.856 231C328.576 231 327.856 230.264 327.856 228.968V224.248H326.48V223H327.136C327.6 223 327.856 222.728 327.856 222.28V220.92H329.184V223H331.136V224.248H329.184V228.808C329.184 229.4 329.504 229.752 330.096 229.752H331.136V231H329.856ZM333.093 233.8V232.552H333.621C334.421 232.552 334.885 232.28 335.109 231.576L335.349 230.904L332.165 223H333.669L335.765 228.6L335.957 229.512H336.133L336.309 228.6L338.421 223H339.925L336.165 232.2C335.701 233.32 334.981 233.8 333.669 233.8H333.093ZM294.904 266.128C291.64 266.128 289.704 263.984 289.736 260.384C289.704 256.784 291.64 254.624 294.904 254.624C297.496 254.624 299.32 256.208 299.768 258.832L298.36 258.912C298.072 256.96 296.776 255.792 294.904 255.792C292.552 255.792 291.128 257.52 291.128 260.384C291.128 263.232 292.552 264.944 294.904 264.944C296.6 264.944 297.912 263.888 298.392 262.112L299.784 262.24C299.208 264.672 297.384 266.128 294.904 266.128ZM301.491 266V258H302.819L302.803 258.816L302.659 259.792L302.819 259.856L303.299 258.976C303.811 258.32 304.803 257.824 305.859 257.824V259.072C304.099 259.072 302.963 259.952 302.819 261.136V266H301.491ZM310.357 266.128C307.909 266.128 306.421 264.64 306.421 261.968C306.421 259.376 307.973 257.808 310.325 257.808C312.661 257.808 314.101 259.456 314.101 261.968C314.101 262.144 314.101 262.368 314.085 262.512H307.781C307.924 264.08 308.901 264.976 310.357 264.976C311.461 264.976 312.181 264.464 312.597 263.552L313.941 263.808C313.349 265.264 312.037 266.128 310.357 266.128ZM307.797 261.488H312.757C312.645 259.936 311.733 258.944 310.325 258.944C308.901 258.944 307.973 259.904 307.797 261.488ZM321.311 266L321.151 264.448H320.991C320.479 265.424 319.503 266.128 317.983 266.128C316.383 266.128 315.311 265.216 315.311 263.632C315.311 261.984 316.767 260.992 319.215 260.992H320.959C320.959 259.744 320.175 259.008 318.927 259.008C317.695 259.008 316.975 259.664 316.927 260.752H315.567C315.743 258.912 316.959 257.84 318.927 257.84C320.991 257.84 322.271 259.008 322.271 260.944V266H321.311ZM316.687 263.632C316.687 264.448 317.311 264.912 318.335 264.912C320.079 264.912 320.959 264.048 320.959 262.32V262.08H319.279C317.663 262.08 316.687 262.672 316.687 263.632ZM326.778 266C325.498 266 324.778 265.264 324.778 263.968V259.248H323.402V258H324.058C324.522 258 324.778 257.728 324.778 257.28V255.92H326.106V258H328.058V259.248H326.106V263.808C326.106 264.4 326.426 264.752 327.018 264.752H328.058V266H326.778ZM329.887 266V258H331.215V266H329.887ZM330.559 256.272C330.015 256.272 329.679 255.92 329.679 255.376C329.679 254.848 330.015 254.496 330.559 254.496C331.087 254.496 331.439 254.848 331.439 255.376C331.439 255.92 331.087 256.272 330.559 256.272ZM335.627 266L332.587 258H334.043L336.123 263.68L336.315 264.592H336.491L336.683 263.68L338.763 258H340.219L337.179 266H335.627ZM341.59 266V258H342.918V266H341.59ZM342.262 256.272C341.718 256.272 341.382 255.92 341.382 255.376C341.382 254.848 341.718 254.496 342.262 254.496C342.79 254.496 343.142 254.848 343.142 255.376C343.142 255.92 342.79 256.272 342.262 256.272ZM347.965 266C346.685 266 345.965 265.264 345.965 263.968V259.248H344.589V258H345.245C345.709 258 345.965 257.728 345.965 257.28V255.92H347.293V258H349.245V259.248H347.293V263.808C347.293 264.4 347.613 264.752 348.205 264.752H349.245V266H347.965ZM351.203 268.8V267.552H351.731C352.531 267.552 352.995 267.28 353.219 266.576L353.459 265.904L350.275 258H351.779L353.875 263.6L354.067 264.512H354.243L354.419 263.6L356.531 258H358.035L354.275 267.2C353.811 268.32 353.091 268.8 351.779 268.8H351.203ZM290.2 301V289.8H293.64C296.312 289.8 297.832 291.016 297.832 293.192C297.832 294.872 296.952 295.976 295.384 296.392L296.088 298.376C296.472 299.432 297.032 299.832 298.04 299.832H298.28V301.064H298.104C296.264 301.064 295.256 300.28 294.536 298.216L293.96 296.584H293.784H291.576V301H290.2ZM291.576 295.432H293.816C295.496 295.432 296.44 294.632 296.44 293.192C296.44 291.832 295.496 291.064 293.816 291.064H291.576V295.432ZM303.06 301.128C300.612 301.128 299.124 299.64 299.124 296.968C299.124 294.376 300.676 292.808 303.028 292.808C305.364 292.808 306.804 294.456 306.804 296.968C306.804 297.144 306.804 297.368 306.788 297.512H300.484C300.628 299.08 301.604 299.976 303.06 299.976C304.164 299.976 304.884 299.464 305.3 298.552L306.644 298.808C306.052 300.264 304.74 301.128 303.06 301.128ZM300.5 296.488H305.46C305.348 294.936 304.436 293.944 303.028 293.944C301.604 293.944 300.676 294.904 300.5 296.488ZM310.178 301C308.914 301 308.21 300.28 308.21 298.984V289.48H309.538V298.824C309.538 299.416 309.858 299.752 310.418 299.752H311.042V301H310.178ZM312.7 301V293H314.028V301H312.7ZM313.372 291.272C312.828 291.272 312.492 290.92 312.492 290.376C312.492 289.848 312.828 289.496 313.372 289.496C313.9 289.496 314.252 289.848 314.252 290.376C314.252 290.92 313.9 291.272 313.372 291.272ZM321.827 301L321.667 299.448H321.507C320.995 300.424 320.019 301.128 318.499 301.128C316.899 301.128 315.827 300.216 315.827 298.632C315.827 296.984 317.283 295.992 319.731 295.992H321.475C321.475 294.744 320.691 294.008 319.443 294.008C318.211 294.008 317.491 294.664 317.443 295.752H316.083C316.259 293.912 317.475 292.84 319.443 292.84C321.507 292.84 322.787 294.008 322.787 295.944V301H321.827ZM317.203 298.632C317.203 299.448 317.827 299.912 318.851 299.912C320.595 299.912 321.475 299.048 321.475 297.32V297.08H319.795C318.179 297.08 317.203 297.672 317.203 298.632ZM328.57 301.128C327.258 301.128 326.298 300.504 325.754 299.384H325.562L325.466 301H324.554V289.48H325.882L325.866 293.608L325.738 294.488L325.882 294.536L326.298 293.736C326.858 293.128 327.626 292.808 328.57 292.808C330.698 292.808 332.138 294.488 332.122 296.968C332.138 299.448 330.698 301.128 328.57 301.128ZM328.458 299.928C329.834 299.928 330.762 298.744 330.762 296.968C330.762 295.192 329.834 294.024 328.458 294.024C326.906 294.024 325.882 295.192 325.882 296.968C325.882 298.744 326.906 299.928 328.458 299.928ZM333.918 301V293H335.246V301H333.918ZM334.59 291.272C334.046 291.272 333.71 290.92 333.71 290.376C333.71 289.848 334.046 289.496 334.59 289.496C335.118 289.496 335.47 289.848 335.47 290.376C335.47 290.92 335.118 291.272 334.59 291.272ZM339.366 301C338.102 301 337.398 300.28 337.398 298.984V289.48H338.726V298.824C338.726 299.416 339.046 299.752 339.606 299.752H340.23V301H339.366ZM341.887 301V293H343.215V301H341.887ZM342.559 291.272C342.015 291.272 341.679 290.92 341.679 290.376C341.679 289.848 342.015 289.496 342.559 289.496C343.087 289.496 343.439 289.848 343.439 290.376C343.439 290.92 343.087 291.272 342.559 291.272ZM348.262 301C346.982 301 346.262 300.264 346.262 298.968V294.248H344.886V293H345.542C346.006 293 346.262 292.728 346.262 292.28V290.92H347.59V293H349.542V294.248H347.59V298.808C347.59 299.4 347.91 299.752 348.502 299.752H349.542V301H348.262ZM351.5 303.8V302.552H352.028C352.828 302.552 353.292 302.28 353.516 301.576L353.756 300.904L350.572 293H352.076L354.172 298.6L354.364 299.512H354.54L354.716 298.6L356.828 293H358.332L354.572 302.2C354.108 303.32 353.388 303.8 352.076 303.8H351.5ZM289.384 336L293.592 324.8H295.208L299.4 336H297.912L297.064 333.664H291.72L290.872 336H289.384ZM292.104 332.592H296.68L294.68 326.864L294.488 326.08H294.312L294.12 326.864L292.104 332.592ZM300.741 336V328H302.069L302.053 328.768L301.909 329.744L302.053 329.808L302.533 328.928C302.869 328.4 303.589 327.84 304.485 327.84C305.733 327.84 306.613 328.56 306.949 329.824C307.333 328.576 308.261 327.84 309.525 327.84C311.173 327.84 312.133 329.104 312.133 331.168V336H310.821V331.152C310.821 329.872 310.293 329.088 309.205 329.088C308.005 329.088 307.285 329.856 307.125 331.104V331.168V336H305.797V331.152C305.797 329.872 305.253 329.088 304.085 329.088C302.885 329.088 302.165 330 302.069 331.456V336H300.741ZM317.914 336.128C316.602 336.128 315.642 335.504 315.098 334.384H314.906L314.81 336H313.898V324.48H315.226L315.21 328.608L315.082 329.488L315.226 329.536L315.642 328.736C316.202 328.128 316.97 327.808 317.914 327.808C320.042 327.808 321.482 329.488 321.466 331.968C321.482 334.448 320.042 336.128 317.914 336.128ZM317.802 334.928C319.178 334.928 320.106 333.744 320.106 331.968C320.106 330.192 319.178 329.024 317.802 329.024C316.25 329.024 315.226 330.192 315.226 331.968C315.226 333.744 316.25 334.928 317.802 334.928ZM323.262 336V328H324.59V336H323.262ZM323.934 326.272C323.39 326.272 323.054 325.92 323.054 325.376C323.054 324.848 323.39 324.496 323.934 324.496C324.462 324.496 324.814 324.848 324.814 325.376C324.814 325.92 324.462 326.272 323.934 326.272ZM329.637 336C328.357 336 327.637 335.264 327.637 333.968V329.248H326.261V328H326.917C327.381 328 327.637 327.728 327.637 327.28V325.92H328.965V328H330.917V329.248H328.965V333.808C328.965 334.4 329.285 334.752 329.877 334.752H330.917V336H329.637ZM332.747 336V328H334.075V336H332.747ZM333.419 326.272C332.875 326.272 332.539 325.92 332.539 325.376C332.539 324.848 332.875 324.496 333.419 324.496C333.947 324.496 334.299 324.848 334.299 325.376C334.299 325.92 333.947 326.272 333.419 326.272ZM339.698 336.128C337.33 336.128 335.858 334.528 335.874 331.968C335.858 329.408 337.33 327.808 339.698 327.808C342.066 327.808 343.538 329.408 343.522 331.968C343.538 334.528 342.066 336.128 339.698 336.128ZM339.698 334.944C341.234 334.944 342.21 333.792 342.21 331.968C342.21 330.144 341.234 328.976 339.698 328.976C338.162 328.976 337.202 330.144 337.202 331.968C337.202 333.792 338.162 334.944 339.698 334.944ZM350.829 331.184C350.829 329.888 350.253 329.088 348.973 329.088C347.741 329.088 346.589 329.968 346.413 331.232V336H345.085V328H346.413L346.397 328.848L346.253 329.84L346.413 329.888L346.893 329.008C347.341 328.4 348.253 327.84 349.197 327.84C351.005 327.84 352.141 329.136 352.141 331.216V336H350.829V331.184Z" fill="#D7D7D7"/>
<g clip-path="url(#clip1_1313_1725)">
<path d="M273.472 233H266.536C263.824 233 262 231.096 262 228.272V221.736C262 218.904 263.824 217 266.536 217H273.472C276.184 217 278 218.904 278 221.736V228.272C278 231.096 276.184 233 273.472 233ZM267.152 224.296C266.768 224.296 266.448 224.6 266.448 224.992C266.448 225.184 266.52 225.368 266.656 225.496L268.56 227.384C268.832 227.648 269.272 227.648 269.544 227.384L273.344 223.584C273.616 223.304 273.6 222.864 273.32 222.592C273.048 222.328 272.616 222.328 272.352 222.592L269.048 225.896L267.648 224.496C267.52 224.368 267.336 224.288 267.152 224.288V224.296Z" fill="#00E5D1"/>
</g>
<g clip-path="url(#clip2_1313_1725)">
<path d="M273.472 303H266.536C263.824 303 262 301.096 262 298.272V291.736C262 288.904 263.824 287 266.536 287H273.472C276.184 287 278 288.904 278 291.736V298.272C278 301.096 276.184 303 273.472 303ZM267.152 294.296C266.768 294.296 266.448 294.6 266.448 294.992C266.448 295.184 266.52 295.368 266.656 295.496L268.56 297.384C268.832 297.648 269.272 297.648 269.544 297.384L273.344 293.584C273.616 293.304 273.6 292.864 273.32 292.592C273.048 292.328 272.616 292.328 272.352 292.592L269.048 295.896L267.648 294.496C267.52 294.368 267.336 294.288 267.152 294.288V294.296Z" fill="#00E5D1"/>
</g>
<g clip-path="url(#clip3_1313_1725)">
<path d="M273.472 338H266.536C263.824 338 262 336.096 262 333.272V326.736C262 323.904 263.824 322 266.536 322H273.472C276.184 322 278 323.904 278 326.736V333.272C278 336.096 276.184 338 273.472 338ZM267.152 329.296C266.768 329.296 266.448 329.6 266.448 329.992C266.448 330.184 266.52 330.368 266.656 330.496L268.56 332.384C268.832 332.648 269.272 332.648 269.544 332.384L273.344 328.584C273.616 328.304 273.6 327.864 273.32 327.592C273.048 327.328 272.616 327.328 272.352 327.592L269.048 330.896L267.648 329.496C267.52 329.368 267.336 329.288 267.152 329.288V329.296Z" fill="#00E5D1"/>
</g>
<g clip-path="url(#clip4_1313_1725)">
<path d="M273.472 268H266.536C263.824 268 262 266.096 262 263.272V256.736C262 253.904 263.824 252 266.536 252H273.472C276.184 252 278 253.904 278 256.736V263.272C278 266.096 276.184 268 273.472 268ZM267.152 259.296C266.768 259.296 266.448 259.6 266.448 259.992C266.448 260.184 266.52 260.368 266.656 260.496L268.56 262.384C268.832 262.648 269.272 262.648 269.544 262.384L273.344 258.584C273.616 258.304 273.6 257.864 273.32 257.592C273.048 257.328 272.616 257.328 272.352 257.592L269.048 260.896L267.648 259.496C267.52 259.368 267.336 259.288 267.152 259.288V259.296Z" fill="#00E5D1"/>
</g>
<g clip-path="url(#clip5_1313_1725)">
<path d="M230.74 145C230.642 145 230.545 144.981 230.456 144.943C230.18 144.829 230 144.555 230 144.25V133.75C230 133.445 230.18 133.174 230.458 133.057C230.736 132.941 231.051 133.004 231.264 133.22L238.357 140.432C238.568 140.646 238.633 140.968 238.518 141.249C238.403 141.531 238.135 141.713 237.834 141.713H234.273L231.266 144.782C231.126 144.924 230.94 145.002 230.742 145.002L230.74 145ZM230.836 133.985V144.015L233.924 140.864H237.602L230.836 133.985Z" fill="white"/>
<path d="M242.375 140.099L244.113 138.337C244.153 138.297 244.176 138.242 244.176 138.185C244.176 138.127 244.153 138.072 244.113 138.032L243.986 137.903C243.902 137.818 243.767 137.818 243.683 137.903L242.222 139.383L240.762 137.903C240.722 137.863 240.668 137.839 240.611 137.839C240.555 137.839 240.5 137.863 240.461 137.903L240.333 138.032C240.293 138.072 240.271 138.127 240.271 138.185C240.271 138.242 240.293 138.297 240.333 138.337L242.074 140.101C242.114 140.142 242.168 140.165 242.226 140.165C242.285 140.165 242.337 140.142 242.379 140.101L242.375 140.099Z" fill="white"/>
<path d="M263.163 144.479L265.899 141.707C266.024 141.579 266.024 141.372 265.899 141.245L264.488 139.815C264.363 139.688 264.158 139.688 264.033 139.815L263.893 139.957L262.047 136.217C262.012 136.145 261.951 136.09 261.878 136.06L255.434 133.447C255.434 133.447 255.434 133.447 255.431 133.447C255.423 133.443 255.415 133.44 255.406 133.438C255.388 133.432 255.367 133.428 255.348 133.426C255.262 133.415 255.179 133.443 255.114 133.493C255.112 133.493 255.11 133.498 255.108 133.5C255.014 133.578 254.976 133.699 254.997 133.813C254.997 133.822 255.001 133.83 255.003 133.839V133.843C255.007 133.853 255.009 133.864 255.014 133.875L257.592 140.406C257.621 140.48 257.676 140.542 257.747 140.578L261.437 142.448L261.297 142.59C261.235 142.653 261.203 142.738 261.203 142.821C261.203 142.903 261.235 142.988 261.297 143.051L262.708 144.481C262.833 144.608 263.038 144.608 263.163 144.481V144.479ZM258.144 140.046L256.194 135.105L258.953 137.901C258.892 138.028 258.859 138.172 258.859 138.322C258.859 138.862 259.293 139.303 259.826 139.303C260.359 139.303 260.794 138.862 260.794 138.322C260.794 137.782 260.359 137.342 259.826 137.342C259.678 137.342 259.536 137.375 259.41 137.437L256.652 134.641L261.527 136.617L263.414 140.44L261.92 141.954L258.148 140.042L258.144 140.046ZM259.824 137.996C260.002 137.996 260.146 138.142 260.146 138.322C260.146 138.502 260.002 138.648 259.824 138.648C259.646 138.648 259.502 138.502 259.502 138.322C259.502 138.142 259.646 137.996 259.824 137.996ZM261.979 142.818L262.21 142.583L264.024 140.745L264.256 140.51L265.211 141.478L262.931 143.788L261.976 142.821L261.979 142.818Z" fill="white"/>
<path d="M269.623 140.099L271.362 138.337C271.401 138.297 271.424 138.242 271.424 138.185C271.424 138.127 271.401 138.072 271.362 138.032L271.234 137.903C271.15 137.818 271.015 137.818 270.931 137.903L269.47 139.383L268.01 137.903C267.97 137.863 267.916 137.839 267.859 137.839C267.803 137.839 267.748 137.863 267.709 137.903L267.581 138.032C267.542 138.072 267.519 138.127 267.519 138.185C267.519 138.242 267.542 138.297 267.581 138.337L269.322 140.101C269.362 140.142 269.416 140.165 269.475 140.165C269.533 140.165 269.585 140.142 269.627 140.101L269.623 140.099Z" fill="white"/>
<path d="M283.768 134.817H286.518V136.211H287.205V134.12H279.641V136.211H280.328V134.817H283.078V143.181H281.703V143.878H285.143V143.181H283.768V134.817Z" fill="white"/>
<path d="M290.911 140.099L292.65 138.337C292.689 138.297 292.712 138.242 292.712 138.185C292.712 138.127 292.689 138.072 292.65 138.032L292.522 137.903C292.439 137.818 292.303 137.818 292.219 137.903L290.758 139.383L289.298 137.903C289.258 137.863 289.204 137.839 289.147 137.839C289.091 137.839 289.037 137.863 288.997 137.903L288.869 138.032C288.83 138.072 288.807 138.127 288.807 138.185C288.807 138.242 288.83 138.297 288.869 138.337L290.61 140.101C290.65 140.142 290.704 140.165 290.763 140.165C290.821 140.165 290.873 140.142 290.915 140.101L290.911 140.099Z" fill="white"/>
<path d="M310.899 138.187C310.617 137.952 310.216 137.877 309.879 137.996C309.79 138.028 309.706 138.072 309.631 138.127C309.438 138.269 309.014 138.699 308.678 139.123V135.855C308.678 135.577 308.565 135.306 308.369 135.109C308.174 134.914 307.917 134.811 307.648 134.815C307.526 134.817 307.409 134.842 307.301 134.885V134.565C307.301 134.262 307.177 133.968 306.964 133.754C306.753 133.542 306.475 133.428 306.181 133.434C305.595 133.445 305.117 133.925 305.1 134.516C304.973 134.457 304.835 134.425 304.693 134.421C304.396 134.413 304.101 134.529 303.886 134.741C303.675 134.948 303.558 135.224 303.558 135.514V135.823C303.466 135.793 303.368 135.776 303.268 135.776C302.758 135.776 302.342 136.198 302.342 136.715V141.467V141.491C302.384 142.113 302.513 142.649 302.724 143.077C302.923 143.479 303.199 143.803 303.545 144.041C304.229 144.506 305.073 144.566 305.731 144.566C307.025 144.566 308.189 143.913 308.772 142.863C308.843 142.746 309.029 142.45 309.232 142.13C309.428 141.817 309.61 141.529 309.771 141.277C309.858 141.137 309.94 141.01 310.009 140.9C310.27 140.487 310.546 140.086 310.834 139.712C310.941 139.572 310.974 139.534 310.981 139.525C311.114 139.377 311.2 139.195 311.225 139C311.265 138.693 311.146 138.398 310.895 138.191L310.899 138.187ZM310.59 138.909C310.582 138.972 310.554 139.03 310.508 139.08C310.485 139.106 310.444 139.155 310.327 139.309C310.028 139.701 309.739 140.116 309.47 140.546C309.401 140.656 309.319 140.783 309.232 140.923C309.071 141.177 308.887 141.465 308.69 141.781C308.483 142.109 308.293 142.414 308.224 142.528L308.218 142.541C307.75 143.388 306.799 143.916 305.735 143.916C305.167 143.916 304.448 143.869 303.909 143.5C303.359 143.126 303.059 142.456 302.988 141.457V136.717C302.988 136.56 303.113 136.431 303.268 136.431C303.422 136.431 303.55 136.558 303.55 136.717V138.496C303.55 138.496 303.55 138.506 303.55 138.511C303.55 138.517 303.55 138.521 303.55 138.528C303.55 138.532 303.55 138.538 303.552 138.542C303.552 138.549 303.552 138.553 303.554 138.559C303.554 138.564 303.556 138.57 303.558 138.574C303.558 138.581 303.56 138.585 303.562 138.591C303.562 138.595 303.566 138.602 303.568 138.606C303.568 138.61 303.573 138.617 303.575 138.621C303.575 138.625 303.579 138.631 303.581 138.636C303.583 138.64 303.585 138.646 303.587 138.65C303.589 138.655 303.594 138.659 303.596 138.663C303.598 138.667 303.6 138.672 303.604 138.676C303.606 138.68 303.61 138.684 303.612 138.689C303.614 138.693 303.619 138.697 303.621 138.701C303.623 138.706 303.627 138.71 303.631 138.712C303.635 138.716 303.637 138.72 303.642 138.725C303.646 138.729 303.65 138.731 303.652 138.735C303.656 138.739 303.66 138.742 303.665 138.746C303.669 138.75 303.673 138.752 303.677 138.754C303.681 138.758 303.685 138.761 303.69 138.765C303.694 138.767 303.698 138.769 303.702 138.773C303.706 138.775 303.711 138.78 303.717 138.782C303.721 138.784 303.725 138.786 303.729 138.788C303.734 138.79 303.74 138.792 303.744 138.794C303.748 138.794 303.754 138.799 303.759 138.801C303.763 138.801 303.769 138.805 303.773 138.807C303.777 138.807 303.784 138.809 303.788 138.811C303.794 138.811 303.798 138.814 303.803 138.816C303.809 138.816 303.813 138.816 303.819 138.818C303.825 138.818 303.83 138.818 303.836 138.82C303.842 138.82 303.846 138.82 303.853 138.82C303.859 138.82 303.863 138.82 303.869 138.82C303.88 138.82 303.892 138.82 303.903 138.82C303.907 138.82 303.911 138.82 303.917 138.818C303.924 138.818 303.93 138.818 303.936 138.816C303.943 138.816 303.949 138.814 303.955 138.811C303.959 138.811 303.963 138.811 303.968 138.807C303.974 138.805 303.98 138.803 303.986 138.801C303.991 138.801 303.993 138.799 303.997 138.797C304.003 138.794 304.009 138.79 304.016 138.788C304.018 138.788 304.022 138.786 304.024 138.784C304.03 138.78 304.034 138.778 304.041 138.773C304.045 138.773 304.047 138.769 304.051 138.767C304.055 138.763 304.062 138.758 304.066 138.756C304.07 138.754 304.072 138.752 304.076 138.75C304.08 138.746 304.085 138.742 304.089 138.737C304.093 138.735 304.095 138.731 304.099 138.729C304.103 138.725 304.108 138.72 304.11 138.716C304.112 138.712 304.116 138.71 304.118 138.706C304.122 138.701 304.124 138.697 304.129 138.693C304.131 138.689 304.135 138.684 304.137 138.68C304.139 138.676 304.143 138.672 304.145 138.667C304.147 138.663 304.151 138.659 304.154 138.655C304.156 138.65 304.158 138.646 304.16 138.64C304.162 138.636 304.164 138.629 304.166 138.625C304.166 138.621 304.17 138.614 304.172 138.61C304.172 138.606 304.177 138.6 304.179 138.595C304.179 138.591 304.181 138.585 304.183 138.581C304.183 138.574 304.185 138.57 304.187 138.564C304.187 138.559 304.187 138.553 304.189 138.549C304.189 138.542 304.189 138.538 304.191 138.532C304.191 138.528 304.191 138.521 304.191 138.515C304.191 138.509 304.191 138.504 304.191 138.498L304.2 135.518C304.2 135.406 304.246 135.298 304.331 135.213C304.423 135.122 304.546 135.073 304.672 135.078C304.904 135.084 305.094 135.289 305.094 135.535L305.098 138.479C305.098 138.479 305.098 138.492 305.098 138.496C305.098 138.5 305.098 138.506 305.098 138.511C305.098 138.517 305.098 138.523 305.1 138.528C305.1 138.532 305.1 138.538 305.102 138.542C305.102 138.549 305.106 138.555 305.106 138.562C305.106 138.566 305.106 138.57 305.109 138.574C305.111 138.581 305.113 138.587 305.115 138.593C305.115 138.598 305.117 138.6 305.119 138.604C305.121 138.61 305.125 138.619 305.129 138.625C305.129 138.627 305.132 138.629 305.134 138.634C305.138 138.64 305.142 138.646 305.146 138.655C305.146 138.657 305.148 138.659 305.15 138.661C305.155 138.667 305.159 138.674 305.165 138.68C305.165 138.68 305.167 138.684 305.169 138.686C305.175 138.693 305.18 138.699 305.186 138.706C305.186 138.706 305.188 138.708 305.19 138.71C305.196 138.716 305.203 138.722 305.209 138.727C305.209 138.727 305.211 138.729 305.213 138.731C305.219 138.737 305.226 138.742 305.234 138.746C305.234 138.746 305.236 138.748 305.238 138.75C305.244 138.754 305.253 138.758 305.259 138.763C305.259 138.763 305.261 138.763 305.263 138.765C305.272 138.769 305.278 138.773 305.286 138.775C305.286 138.775 305.288 138.775 305.29 138.778C305.299 138.782 305.307 138.784 305.315 138.786C305.315 138.786 305.318 138.786 305.32 138.786C305.328 138.788 305.336 138.79 305.345 138.792H305.349C305.37 138.797 305.391 138.799 305.414 138.799C305.414 138.799 305.424 138.799 305.43 138.799C305.437 138.799 305.441 138.799 305.447 138.799C305.453 138.799 305.458 138.799 305.464 138.797C305.468 138.797 305.474 138.797 305.478 138.794C305.485 138.794 305.489 138.792 305.495 138.79C305.499 138.79 305.504 138.788 305.51 138.786C305.516 138.786 305.52 138.782 305.527 138.78C305.531 138.78 305.535 138.778 305.539 138.775C305.545 138.773 305.549 138.769 305.556 138.767C305.56 138.767 305.564 138.763 305.566 138.761C305.572 138.758 305.577 138.754 305.583 138.75C305.587 138.748 305.589 138.746 305.593 138.744C305.598 138.739 305.604 138.737 305.608 138.733C305.612 138.731 305.614 138.729 305.618 138.725C305.623 138.72 305.627 138.716 305.631 138.712C305.633 138.71 305.637 138.706 305.641 138.703C305.646 138.699 305.65 138.695 305.654 138.691C305.656 138.686 305.66 138.684 305.662 138.68C305.667 138.676 305.669 138.672 305.673 138.667C305.675 138.663 305.679 138.659 305.681 138.657C305.683 138.653 305.687 138.648 305.69 138.642C305.692 138.638 305.696 138.634 305.698 138.629C305.7 138.625 305.702 138.619 305.704 138.614C305.706 138.61 305.708 138.606 305.71 138.6C305.71 138.595 305.715 138.589 305.715 138.585C305.715 138.581 305.719 138.574 305.721 138.57C305.721 138.566 305.723 138.559 305.725 138.555C305.725 138.551 305.727 138.545 305.729 138.54C305.729 138.534 305.729 138.53 305.731 138.523C305.731 138.517 305.731 138.513 305.733 138.506C305.733 138.5 305.733 138.496 305.733 138.49C305.733 138.483 305.733 138.479 305.733 138.473V134.55C305.733 134.3 305.934 134.093 306.181 134.089C306.3 134.089 306.413 134.133 306.5 134.222C306.592 134.313 306.645 134.438 306.645 134.567V138.494C306.645 138.494 306.645 138.506 306.645 138.511C306.645 138.515 306.645 138.521 306.645 138.526C306.645 138.532 306.645 138.536 306.647 138.542C306.647 138.547 306.647 138.553 306.649 138.557C306.649 138.564 306.651 138.568 306.653 138.574C306.653 138.578 306.655 138.585 306.657 138.589C306.657 138.595 306.661 138.602 306.663 138.606C306.663 138.61 306.665 138.614 306.667 138.619C306.67 138.625 306.674 138.631 306.676 138.636C306.676 138.64 306.68 138.642 306.68 138.646C306.684 138.653 306.686 138.659 306.69 138.663C306.69 138.665 306.695 138.67 306.697 138.672C306.701 138.678 306.705 138.682 306.709 138.689C306.711 138.691 306.713 138.695 306.716 138.697C306.72 138.703 306.726 138.708 306.73 138.714C306.73 138.714 306.734 138.718 306.736 138.72C306.743 138.727 306.747 138.731 306.753 138.735C306.755 138.735 306.757 138.739 306.759 138.742C306.766 138.748 306.772 138.752 306.778 138.756C306.778 138.756 306.782 138.758 306.782 138.761C306.789 138.765 306.797 138.769 306.805 138.773C306.805 138.773 306.808 138.773 306.81 138.775C306.818 138.78 306.826 138.784 306.835 138.788C306.835 138.788 306.835 138.788 306.837 138.788C306.845 138.792 306.856 138.794 306.864 138.799C306.885 138.805 306.906 138.809 306.927 138.811C306.937 138.811 306.948 138.811 306.96 138.811C306.96 138.811 306.97 138.811 306.977 138.811C306.983 138.811 306.987 138.811 306.993 138.811C307 138.811 307.006 138.811 307.01 138.809C307.014 138.809 307.021 138.809 307.025 138.807C307.031 138.807 307.037 138.805 307.044 138.803C307.048 138.803 307.052 138.803 307.056 138.799C307.062 138.797 307.069 138.794 307.075 138.792C307.079 138.792 307.081 138.79 307.085 138.788C307.092 138.786 307.098 138.782 307.104 138.78C307.106 138.78 307.111 138.778 307.113 138.775C307.119 138.771 307.125 138.769 307.131 138.765C307.134 138.765 307.138 138.761 307.14 138.758C307.146 138.754 307.152 138.75 307.156 138.746C307.159 138.746 307.161 138.742 307.165 138.739C307.171 138.735 307.175 138.729 307.182 138.725C307.184 138.725 307.186 138.72 307.188 138.718C307.192 138.714 307.198 138.708 307.202 138.701C307.202 138.699 307.207 138.697 307.209 138.695C307.213 138.689 307.217 138.682 307.221 138.678C307.221 138.676 307.225 138.674 307.228 138.67C307.232 138.663 307.236 138.657 307.238 138.65C307.238 138.648 307.242 138.644 307.242 138.642C307.246 138.636 307.248 138.629 307.251 138.623C307.251 138.621 307.253 138.617 307.255 138.614C307.257 138.608 307.259 138.602 307.261 138.595C307.261 138.591 307.263 138.589 307.265 138.585C307.265 138.578 307.269 138.572 307.269 138.566C307.269 138.562 307.271 138.557 307.271 138.553C307.271 138.547 307.271 138.54 307.274 138.534C307.274 138.53 307.274 138.526 307.274 138.521C307.274 138.515 307.274 138.509 307.274 138.502C307.274 138.498 307.274 138.492 307.274 138.487V135.793C307.294 135.611 307.447 135.467 307.631 135.463C307.725 135.463 307.817 135.499 307.888 135.569C307.961 135.643 308.005 135.745 308.005 135.848V139.716C308.005 139.928 308.145 140.105 308.346 140.161C308.546 140.216 308.751 140.129 308.858 139.947V139.942C309.112 139.496 309.787 138.794 309.984 138.648C310.007 138.631 310.032 138.617 310.061 138.608C310.189 138.564 310.35 138.595 310.462 138.686C310.515 138.731 310.575 138.803 310.561 138.902L310.59 138.909Z" fill="white"/>
<path d="M315.122 140.099L316.861 138.337C316.9 138.297 316.923 138.242 316.923 138.185C316.923 138.127 316.9 138.072 316.861 138.032L316.733 137.903C316.649 137.818 316.514 137.818 316.43 137.903L314.969 139.383L313.509 137.903C313.469 137.863 313.415 137.839 313.358 137.839C313.302 137.839 313.247 137.863 313.208 137.903L313.08 138.032C313.041 138.072 313.018 138.127 313.018 138.185C313.018 138.242 313.041 138.297 313.08 138.337L314.821 140.101C314.861 140.142 314.915 140.165 314.974 140.165C315.032 140.165 315.084 140.142 315.126 140.101L315.122 140.099Z" fill="white"/>
<path d="M330.768 133.424C327.734 133.424 325.266 135.925 325.266 139C325.266 140.072 325.562 141.101 326.124 141.988L325.291 144.098C325.241 144.227 325.27 144.375 325.368 144.475C325.433 144.54 325.521 144.576 325.61 144.576C325.654 144.576 325.696 144.568 325.738 144.551L327.819 143.706C328.695 144.276 329.71 144.576 330.768 144.576C333.802 144.576 336.27 142.075 336.27 139C336.27 135.925 333.802 133.424 330.768 133.424ZM330.768 143.88C329.788 143.88 328.847 143.585 328.053 143.028C327.995 142.988 327.926 142.967 327.859 142.967C327.815 142.967 327.773 142.975 327.731 142.992L326.229 143.602L326.831 142.079C326.873 141.971 326.86 141.846 326.795 141.751C326.246 140.946 325.955 139.995 325.955 139C325.955 136.31 328.114 134.12 330.77 134.12C333.426 134.12 335.585 136.308 335.585 139C335.585 141.692 333.426 143.88 330.77 143.88H330.768Z" fill="white"/>
<path d="M340.199 140.099L341.938 138.337C341.977 138.297 342 138.242 342 138.185C342 138.127 341.977 138.072 341.938 138.032L341.81 137.903C341.727 137.818 341.591 137.818 341.507 137.903L340.047 139.383L338.586 137.903C338.546 137.863 338.492 137.839 338.435 137.839C338.379 137.839 338.325 137.863 338.285 137.903L338.157 138.032C338.118 138.072 338.095 138.127 338.095 138.185C338.095 138.242 338.118 138.297 338.157 138.337L339.898 140.101C339.938 140.142 339.992 140.165 340.051 140.165C340.109 140.165 340.161 140.142 340.203 140.101L340.199 140.099Z" fill="white"/>
</g>
<path d="M381.566 138.574H376.639C376.638 137.343 376.149 136.163 375.279 135.292C374.409 134.422 373.23 133.932 372 133.931V129C374.536 129.003 376.967 130.013 378.76 131.808C380.554 133.603 381.563 136.036 381.566 138.574Z" fill="#00E5D1"/>
<path d="M381.566 148.443H376.639C376.638 147.212 376.149 146.032 375.279 145.162C374.409 144.291 373.23 143.802 372 143.8V138.869C374.536 138.873 376.967 139.882 378.76 141.677C380.554 143.472 381.563 145.905 381.566 148.443Z" fill="#00E5D1"/>
<path d="M391.427 148.443C388.89 148.441 386.459 147.431 384.665 145.636C382.872 143.841 381.863 141.408 381.86 138.869H386.787C386.789 140.1 387.278 141.281 388.147 142.151C389.017 143.022 390.197 143.511 391.427 143.512V148.443Z" fill="#00E5D1"/>
<path d="M391.427 138.574C388.89 138.571 386.459 137.561 384.666 135.766C382.873 133.971 381.864 131.538 381.86 129H386.787C386.789 130.231 387.278 131.411 388.147 132.282C389.017 133.152 390.197 133.642 391.427 133.643V138.574Z" fill="#00E5D1"/>
<g clip-path="url(#clip6_1313_1725)">
<path d="M154.844 247C154.783 247 154.722 246.989 154.664 246.964C154.489 246.892 154.375 246.721 154.375 246.531V231.469C154.375 231.279 154.489 231.108 154.664 231.036C154.84 230.963 155.041 231.004 155.175 231.137L165.488 241.481C165.622 241.615 165.662 241.817 165.589 241.992C165.517 242.167 165.346 242.281 165.156 242.281H159.725L155.175 246.863C155.085 246.952 154.966 247 154.844 247Z" fill="#25ADF9"/>
</g>
<rect x="171" y="235" width="36" height="15" rx="2" fill="#25ADF9"/>
<path d="M175.636 245V244.28H176.014C176.491 244.28 176.824 243.956 176.824 243.479V238.7H177.598V243.371C177.598 244.388 176.977 245 175.96 245H175.636ZM180.585 245.072C179.253 245.072 178.425 244.172 178.434 242.732C178.425 241.292 179.253 240.392 180.585 240.392C181.917 240.392 182.745 241.292 182.736 242.732C182.745 244.172 181.917 245.072 180.585 245.072ZM180.585 244.406C181.449 244.406 181.998 243.758 181.998 242.732C181.998 241.706 181.449 241.049 180.585 241.049C179.721 241.049 179.181 241.706 179.181 242.732C179.181 243.758 179.721 244.406 180.585 244.406ZM185.354 245.072C184.157 245.072 183.437 244.478 183.347 243.479L184.085 243.425C184.139 244.073 184.58 244.415 185.453 244.415C186.146 244.415 186.578 244.127 186.578 243.659C186.578 243.245 186.155 243.065 185.165 242.93C183.977 242.777 183.437 242.417 183.437 241.679C183.437 240.914 184.157 240.392 185.237 240.392C186.434 240.392 187.064 240.896 187.19 241.949L186.452 241.994C186.398 241.319 185.993 241.049 185.156 241.049C184.517 241.049 184.157 241.283 184.157 241.652C184.157 242.039 184.454 242.192 185.453 242.327C186.731 242.516 187.289 242.813 187.289 243.659C187.289 244.46 186.677 245.072 185.354 245.072ZM190.097 245.072C188.72 245.072 187.883 244.235 187.883 242.732C187.883 241.274 188.756 240.392 190.079 240.392C191.393 240.392 192.203 241.319 192.203 242.732C192.203 242.831 192.203 242.957 192.194 243.038H188.648C188.729 243.92 189.278 244.424 190.097 244.424C190.718 244.424 191.123 244.136 191.357 243.623L192.113 243.767C191.78 244.586 191.042 245.072 190.097 245.072ZM188.657 242.462H191.447C191.384 241.589 190.871 241.031 190.079 241.031C189.278 241.031 188.756 241.571 188.657 242.462ZM195.208 245.072C194.704 245.072 194.299 244.919 194.011 244.622L193.741 244.118L193.66 244.145L193.741 244.712V246.575H192.994V240.5H193.741L193.732 240.761L193.651 241.328L193.741 241.355L194.002 240.851C194.299 240.545 194.704 240.392 195.208 240.392C196.477 240.392 197.26 241.283 197.251 242.732C197.26 244.181 196.477 245.072 195.208 245.072ZM195.118 244.397C195.964 244.397 196.486 243.758 196.486 242.732C196.486 241.706 195.964 241.076 195.118 241.076C194.263 241.076 193.741 241.706 193.741 242.732C193.741 243.758 194.263 244.397 195.118 244.397ZM201.384 242.318C201.384 241.571 201.051 241.112 200.322 241.112C199.62 241.112 198.972 241.634 198.882 242.345V245H198.135V238.52H198.882L198.873 240.986L198.792 241.535L198.882 241.562L199.143 241.067C199.449 240.689 199.935 240.41 200.448 240.41C201.483 240.41 202.131 241.148 202.131 242.327V245H201.384V242.318Z" fill="white"/>
<path fill-rule="evenodd" clip-rule="evenodd" d="M346 46.4992C346 42.464 349.394 39.1928 353.581 39.1928H361.162V53.8063H353.581C349.394 53.8063 346 50.5347 346 46.4992ZM353.581 36.6139H361.162V22H353.581C349.394 22 346 25.2714 346 29.3069C346 33.3425 349.394 36.6139 353.581 36.6139ZM379 29.3069C379 33.3425 375.606 36.6139 371.419 36.6139H363.838V22H371.419C375.606 22 379 25.2714 379 29.3069ZM363.838 46.4992C363.838 42.464 367.232 39.1928 371.419 39.1928C375.606 39.1928 379 42.464 379 46.4992C379 50.5347 375.606 53.8063 371.419 53.8063C367.232 53.8063 363.838 50.5347 363.838 46.4992ZM353.581 56.3853H361.162V63.6929C361.162 67.7284 357.768 71 353.581 71C349.394 71 346 67.7284 346 63.6929C346 59.6574 349.394 56.3853 353.581 56.3853Z" fill="white"/>
<path d="M158.25 322.25C152.628 322.25 147.597 324.738 144.163 328.656C143.65 328.603 143.15 328.5 142.625 328.5C133.997 328.5 127 335.497 127 344.125C127 352.753 133.997 359.75 142.625 359.75C145.309 359.75 155.288 359.75 158.25 359.75C168.606 359.75 177 351.356 177 341C177 330.644 168.606 322.25 158.25 322.25ZM142.625 356.625C135.731 356.625 130.125 351.019 130.125 344.125C130.125 337.231 135.731 331.625 142.625 331.625C144.025 331.625 145.4 331.866 146.719 332.344C147.438 332.541 148.297 332.931 149.169 333.475C149.197 333.491 149.225 333.506 149.25 333.522L159.081 339.675C159.809 340.131 160.034 341.097 159.575 341.828C159.119 342.563 158.156 342.784 157.419 342.325L147.659 336.216C147.628 336.2 147.597 336.181 147.569 336.163C146.931 335.759 146.325 335.472 145.769 335.319C139.241 332.991 133.25 337.922 133.25 344.125C133.25 349.294 137.456 353.5 142.625 353.5C143.153 353.5 143.675 353.444 144.184 353.359C144.975 354.269 145.856 355.103 146.869 355.869C145.525 356.353 144.097 356.625 142.625 356.625ZM158.25 356.625C154.869 356.625 151.65 355.556 148.941 353.534C147.887 352.759 147 351.925 146.244 350.994C146.216 350.962 146.188 350.931 146.163 350.903L141.416 345.116C140.869 344.447 140.966 343.462 141.634 342.916C142.297 342.366 143.284 342.466 143.834 343.134L148.491 348.809C148.528 348.85 148.566 348.891 148.6 348.934C149.2 349.691 149.919 350.375 150.8 351.025C152.975 352.647 155.55 353.5 158.25 353.5C165.144 353.5 170.75 347.894 170.75 341C170.75 334.106 165.144 328.5 158.25 328.5C155.541 328.5 153.003 329.356 150.916 330.881L150.906 330.875C150.856 330.844 150.806 330.812 150.756 330.784C149.772 330.175 148.778 329.725 147.797 329.416C150.613 326.847 154.281 325.375 158.25 325.375C166.866 325.375 173.875 332.384 173.875 341C173.875 349.616 166.866 356.625 158.25 356.625Z" fill="white"/>
<g clip-path="url(#clip7_1313_1725)">
<path d="M30.3641 342.779C29.4172 340.616 28.498 338.515 27.5764 336.413C27.2064 335.572 26.8456 334.726 26.4641 333.889C25.862 332.565 25.9424 331.259 26.6663 330.033C28.6772 326.638 30.7157 323.258 32.7703 319.89C33.5241 318.658 34.6364 318.025 36.1164 318.025C46.3824 318.037 56.6483 318.076 66.9143 318C69.5618 317.979 72.2024 321.003 70.4167 324.056C68.4265 327.463 66.3811 330.838 64.3334 334.211C63.5337 335.531 62.3018 336.147 60.7736 336.16C59.0499 336.177 57.3263 336.165 55.6027 336.167C55.2258 336.167 54.8466 336.167 54.2927 336.167C54.6535 337.034 54.9454 337.765 55.2602 338.487C55.8716 339.892 56.4898 341.294 57.1149 342.692C57.7377 344.088 57.6802 345.433 56.885 346.752C54.9086 350.035 52.9621 353.335 50.9741 356.611C50.1054 358.041 48.7679 358.68 47.1132 358.68C44.4703 358.68 41.8274 358.68 39.0765 358.68C37.5183 360.305 35.9303 361.961 34.3422 363.616C33.8918 364.085 33.4712 364.588 32.984 365.021C31.1087 366.681 28.7347 366.175 27.7005 363.89C26.5813 361.411 25.4874 358.921 24.4003 356.429C23.7729 354.994 23.8947 353.606 24.7083 352.259C26.3538 349.536 27.9786 346.805 29.6103 344.076C29.8447 343.683 30.0699 343.288 30.3664 342.779H30.3641ZM52.707 332.788H61.2033C61.3435 332.691 61.3872 332.675 61.4056 332.645C63.4578 329.277 65.5101 325.909 67.5532 322.536C67.8634 322.026 67.7439 321.584 67.2406 321.262H47.6418C49.347 325.141 50.9925 328.886 52.707 332.788ZM47.998 355.335C50.1882 351.672 52.4358 348.088 54.4444 344.547C54.0399 343.552 53.3688 343.681 52.7736 343.681C46.9914 343.674 41.2069 343.676 35.4247 343.681C35.0983 343.681 34.772 343.727 34.2779 343.766C36.013 347.711 37.6884 351.518 39.3683 355.337H47.998V355.335ZM44.2497 321.221H35.666C33.5241 324.801 31.3684 328.399 29.2908 331.868C29.4816 333.004 30.2101 332.868 30.8467 332.868C36.6243 332.873 42.4042 332.873 48.1819 332.868C48.5082 332.868 48.8345 332.822 49.3217 332.783C47.5912 328.84 45.9227 325.035 44.2497 321.219V321.221ZM31.0076 336.225C31.7016 337.807 32.3106 339.193 32.8645 340.455C33.9561 340.455 34.8662 340.455 35.7786 340.455C40.9081 340.455 46.04 340.455 51.1695 340.451C51.6038 340.451 52.0382 340.398 52.6242 340.359C51.9692 338.855 51.397 337.538 50.8248 336.223H31.0076V336.225ZM31.9728 346.32C30.3457 349.054 28.8818 351.509 27.4224 353.969C27.1283 354.466 27.1765 354.914 27.7763 355.36C30.3434 355.415 33.0185 355.411 35.9188 355.369C34.5652 352.263 33.3218 349.417 31.9728 346.32ZM34.5904 358.703H28.9576C29.562 360.098 30.1113 361.361 30.7203 362.768C32.0464 361.374 33.2391 360.119 34.5904 358.703Z" fill="white"/>
</g>
<rect x="17.5" y="136.5" width="160" height="27" rx="13.5" fill="#222222"/>
<path d="M36.0191 154L33.9611 146.468L31.9031 154H30.6431L27.9831 144.662H29.2711L31.3431 152.446L33.4851 144.662H34.4511L36.5931 152.446L38.6511 144.662H39.9391L37.2791 154H36.0191ZM40.2439 150.612C40.2439 148.652 41.6439 147.07 43.5759 147.07C45.6199 147.07 46.8239 148.666 46.8239 150.696V150.962H41.3499C41.4339 152.236 42.3299 153.3 43.7859 153.3C44.5559 153.3 45.3399 152.992 45.8719 152.446L46.3759 153.132C45.7039 153.804 44.7939 154.168 43.6879 154.168C41.6859 154.168 40.2439 152.726 40.2439 150.612ZM43.5619 147.938C42.1199 147.938 41.4059 149.156 41.3499 150.192H45.7879C45.7739 149.184 45.1019 147.938 43.5619 147.938ZM48.5246 154V144.662H49.5746V148.26C50.1206 147.518 50.9326 147.07 51.8566 147.07C53.6206 147.07 54.8666 148.47 54.8666 150.626C54.8666 152.824 53.6206 154.168 51.8566 154.168C50.9046 154.168 50.0786 153.678 49.5746 152.992V154H48.5246ZM49.5746 152.166C49.9386 152.754 50.7646 153.23 51.5906 153.23C52.9626 153.23 53.7746 152.124 53.7746 150.626C53.7746 149.128 52.9626 148.008 51.5906 148.008C50.7646 148.008 49.9386 148.512 49.5746 149.1V152.166ZM56.8713 154V148.162H55.7513V147.238H56.8713V146.72C56.8713 145.32 57.6553 144.522 58.8313 144.522C59.2233 144.522 59.5873 144.592 59.8533 144.76L59.5873 145.558C59.4333 145.46 59.2513 145.39 58.9853 145.39C58.2993 145.39 57.9213 145.866 57.9213 146.72V147.238H59.2933V148.162H57.9213V154H56.8713ZM60.5393 154V144.662H61.5893V154H60.5393ZM66.6544 154.168C64.5964 154.168 63.3084 152.572 63.3084 150.612C63.3084 148.652 64.5964 147.07 66.6544 147.07C68.7124 147.07 70.0004 148.652 70.0004 150.612C70.0004 152.572 68.7124 154.168 66.6544 154.168ZM66.6544 153.23C68.0964 153.23 68.8944 151.998 68.8944 150.612C68.8944 149.24 68.0964 148.008 66.6544 148.008C65.2124 148.008 64.4004 149.24 64.4004 150.612C64.4004 151.998 65.2124 153.23 66.6544 153.23ZM77.5641 154L75.8001 148.568L74.0361 154H72.9861L70.8301 147.238H71.9221L73.5741 152.628L75.3521 147.238H76.2481L78.0261 152.628L79.6781 147.238H80.7701L78.6141 154H77.5641ZM85.6447 154V144.662H88.8367C91.7347 144.662 93.6247 146.692 93.6247 149.338C93.6247 151.998 91.7347 154 88.8367 154H85.6447ZM86.8067 152.964H88.8367C91.1047 152.964 92.4207 151.34 92.4207 149.338C92.4207 147.322 91.1467 145.698 88.8367 145.698H86.8067V152.964ZM95.0135 150.612C95.0135 148.652 96.4135 147.07 98.3455 147.07C100.389 147.07 101.593 148.666 101.593 150.696V150.962H96.1195C96.2035 152.236 97.0995 153.3 98.5555 153.3C99.3255 153.3 100.109 152.992 100.641 152.446L101.145 153.132C100.473 153.804 99.5635 154.168 98.4575 154.168C96.4555 154.168 95.0135 152.726 95.0135 150.612ZM98.3315 147.938C96.8895 147.938 96.1755 149.156 96.1195 150.192H100.557C100.543 149.184 99.8715 147.938 98.3315 147.938ZM105.1 154L102.286 147.238H103.42L105.674 152.782L107.914 147.238H109.062L106.248 154H105.1ZM109.765 150.612C109.765 148.652 111.165 147.07 113.097 147.07C115.141 147.07 116.345 148.666 116.345 150.696V150.962H110.871C110.955 152.236 111.851 153.3 113.307 153.3C114.077 153.3 114.861 152.992 115.393 152.446L115.897 153.132C115.225 153.804 114.315 154.168 113.209 154.168C111.207 154.168 109.765 152.726 109.765 150.612ZM113.083 147.938C111.641 147.938 110.927 149.156 110.871 150.192H115.309C115.295 149.184 114.623 147.938 113.083 147.938ZM118.046 154V144.662H119.096V154H118.046ZM124.145 154.168C122.087 154.168 120.799 152.572 120.799 150.612C120.799 148.652 122.087 147.07 124.145 147.07C126.203 147.07 127.491 148.652 127.491 150.612C127.491 152.572 126.203 154.168 124.145 154.168ZM124.145 153.23C125.587 153.23 126.385 151.998 126.385 150.612C126.385 149.24 125.587 148.008 124.145 148.008C122.703 148.008 121.891 149.24 121.891 150.612C121.891 151.998 122.703 153.23 124.145 153.23ZM130.252 156.576H129.202V147.238H130.252V148.246C130.742 147.56 131.582 147.07 132.534 147.07C134.312 147.07 135.544 148.414 135.544 150.612C135.544 152.796 134.312 154.168 132.534 154.168C131.61 154.168 130.798 153.734 130.252 152.978V156.576ZM134.438 150.612C134.438 149.114 133.626 148.008 132.268 148.008C131.442 148.008 130.616 148.498 130.252 149.086V152.138C130.616 152.726 131.442 153.23 132.268 153.23C133.626 153.23 134.438 152.11 134.438 150.612ZM145.403 154V149.408C145.403 148.554 145.025 148.008 144.157 148.008C143.457 148.008 142.715 148.512 142.365 149.044V154H141.315V149.408C141.315 148.554 140.951 148.008 140.069 148.008C139.383 148.008 138.655 148.512 138.291 149.058V154H137.241V147.238H138.291V148.218C138.571 147.784 139.481 147.07 140.475 147.07C141.511 147.07 142.099 147.63 142.295 148.33C142.673 147.714 143.583 147.07 144.563 147.07C145.795 147.07 146.453 147.756 146.453 149.114V154H145.403ZM148.156 150.612C148.156 148.652 149.556 147.07 151.488 147.07C153.532 147.07 154.736 148.666 154.736 150.696V150.962H149.262C149.346 152.236 150.242 153.3 151.698 153.3C152.468 153.3 153.252 152.992 153.784 152.446L154.288 153.132C153.616 153.804 152.706 154.168 151.6 154.168C149.598 154.168 148.156 152.726 148.156 150.612ZM151.474 147.938C150.032 147.938 149.318 149.156 149.262 150.192H153.7C153.686 149.184 153.014 147.938 151.474 147.938ZM161.001 154V149.576C161.001 148.386 160.399 148.008 159.489 148.008C158.663 148.008 157.879 148.512 157.487 149.058V154H156.437V147.238H157.487V148.218C157.963 147.658 158.887 147.07 159.895 147.07C161.309 147.07 162.051 147.784 162.051 149.254V154H161.001ZM165.856 154.168C164.862 154.168 164.358 153.594 164.358 152.586V148.162H163.238V147.238H164.358V145.39H165.408V147.238H166.78V148.162H165.408V152.362C165.408 152.866 165.632 153.23 166.094 153.23C166.388 153.23 166.668 153.104 166.808 152.95L167.116 153.734C166.85 153.986 166.472 154.168 165.856 154.168Z" fill="white"/>
<rect x="17.5" y="136.5" width="160" height="27" rx="13.5" stroke="url(#paint8_linear_1313_1725)"/>
<rect x="17.5" y="179.5" width="122" height="27" rx="13.5" fill="#222222"/>
<path d="M31.9503 192.338C31.9503 189.44 34.0923 187.508 36.7523 187.508C38.4043 187.508 39.5523 188.236 40.3783 189.258L39.4543 189.832C38.8663 189.076 37.8723 188.544 36.7523 188.544C34.7083 188.544 33.1543 190.112 33.1543 192.338C33.1543 194.55 34.7083 196.146 36.7523 196.146C37.8723 196.146 38.7963 195.6 39.2583 195.138V193.234H36.0523V192.198H40.4203V195.572C39.5523 196.538 38.2783 197.182 36.7523 197.182C34.0923 197.182 31.9503 195.236 31.9503 192.338ZM42.2668 197V190.238H43.3168V191.33C43.8628 190.616 44.6468 190.098 45.5708 190.098V191.176C45.4448 191.148 45.3188 191.134 45.1508 191.134C44.5068 191.134 43.6248 191.666 43.3168 192.212V197H42.2668ZM51.1159 197V196.23C50.5559 196.846 49.7859 197.168 48.8759 197.168C47.7279 197.168 46.5099 196.398 46.5099 194.928C46.5099 193.416 47.7279 192.702 48.8759 192.702C49.7999 192.702 50.5699 192.996 51.1159 193.626V192.408C51.1159 191.498 50.3879 190.98 49.4079 190.98C48.5959 190.98 47.9379 191.274 47.3359 191.918L46.8459 191.19C47.5739 190.434 48.4419 190.07 49.5479 190.07C50.9759 190.07 52.1659 190.714 52.1659 192.352V197H51.1159ZM51.1159 195.572V194.298C50.7099 193.738 49.9959 193.458 49.2539 193.458C48.2739 193.458 47.5879 194.074 47.5879 194.942C47.5879 195.796 48.2739 196.412 49.2539 196.412C49.9959 196.412 50.7099 196.132 51.1159 195.572ZM55.3207 199.576H54.2707V190.238H55.3207V191.246C55.8107 190.56 56.6507 190.07 57.6027 190.07C59.3807 190.07 60.6127 191.414 60.6127 193.612C60.6127 195.796 59.3807 197.168 57.6027 197.168C56.6787 197.168 55.8667 196.734 55.3207 195.978V199.576ZM59.5067 193.612C59.5067 192.114 58.6947 191.008 57.3367 191.008C56.5107 191.008 55.6847 191.498 55.3207 192.086V195.138C55.6847 195.726 56.5107 196.23 57.3367 196.23C58.6947 196.23 59.5067 195.11 59.5067 193.612ZM66.8878 197V192.548C66.8878 191.358 66.2718 191.008 65.3618 191.008C64.5498 191.008 63.7658 191.512 63.3598 192.058V197H62.3098V187.662H63.3598V191.218C63.8358 190.658 64.7598 190.07 65.7818 190.07C67.1958 190.07 67.9378 190.756 67.9378 192.226V197H66.8878ZM70.5524 189.104C70.1744 189.104 69.8524 188.782 69.8524 188.39C69.8524 187.998 70.1744 187.69 70.5524 187.69C70.9444 187.69 71.2664 187.998 71.2664 188.39C71.2664 188.782 70.9444 189.104 70.5524 189.104ZM70.0344 197V190.238H71.0844V197H70.0344ZM72.7869 193.612C72.7869 191.61 74.1449 190.07 76.1609 190.07C77.3929 190.07 78.1209 190.574 78.6389 191.246L77.9389 191.89C77.4909 191.274 76.9169 191.008 76.2169 191.008C74.7749 191.008 73.8789 192.114 73.8789 193.612C73.8789 195.11 74.7749 196.23 76.2169 196.23C76.9169 196.23 77.4909 195.95 77.9389 195.348L78.6389 195.992C78.1209 196.664 77.3929 197.168 76.1609 197.168C74.1449 197.168 72.7869 195.628 72.7869 193.612ZM83.7619 197V187.662H86.9539C89.8519 187.662 91.7419 189.692 91.7419 192.338C91.7419 194.998 89.8519 197 86.9539 197H83.7619ZM84.9239 195.964H86.9539C89.2219 195.964 90.5379 194.34 90.5379 192.338C90.5379 190.322 89.2639 188.698 86.9539 188.698H84.9239V195.964ZM93.1307 193.612C93.1307 191.652 94.5307 190.07 96.4627 190.07C98.5067 190.07 99.7107 191.666 99.7107 193.696V193.962H94.2367C94.3207 195.236 95.2167 196.3 96.6727 196.3C97.4427 196.3 98.2267 195.992 98.7587 195.446L99.2627 196.132C98.5907 196.804 97.6807 197.168 96.5747 197.168C94.5727 197.168 93.1307 195.726 93.1307 193.612ZM96.4487 190.938C95.0067 190.938 94.2927 192.156 94.2367 193.192H98.6747C98.6607 192.184 97.9887 190.938 96.4487 190.938ZM100.823 196.104L101.369 195.348C101.817 195.866 102.671 196.314 103.595 196.314C104.631 196.314 105.191 195.852 105.191 195.194C105.191 194.452 104.365 194.214 103.455 193.99C102.307 193.724 101.005 193.416 101.005 192.016C101.005 190.966 101.915 190.07 103.525 190.07C104.673 190.07 105.485 190.504 106.031 191.05L105.541 191.778C105.135 191.288 104.393 190.924 103.525 190.924C102.601 190.924 102.027 191.344 102.027 191.946C102.027 192.604 102.797 192.814 103.679 193.024C104.855 193.29 106.213 193.626 106.213 195.124C106.213 196.258 105.303 197.168 103.553 197.168C102.447 197.168 101.509 196.832 100.823 196.104ZM108.437 189.104C108.059 189.104 107.737 188.782 107.737 188.39C107.737 187.998 108.059 187.69 108.437 187.69C108.829 187.69 109.151 187.998 109.151 188.39C109.151 188.782 108.829 189.104 108.437 189.104ZM107.919 197V190.238H108.969V197H107.919ZM111.05 198.736L111.582 197.952C112.142 198.624 112.814 198.876 113.78 198.876C114.9 198.876 115.95 198.33 115.95 196.846V195.88C115.46 196.566 114.634 197.084 113.682 197.084C111.918 197.084 110.672 195.768 110.672 193.584C110.672 191.414 111.904 190.07 113.682 190.07C114.592 190.07 115.404 190.518 115.95 191.26V190.238H117V196.804C117 199.044 115.432 199.744 113.78 199.744C112.632 199.744 111.848 199.52 111.05 198.736ZM115.95 195.054V192.1C115.586 191.512 114.774 191.008 113.934 191.008C112.576 191.008 111.764 192.086 111.764 193.584C111.764 195.068 112.576 196.16 113.934 196.16C114.774 196.16 115.586 195.642 115.95 195.054ZM123.667 197V192.576C123.667 191.386 123.065 191.008 122.155 191.008C121.329 191.008 120.545 191.512 120.153 192.058V197H119.103V190.238H120.153V191.218C120.629 190.658 121.553 190.07 122.561 190.07C123.975 190.07 124.717 190.784 124.717 192.254V197H123.667Z" fill="white"/>
<rect x="17.5" y="179.5" width="122" height="27" rx="13.5" stroke="url(#paint9_linear_1313_1725)"/>
<rect x="17.5" y="222.5" width="110" height="27" rx="13.5" fill="#222222"/>
<path d="M32.1252 236.374V230.662H33.2872V236.346C33.2872 238.054 34.2112 239.132 35.9332 239.132C37.6552 239.132 38.5792 238.054 38.5792 236.346V230.662H39.7412V236.36C39.7412 238.684 38.4672 240.168 35.9332 240.168C33.3992 240.168 32.1252 238.67 32.1252 236.374ZM41.9279 240V230.662H43.0899V240H41.9279ZM44.1855 240.28L47.5035 230.382H48.3295L45.0115 240.28H44.1855ZM49.4201 236.374V230.662H50.5821V236.346C50.5821 238.054 51.5061 239.132 53.2281 239.132C54.9501 239.132 55.8741 238.054 55.8741 236.346V230.662H57.0361V236.36C57.0361 238.684 55.7621 240.168 53.2281 240.168C50.6941 240.168 49.4201 238.67 49.4201 236.374ZM65.6769 240L62.6949 236.024L59.7129 240H58.2989L61.9389 235.212L58.5089 230.662H59.9229L62.6949 234.4L65.4529 230.662H66.8669L63.4509 235.198L67.0769 240H65.6769ZM71.965 240V230.662H75.157C78.055 230.662 79.945 232.692 79.945 235.338C79.945 237.998 78.055 240 75.157 240H71.965ZM73.127 238.964H75.157C77.425 238.964 78.741 237.34 78.741 235.338C78.741 233.322 77.467 231.698 75.157 231.698H73.127V238.964ZM81.3338 236.612C81.3338 234.652 82.7338 233.07 84.6658 233.07C86.7098 233.07 87.9138 234.666 87.9138 236.696V236.962H82.4398C82.5238 238.236 83.4198 239.3 84.8758 239.3C85.6458 239.3 86.4298 238.992 86.9618 238.446L87.4658 239.132C86.7938 239.804 85.8838 240.168 84.7778 240.168C82.7758 240.168 81.3338 238.726 81.3338 236.612ZM84.6518 233.938C83.2098 233.938 82.4958 235.156 82.4398 236.192H86.8778C86.8638 235.184 86.1918 233.938 84.6518 233.938ZM89.0265 239.104L89.5725 238.348C90.0205 238.866 90.8745 239.314 91.7985 239.314C92.8345 239.314 93.3945 238.852 93.3945 238.194C93.3945 237.452 92.5685 237.214 91.6585 236.99C90.5105 236.724 89.2085 236.416 89.2085 235.016C89.2085 233.966 90.1185 233.07 91.7285 233.07C92.8765 233.07 93.6885 233.504 94.2345 234.05L93.7445 234.778C93.3385 234.288 92.5965 233.924 91.7285 233.924C90.8045 233.924 90.2305 234.344 90.2305 234.946C90.2305 235.604 91.0005 235.814 91.8825 236.024C93.0585 236.29 94.4165 236.626 94.4165 238.124C94.4165 239.258 93.5065 240.168 91.7565 240.168C90.6505 240.168 89.7125 239.832 89.0265 239.104ZM96.6403 232.104C96.2623 232.104 95.9403 231.782 95.9403 231.39C95.9403 230.998 96.2623 230.69 96.6403 230.69C97.0323 230.69 97.3543 230.998 97.3543 231.39C97.3543 231.782 97.0323 232.104 96.6403 232.104ZM96.1223 240V233.238H97.1723V240H96.1223ZM99.2528 241.736L99.7848 240.952C100.345 241.624 101.017 241.876 101.983 241.876C103.103 241.876 104.153 241.33 104.153 239.846V238.88C103.663 239.566 102.837 240.084 101.885 240.084C100.121 240.084 98.8748 238.768 98.8748 236.584C98.8748 234.414 100.107 233.07 101.885 233.07C102.795 233.07 103.607 233.518 104.153 234.26V233.238H105.203V239.804C105.203 242.044 103.635 242.744 101.983 242.744C100.835 242.744 100.051 242.52 99.2528 241.736ZM104.153 238.054V235.1C103.789 234.512 102.977 234.008 102.137 234.008C100.779 234.008 99.9668 235.086 99.9668 236.584C99.9668 238.068 100.779 239.16 102.137 239.16C102.977 239.16 103.789 238.642 104.153 238.054ZM111.87 240V235.576C111.87 234.386 111.268 234.008 110.358 234.008C109.532 234.008 108.748 234.512 108.356 235.058V240H107.306V233.238H108.356V234.218C108.832 233.658 109.756 233.07 110.764 233.07C112.178 233.07 112.92 233.784 112.92 235.254V240H111.87Z" fill="white"/>
<rect x="17.5" y="222.5" width="110" height="27" rx="13.5" stroke="url(#paint10_linear_1313_1725)"/>
<defs>
<filter id="filter0_b_1313_1725" x="204" y="-8" width="108" height="108" filterUnits="userSpaceOnUse" color-interpolation-filters="sRGB">
<feFlood flood-opacity="0" result="BackgroundImageFix"/>
<feGaussianBlur in="BackgroundImageFix" stdDeviation="4"/>
<feComposite in2="SourceAlpha" operator="in" result="effect1_backgroundBlur_1313_1725"/>
<feBlend mode="normal" in="SourceGraphic" in2="effect1_backgroundBlur_1313_1725" result="shape"/>
</filter>
<filter id="filter1_b_1313_1725" x="204" y="104" width="213" height="292" filterUnits="userSpaceOnUse" color-interpolation-filters="sRGB">
<feFlood flood-opacity="0" result="BackgroundImageFix"/>
<feGaussianBlur in="BackgroundImageFix" stdDeviation="4"/>
<feComposite in2="SourceAlpha" operator="in" result="effect1_backgroundBlur_1313_1725"/>
<feBlend mode="normal" in="SourceGraphic" in2="effect1_backgroundBlur_1313_1725" result="shape"/>
</filter>
<filter id="filter2_b_1313_1725" x="-8" y="104" width="213" height="176" filterUnits="userSpaceOnUse" color-interpolation-filters="sRGB">
<feFlood flood-opacity="0" result="BackgroundImageFix"/>
<feGaussianBlur in="BackgroundImageFix" stdDeviation="4"/>
<feComposite in2="SourceAlpha" operator="in" result="effect1_backgroundBlur_1313_1725"/>
<feBlend mode="normal" in="SourceGraphic" in2="effect1_backgroundBlur_1313_1725" result="shape"/>
</filter>
<filter id="filter3_b_1313_1725" x="204" y="104" width="213" height="66" filterUnits="userSpaceOnUse" color-interpolation-filters="sRGB">
<feFlood flood-opacity="0" result="BackgroundImageFix"/>
<feGaussianBlur in="BackgroundImageFix" stdDeviation="4"/>
<feComposite in2="SourceAlpha" operator="in" result="effect1_backgroundBlur_1313_1725"/>
<feBlend mode="normal" in="SourceGraphic" in2="effect1_backgroundBlur_1313_1725" result="shape"/>
</filter>
<filter id="filter4_b_1313_1725" x="-8" y="287" width="108" height="108" filterUnits="userSpaceOnUse" color-interpolation-filters="sRGB">
<feFlood flood-opacity="0" result="BackgroundImageFix"/>
<feGaussianBlur in="BackgroundImageFix" stdDeviation="4"/>
<feComposite in2="SourceAlpha" operator="in" result="effect1_backgroundBlur_1313_1725"/>
<feBlend mode="normal" in="SourceGraphic" in2="effect1_backgroundBlur_1313_1725" result="shape"/>
</filter>
<filter id="filter5_b_1313_1725" x="98" y="288" width="108" height="108" filterUnits="userSpaceOnUse" color-interpolation-filters="sRGB">
<feFlood flood-opacity="0" result="BackgroundImageFix"/>
<feGaussianBlur in="BackgroundImageFix" stdDeviation="4"/>
<feComposite in2="SourceAlpha" operator="in" result="effect1_backgroundBlur_1313_1725"/>
<feBlend mode="normal" in="SourceGraphic" in2="effect1_backgroundBlur_1313_1725" result="shape"/>
</filter>
<filter id="filter6_b_1313_1725" x="309" y="-8" width="108" height="108" filterUnits="userSpaceOnUse" color-interpolation-filters="sRGB">
<feFlood flood-opacity="0" result="BackgroundImageFix"/>
<feGaussianBlur in="BackgroundImageFix" stdDeviation="4"/>
<feComposite in2="SourceAlpha" operator="in" result="effect1_backgroundBlur_1313_1725"/>
<feBlend mode="normal" in="SourceGraphic" in2="effect1_backgroundBlur_1313_1725" result="shape"/>
</filter>
<linearGradient id="paint0_linear_1313_1725" x1="258" y1="0" x2="258" y2="91.9999" gradientUnits="userSpaceOnUse">
<stop stop-color="#222222"/>
<stop offset="1" stop-opacity="0"/>
</linearGradient>
<linearGradient id="paint1_linear_1313_1725" x1="258" y1="0" x2="258" y2="91.9999" gradientUnits="userSpaceOnUse">
<stop stop-color="white" stop-opacity="0.52"/>
<stop offset="1" stop-color="white" stop-opacity="0.15"/>
</linearGradient>
<linearGradient id="paint2_linear_1313_1725" x1="46" y1="295" x2="46" y2="387" gradientUnits="userSpaceOnUse">
<stop stop-color="#222222"/>
<stop offset="1" stop-opacity="0"/>
</linearGradient>
<linearGradient id="paint3_linear_1313_1725" x1="46" y1="295" x2="46" y2="387" gradientUnits="userSpaceOnUse">
<stop stop-color="white" stop-opacity="0.52"/>
<stop offset="1" stop-color="white" stop-opacity="0.15"/>
</linearGradient>
<linearGradient id="paint4_linear_1313_1725" x1="152" y1="296" x2="152" y2="388" gradientUnits="userSpaceOnUse">
<stop stop-color="#222222"/>
<stop offset="1" stop-opacity="0"/>
</linearGradient>
<linearGradient id="paint5_linear_1313_1725" x1="152" y1="296" x2="152" y2="388" gradientUnits="userSpaceOnUse">
<stop stop-color="white" stop-opacity="0.52"/>
<stop offset="1" stop-color="white" stop-opacity="0.15"/>
</linearGradient>
<linearGradient id="paint6_linear_1313_1725" x1="363" y1="0" x2="363" y2="91.9999" gradientUnits="userSpaceOnUse">
<stop stop-color="#222222"/>
<stop offset="1" stop-opacity="0"/>
</linearGradient>
<linearGradient id="paint7_linear_1313_1725" x1="363" y1="0" x2="363" y2="91.9999" gradientUnits="userSpaceOnUse">
<stop stop-color="white" stop-opacity="0.52"/>
<stop offset="1" stop-color="white" stop-opacity="0.15"/>
</linearGradient>
<linearGradient id="paint8_linear_1313_1725" x1="18.4375" y1="136" x2="168.431" y2="190.389" gradientUnits="userSpaceOnUse">
<stop stop-color="#00E5D1"/>
<stop offset="1" stop-color="#25ADF9"/>
</linearGradient>
<linearGradient id="paint9_linear_1313_1725" x1="18.0982" y1="179" x2="138.515" y2="212.359" gradientUnits="userSpaceOnUse">
<stop stop-color="#00E5D1"/>
<stop offset="1" stop-color="#25ADF9"/>
</linearGradient>
<linearGradient id="paint10_linear_1313_1725" x1="17.9911" y1="222" x2="128.117" y2="249.532" gradientUnits="userSpaceOnUse">
<stop stop-color="#00E5D1"/>
<stop offset="1" stop-color="#25ADF9"/>
</linearGradient>
<clipPath id="clip0_1313_1725">
<rect width="56" height="56" fill="white" transform="translate(230 18)"/>
</clipPath>
<clipPath id="clip1_1313_1725">
<rect width="16" height="16" fill="white" transform="translate(262 217)"/>
</clipPath>
<clipPath id="clip2_1313_1725">
<rect width="16" height="16" fill="white" transform="translate(262 287)"/>
</clipPath>
<clipPath id="clip3_1313_1725">
<rect width="16" height="16" fill="white" transform="translate(262 322)"/>
</clipPath>
<clipPath id="clip4_1313_1725">
<rect width="16" height="16" fill="white" transform="translate(262 252)"/>
</clipPath>
<clipPath id="clip5_1313_1725">
<rect width="112" height="12" fill="white" transform="translate(230 133)"/>
</clipPath>
<clipPath id="clip6_1313_1725">
<rect width="16" height="16" fill="white" transform="translate(152 231)"/>
</clipPath>
<clipPath id="clip7_1313_1725">
<rect width="47" height="48" fill="white" transform="translate(24 318)"/>
</clipPath>
</defs>
</svg>
