<svg width="240" height="240" viewBox="0 0 240 240" fill="none" xmlns="http://www.w3.org/2000/svg">
<g opacity="0.3" clip-path="url(#clip0_2785_2388)">
<path d="M240 23.9701L240 240L1.52588e-05 240L1.81208e-05 2.76556e-05L240 3.05176e-05L240 23.9701ZM239.7 47.9401L239.7 24.2697L216.03 24.2697L216.03 47.9401L239.7 47.9401ZM192.06 24.2697L192.06 47.9401L215.73 47.9401L215.73 24.2697L192.06 24.2697ZM168.09 24.2697L168.09 47.9401L191.76 47.9401L191.76 24.2697L168.09 24.2697ZM144.12 24.2697L144.12 47.9401L167.79 47.9401L167.79 24.2697L144.12 24.2697ZM120.15 24.2697L120.15 47.9401L143.82 47.9401L143.82 24.2697L120.15 24.2697ZM96.1798 24.2697L96.1798 47.9401L119.85 47.9401L119.85 24.2697L96.1798 24.2697ZM72.2097 24.2697L72.2097 47.9401L95.8802 47.9401L95.8802 24.2697L72.2097 24.2697ZM48.2397 24.2697L48.2397 47.9401L71.9101 47.9401L71.9101 24.2697L48.2397 24.2697ZM24.2697 24.2697L24.2697 47.9401L47.9401 47.9401L47.9401 24.2697L24.2697 24.2697ZM47.9401 215.73L47.9401 192.06L24.2697 192.06L24.2697 215.73L47.9401 215.73ZM71.9101 215.73L71.9101 192.06L48.2397 192.06L48.2397 215.73L71.9101 215.73ZM95.8802 215.73L95.8802 192.06L72.2097 192.06L72.2097 215.73L95.8802 215.73ZM119.85 215.73L119.85 192.06L96.1798 192.06L96.1798 215.73L119.85 215.73ZM143.82 215.73L143.82 192.06L120.15 192.06L120.15 215.73L143.82 215.73ZM167.79 215.73L167.79 192.06L144.12 192.06L144.12 215.73L167.79 215.73ZM191.76 215.73L191.76 192.06L168.09 192.06L168.09 215.73L191.76 215.73ZM215.73 215.73L215.73 192.06L192.06 192.06L192.06 215.73L215.73 215.73ZM192.06 48.2397L192.06 71.9101L215.73 71.9101L215.73 48.2397L192.06 48.2397ZM168.09 48.2397L168.09 71.9101L191.76 71.9101L191.76 48.2397L168.09 48.2397ZM144.12 48.2397L144.12 71.9101L167.79 71.9101L167.79 48.2397L144.12 48.2397ZM120.15 48.2397L120.15 71.9101L143.82 71.9101L143.82 48.2397L120.15 48.2397ZM96.1798 48.2397L96.1798 71.9101L119.85 71.9101L119.85 48.2397L96.1798 48.2397ZM72.2097 48.2397L72.2097 71.9101L95.8802 71.9101L95.8802 48.2397L72.2097 48.2397ZM48.2397 48.2397L48.2397 71.9101L71.9101 71.9101L71.9101 48.2397L48.2397 48.2397ZM71.9101 191.76L71.9101 168.09L48.2397 168.09L48.2397 191.76L71.9101 191.76ZM95.8802 191.76L95.8802 168.09L72.2097 168.09L72.2097 191.76L95.8802 191.76ZM119.85 191.76L119.85 168.09L96.1798 168.09L96.1798 191.76L119.85 191.76ZM143.82 191.76L143.82 168.09L120.15 168.09L120.15 191.76L143.82 191.76ZM167.79 191.76L167.79 168.09L144.12 168.09L144.12 191.76L167.79 191.76ZM191.76 191.76L191.76 168.09L168.09 168.09L168.09 191.76L191.76 191.76ZM168.09 72.2098L168.09 95.8802L191.76 95.8802L191.76 72.2098L168.09 72.2098ZM144.12 72.2098L144.12 95.8802L167.79 95.8802L167.79 72.2098L144.12 72.2098ZM120.15 72.2098L120.15 95.8802L143.82 95.8802L143.82 72.2098L120.15 72.2098ZM96.1798 72.2098L96.1798 95.8802L119.85 95.8802L119.85 72.2098L96.1798 72.2098ZM72.2097 72.2098L72.2097 95.8802L95.8802 95.8802L95.8802 72.2098L72.2097 72.2098ZM95.8802 167.79L95.8802 144.12L72.2097 144.12L72.2097 167.79L95.8802 167.79ZM119.85 167.79L119.85 144.12L96.1798 144.12L96.1798 167.79L119.85 167.79ZM143.82 167.79L143.82 144.12L120.15 144.12L120.15 167.79L143.82 167.79ZM167.79 167.79L167.79 144.12L144.12 144.12L144.12 167.79L167.79 167.79ZM144.12 96.1798L144.12 119.85L167.79 119.85L167.79 96.1798L144.12 96.1798ZM120.15 96.1798L120.15 119.85L143.82 119.85L143.82 96.1798L120.15 96.1798ZM96.1798 96.1798L96.1798 119.85L119.85 119.85L119.85 96.1798L96.1798 96.1798ZM119.85 143.82L119.85 120.15L96.1798 120.15L96.1798 143.82L119.85 143.82ZM143.82 143.82L143.82 120.15L120.15 120.15L120.15 143.82L143.82 143.82ZM144.12 120.15L144.12 143.82L167.79 143.82L167.79 120.15L144.12 120.15ZM95.8802 143.82L95.8802 120.15L72.2097 120.15L72.2097 143.82L95.8802 143.82ZM95.8802 119.85L95.8802 96.1798L72.2097 96.1798L72.2097 119.85L95.8802 119.85ZM168.09 96.1798L168.09 119.85L191.76 119.85L191.76 96.1798L168.09 96.1798ZM168.09 120.15L168.09 143.82L191.76 143.82L191.76 120.15L168.09 120.15ZM168.09 144.12L168.09 167.79L191.76 167.79L191.76 144.12L168.09 144.12ZM71.9101 167.79L71.9101 144.12L48.2397 144.12L48.2397 167.79L71.9101 167.79ZM71.9101 143.82L71.9101 120.15L48.2397 120.15L48.2397 143.82L71.9101 143.82ZM71.9101 119.85L71.9101 96.1798L48.2397 96.1798L48.2397 119.85L71.9101 119.85ZM71.9101 95.8802L71.9101 72.2098L48.2397 72.2098L48.2397 95.8802L71.9101 95.8802ZM192.06 72.2098L192.06 95.8802L215.73 95.8802L215.73 72.2098L192.06 72.2098ZM192.06 96.1798L192.06 119.85L215.73 119.85L215.73 96.1798L192.06 96.1798ZM192.06 120.15L192.06 143.82L215.73 143.82L215.73 120.15L192.06 120.15ZM192.06 144.12L192.06 167.79L215.73 167.79L215.73 144.12L192.06 144.12ZM192.06 168.09L192.06 191.76L215.73 191.76L215.73 168.09L192.06 168.09ZM47.9401 191.76L47.9401 168.09L24.2697 168.09L24.2697 191.76L47.9401 191.76ZM47.9401 167.79L47.9401 144.12L24.2697 144.12L24.2697 167.79L47.9401 167.79ZM47.9401 143.82L47.9401 120.15L24.2697 120.15L24.2697 143.82L47.9401 143.82ZM47.9401 119.85L47.9401 96.1798L24.2697 96.1798L24.2697 119.85L47.9401 119.85ZM47.9401 95.8802L47.9401 72.2098L24.2697 72.2098L24.2697 95.8802L47.9401 95.8802ZM47.9401 71.9101L47.9401 48.2397L24.2697 48.2397L24.2697 71.9101L47.9401 71.9101ZM239.7 71.9101L239.7 48.2397L216.03 48.2397L216.03 71.9101L239.7 71.9101ZM239.7 95.8802L239.7 72.2098L216.03 72.2098L216.03 95.8802L239.7 95.8802ZM239.7 119.85L239.7 96.1798L216.03 96.1798L216.03 119.85L239.7 119.85ZM239.7 143.82L239.7 120.15L216.03 120.15L216.03 143.82L239.7 143.82ZM239.7 167.79L239.7 144.12L216.03 144.12L216.03 167.79L239.7 167.79ZM239.7 191.76L239.7 168.09L216.03 168.09L216.03 191.76L239.7 191.76ZM239.7 215.73L239.7 192.06L216.03 192.06L216.03 215.73L239.7 215.73ZM239.7 239.7L239.7 216.03L216.03 216.03L216.03 239.7L239.7 239.7ZM215.73 239.7L215.73 216.03L192.06 216.03L192.06 239.7L215.73 239.7ZM191.76 239.7L191.76 216.03L168.09 216.03L168.09 239.7L191.76 239.7ZM167.79 239.7L167.79 216.03L144.12 216.03L144.12 239.7L167.79 239.7ZM143.82 239.7L143.82 216.03L120.15 216.03L120.15 239.7L143.82 239.7ZM119.85 239.7L119.85 216.03L96.1798 216.03L96.1798 239.7L119.85 239.7ZM95.8802 239.7L95.8802 216.03L72.2097 216.03L72.2097 239.7L95.8802 239.7ZM71.9101 239.7L71.9101 216.03L48.2397 216.03L48.2397 239.7L71.9101 239.7ZM47.9401 239.7L47.9401 216.03L24.2697 216.03L24.2697 239.7L47.9401 239.7ZM0.299637 216.03L0.299637 239.7L23.97 239.7L23.97 216.03L0.299637 216.03ZM0.299637 192.06L0.299637 215.73L23.97 215.73L23.97 192.06L0.299637 192.06ZM0.299638 168.09L0.299637 191.76L23.97 191.76L23.97 168.09L0.299638 168.09ZM0.299638 144.12L0.299638 167.79L23.97 167.79L23.97 144.12L0.299638 144.12ZM0.299638 120.15L0.299638 143.82L23.97 143.82L23.97 120.15L0.299638 120.15ZM0.299639 96.1798L0.299638 119.85L23.97 119.85L23.97 96.1798L0.299639 96.1798ZM0.299639 72.2098L0.299639 95.8802L23.97 95.8802L23.97 72.2098L0.299639 72.2098ZM0.299639 48.2397L0.299639 71.9101L23.97 71.9101L23.97 48.2397L0.299639 48.2397ZM0.299639 24.2697L0.299639 47.9401L23.97 47.9401L23.97 24.2697L0.299639 24.2697ZM0.29964 0.299649L0.299639 23.9701L23.97 23.9701L23.97 0.29965L0.29964 0.299649ZM24.2697 0.29965L24.2697 23.9701L47.9401 23.9701L47.9401 0.29965L24.2697 0.29965ZM48.2397 0.29965L48.2397 23.9701L71.9101 23.9701L71.9101 0.29965L48.2397 0.29965ZM72.2098 0.29965L72.2097 23.9701L95.8802 23.9701L95.8802 0.29965L72.2098 0.29965ZM96.1798 0.29965L96.1798 23.9701L119.85 23.9701L119.85 0.299651L96.1798 0.29965ZM120.15 0.299651L120.15 23.9701L143.82 23.9701L143.82 0.299651L120.15 0.299651ZM144.12 0.299651L144.12 23.9701L167.79 23.9701L167.79 0.299651L144.12 0.299651ZM168.09 0.299651L168.09 23.9701L191.76 23.9701L191.76 0.299652L168.09 0.299651ZM192.06 0.299652L192.06 23.9701L215.73 23.9701L215.73 0.299652L192.06 0.299652ZM216.03 23.9701L239.7 23.9701L239.7 0.299652L216.03 0.299652L216.03 23.9701Z" fill="url(#paint0_angular_2785_2388)"/>
</g>
<rect x="23.7559" y="167.513" width="23.7563" height="24.3655" fill="white" fill-opacity="0.1"/>
<rect x="24.0059" y="167.763" width="23.2563" height="23.8655" stroke="white" stroke-opacity="0.3" stroke-width="0.5"/>
<rect y="120" width="23.7563" height="24.3655" fill="white" fill-opacity="0.07"/>
<rect x="0.25" y="120.25" width="23.2563" height="23.8655" stroke="white" stroke-opacity="0.2" stroke-width="0.5"/>
<rect x="23.7559" y="191.878" width="23.7563" height="24.3655" fill="white" fill-opacity="0.15"/>
<rect x="24.0059" y="192.128" width="23.2563" height="23.8655" stroke="white" stroke-opacity="0.3" stroke-width="0.5"/>
<rect x="47.5127" y="191.878" width="24.3655" height="24.3655" fill="white" fill-opacity="0.15"/>
<rect x="47.7627" y="192.128" width="23.8655" height="23.8655" stroke="white" stroke-opacity="0.3" stroke-width="0.5"/>
<defs>
<radialGradient id="paint0_angular_2785_2388" cx="0" cy="0" r="1" gradientUnits="userSpaceOnUse" gradientTransform="translate(120 120) rotate(-180) scale(120 120)">
<stop stop-color="white"/>
<stop offset="0.385596" stop-color="white" stop-opacity="0"/>
<stop offset="0.854167" stop-color="white" stop-opacity="0"/>
</radialGradient>
<clipPath id="clip0_2785_2388">
<rect width="240" height="240" fill="white" transform="matrix(1.19249e-08 -1 -1 -1.19249e-08 240 240)"/>
</clipPath>
</defs>
</svg>
