<svg width="278" height="82" viewBox="0 0 278 82" fill="none" xmlns="http://www.w3.org/2000/svg">
<path d="M138.746 34.0915L138.717 21.9897L132.771 31.9595H130.664L124.747 22.2495V34.0857H120.359V13.9224H124.228L131.791 26.4571L139.238 13.9224H143.077L143.135 34.0915H138.746Z" fill="white"/>
<path d="M161.232 29.7698H151.856L150.066 34.0915H145.273L154.28 13.9224H158.898L167.933 34.0915H163.025L161.232 29.7698ZM159.76 26.2247L156.556 18.5023L153.351 26.2247H159.76Z" fill="white"/>
<path d="M188.57 13.9224V34.0915H184.731L174.656 21.8454V34.0915H170.037V13.9224H173.905L183.951 26.1684V13.9224H188.57Z" fill="white"/>
<path d="M211.894 13.9224V34.0915H208.061L197.986 21.8454V34.0915H193.367V13.9224H197.235L207.281 26.1684V13.9224H211.894Z" fill="white"/>
<path d="M215.099 32.104L216.689 28.5892C218.65 29.9417 220.974 30.6744 223.357 30.6923C226.129 30.6923 227.254 29.7714 227.254 28.5272C227.254 24.7526 215.506 27.345 215.506 19.855C215.506 16.4254 218.277 13.5732 224.022 13.5732C226.48 13.5228 228.904 14.1406 231.037 15.3601L229.591 18.9038C227.894 17.9001 225.965 17.353 223.992 17.316C221.22 17.316 220.153 18.3538 220.153 19.6255C220.153 23.3423 231.902 20.7802 231.902 28.1836C231.902 31.5555 229.102 34.4366 223.328 34.4366C220.412 34.5092 217.542 33.6957 215.099 32.104Z" fill="white"/>
<path d="M233.833 24.0084C233.833 18.0152 238.51 13.5767 244.888 13.5767C251.239 13.5767 255.945 17.9849 255.945 24.0084C255.945 30.0318 251.239 34.4386 244.888 34.4386C238.51 34.4371 233.833 30.0015 233.833 24.0084ZM251.21 24.0084C251.183 22.7662 250.788 21.5599 250.076 20.5406C249.365 19.5213 248.367 18.7343 247.209 18.2783C246.052 17.8222 244.785 17.7174 243.567 17.9769C242.35 18.2364 241.237 18.8488 240.366 19.7372C239.496 20.6256 238.908 21.7506 238.676 22.9712C238.443 24.1918 238.577 25.4538 239.06 26.5989C239.543 27.744 240.354 28.7214 241.391 29.4086C242.428 30.0958 243.645 30.4622 244.89 30.462C245.738 30.4847 246.582 30.3321 247.369 30.0139C248.156 29.6957 248.868 29.2187 249.462 28.6128C250.055 28.0069 250.517 27.2852 250.818 26.4928C251.119 25.7005 251.252 24.8547 251.21 24.0084Z" fill="white"/>
<path d="M278 13.9224V34.0915H274.16L264.086 21.8454V34.0915H259.467V13.9224H263.335L273.381 26.1684V13.9224H278Z" fill="white"/>
<path d="M123.389 50.2212V58.1442H133.838V59.9889H123.389V68.547H121.253V48.3779H135.109V50.2212H123.389Z" fill="white"/>
<path d="M153.328 68.547L148.709 62.0646C148.172 62.1236 147.632 62.1525 147.092 62.1512H141.665V68.5485H139.529V48.3779H147.092C152.23 48.3779 155.348 50.976 155.348 55.2934C155.417 56.7171 154.997 58.1217 154.157 59.2744C153.317 60.4271 152.107 61.2588 150.729 61.6316L155.666 68.547H153.328ZM153.212 55.2934C153.212 52.0658 151.076 50.2226 147.034 50.2226H141.665V60.3368H147.034C151.072 60.3353 153.208 58.4617 153.208 55.2934H153.212Z" fill="white"/>
<path d="M174.682 66.7047V68.548H160.394V48.3789H174.25V50.2221H162.535V57.3975H172.985V59.2133H162.535V66.7047H174.682Z" fill="white"/>
<path d="M179.708 48.3789H181.844V68.548H179.708V48.3789Z" fill="white"/>
<path d="M202.657 58.4627H204.706V66.1563C202.626 67.8806 199.99 68.7921 197.287 68.7212C195.907 68.7683 194.531 68.5373 193.242 68.0421C191.953 67.5468 190.778 66.7975 189.785 65.8388C188.793 64.88 188.004 63.7315 187.466 62.4618C186.928 61.1921 186.651 59.8272 186.653 58.4485C186.655 57.0699 186.935 55.7058 187.477 54.4376C188.019 53.1694 188.811 52.0231 189.806 51.0672C190.801 50.1112 191.979 49.3652 193.269 48.8735C194.56 48.3819 195.936 48.1548 197.316 48.2057C198.701 48.1424 200.084 48.3684 201.377 48.8695C202.669 49.3706 203.842 50.1357 204.821 51.1157L203.494 52.4696C202.522 51.4382 201.309 50.6648 199.962 50.2194C198.616 49.7739 197.18 49.6705 195.784 49.9184C194.387 50.1664 193.075 50.7579 191.965 51.6395C190.856 52.521 189.983 53.6647 189.428 54.9673C188.872 56.2698 188.651 57.6901 188.783 59.0996C188.916 60.5091 189.399 61.8633 190.187 63.0398C190.976 64.2163 192.047 65.178 193.301 65.8378C194.556 66.4976 195.956 66.8347 197.374 66.8188C199.257 66.8812 201.11 66.3355 202.657 65.2628V58.4627Z" fill="white"/>
<path d="M227.626 48.3779V68.547H225.519V59.2397H212.876V68.547H210.74V48.3779H212.876V57.3676H225.519V48.3779H227.626Z" fill="white"/>
<path d="M238.135 50.2221H231.033V48.3789H247.374V50.2221H240.272V68.5538H238.136L238.135 50.2221Z" fill="white"/>
<path d="M18.196 38.2977C14.3133 31.7893 12.5708 31.8614 11.44 31.8614H5.47782C5.14433 31.8618 4.81694 31.9509 4.52928 32.1193C4.24162 32.2877 4.004 32.5295 3.84084 32.8198L0.581358 38.6369C0.193901 39.326 -0.00643706 40.1042 0.000157708 40.8944C0.00675247 41.6846 0.220052 42.4593 0.618957 43.1418C4.4684 49.7253 15.703 68.9115 19.1186 74.4644C19.7893 75.567 20.5272 76.6276 21.3282 77.6399C22.2509 78.7984 23.4235 79.7341 24.7587 80.3774C26.094 81.0207 27.5574 81.355 29.04 81.3553H41.7655C41.9285 81.3561 42.0887 81.3139 42.23 81.2329C42.3713 81.152 42.4886 81.0351 42.5701 80.8943C42.6516 80.7534 42.6943 80.5936 42.694 80.431C42.6936 80.2683 42.6502 80.1086 42.5681 79.9682C38.7244 73.3558 22.2334 45.0602 18.196 38.2977Z" fill="white"/>
<path d="M63.4725 53.6473L37.5415 8.40427C37.5415 8.40427 33.3682 0.638557 24.8957 0.647218C24.4141 0.636412 23.9375 0.745119 23.5085 0.963542C23.0794 1.18197 22.7113 1.50328 22.4373 1.89868L13.0914 16.691C13.0349 16.7807 13.0034 16.8839 13.0003 16.9898C12.9971 17.0957 13.0226 17.2005 13.0738 17.2933C13.125 17.3861 13.2002 17.4636 13.2915 17.5176C13.3829 17.5716 13.487 17.6002 13.5932 17.6004H17.7376C19.2516 17.6004 23.1618 17.456 26.4892 24.0381C30.3936 31.7605 55.3557 74.3086 55.3557 74.3086C55.4555 74.4847 55.5553 74.6608 55.645 74.8153C59.5277 81.3237 60.9708 81.3598 62.1016 81.3598H68.447C68.7805 81.3594 69.1079 81.2703 69.3955 81.1019C69.6832 80.9335 69.9208 80.6917 70.084 80.4014L73.3434 74.5843C73.731 73.8953 73.9314 73.1171 73.9248 72.3268C73.9182 71.5366 73.7048 70.7619 73.3058 70.0794C71.342 66.719 67.3581 60.0821 63.4725 53.6473Z" fill="white"/>
<path d="M92.5295 38.8319L75.0899 8.4043C75.0899 8.4043 70.8226 0.647292 62.4426 0.647292C61.9602 0.63021 61.4814 0.736025 61.0514 0.954718C60.6213 1.17341 60.254 1.49777 59.9843 1.8973L50.6383 16.6911C50.5817 16.7807 50.5502 16.8839 50.5471 16.9899C50.544 17.0958 50.5694 17.2006 50.6207 17.2934C50.6719 17.3862 50.747 17.4637 50.8384 17.5177C50.9297 17.5717 51.0339 17.6002 51.1401 17.6004H55.2845C55.2845 17.6004 60.1159 17.2757 64.0362 24.0382C66.467 28.2241 75.2229 43.4841 82.4605 56.1012C82.5401 56.2394 82.6549 56.3543 82.7931 56.4341C82.9313 56.514 83.0883 56.556 83.248 56.556C83.4077 56.556 83.5646 56.514 83.7028 56.4341C83.841 56.3543 83.9558 56.2394 84.0354 56.1012L92.5252 41.4561C92.7562 41.0574 92.8782 40.6051 92.879 40.1446C92.8797 39.684 92.7592 39.2314 92.5295 38.8319Z" fill="white"/>
</svg>
