<svg width="241" height="241" viewBox="0 0 241 241" fill="none" xmlns="http://www.w3.org/2000/svg">
<g opacity="0.3" clip-path="url(#clip0_2785_2395)">
<path d="M-2.57613e-06 23.9701L0 240L240 240L240 2.76556e-05L-2.86197e-06 3.05176e-05L-2.57613e-06 23.9701ZM0.299623 47.9401L0.299623 24.2697L23.97 24.2697L23.97 47.9401L0.299623 47.9401ZM47.9401 24.2697L47.9401 47.9401L24.2697 47.9401L24.2697 24.2697L47.9401 24.2697ZM71.9101 24.2697L71.9101 47.9401L48.2397 47.9401L48.2397 24.2697L71.9101 24.2697ZM95.8801 24.2697L95.8801 47.9401L72.2097 47.9401L72.2097 24.2697L95.8801 24.2697ZM119.85 24.2697L119.85 47.9401L96.1798 47.9401L96.1798 24.2697L119.85 24.2697ZM143.82 24.2697L143.82 47.9401L120.15 47.9401L120.15 24.2697L143.82 24.2697ZM167.79 24.2697L167.79 47.9401L144.12 47.9401L144.12 24.2697L167.79 24.2697ZM191.76 24.2697L191.76 47.9401L168.09 47.9401L168.09 24.2697L191.76 24.2697ZM215.73 24.2697L215.73 47.9401L192.06 47.9401L192.06 24.2697L215.73 24.2697ZM192.06 215.73L192.06 192.06L215.73 192.06L215.73 215.73L192.06 215.73ZM168.09 215.73L168.09 192.06L191.76 192.06L191.76 215.73L168.09 215.73ZM144.12 215.73L144.12 192.06L167.79 192.06L167.79 215.73L144.12 215.73ZM120.15 215.73L120.15 192.06L143.82 192.06L143.82 215.73L120.15 215.73ZM96.1798 215.73L96.1798 192.06L119.85 192.06L119.85 215.73L96.1798 215.73ZM72.2097 215.73L72.2097 192.06L95.8801 192.06L95.8801 215.73L72.2097 215.73ZM48.2397 215.73L48.2397 192.06L71.9101 192.06L71.9101 215.73L48.2397 215.73ZM24.2697 215.73L24.2697 192.06L47.9401 192.06L47.9401 215.73L24.2697 215.73ZM47.9401 48.2397L47.9401 71.9101L24.2697 71.9101L24.2697 48.2397L47.9401 48.2397ZM71.9101 48.2397L71.9101 71.9101L48.2397 71.9101L48.2397 48.2397L71.9101 48.2397ZM95.8801 48.2397L95.8801 71.9101L72.2097 71.9101L72.2097 48.2397L95.8801 48.2397ZM119.85 48.2397L119.85 71.9101L96.1798 71.9101L96.1798 48.2397L119.85 48.2397ZM143.82 48.2397L143.82 71.9101L120.15 71.9101L120.15 48.2397L143.82 48.2397ZM167.79 48.2397L167.79 71.9101L144.12 71.9101L144.12 48.2397L167.79 48.2397ZM191.76 48.2397L191.76 71.9101L168.09 71.9101L168.09 48.2397L191.76 48.2397ZM168.09 191.76L168.09 168.09L191.76 168.09L191.76 191.76L168.09 191.76ZM144.12 191.76L144.12 168.09L167.79 168.09L167.79 191.76L144.12 191.76ZM120.15 191.76L120.15 168.09L143.82 168.09L143.82 191.76L120.15 191.76ZM96.1798 191.76L96.1798 168.09L119.85 168.09L119.85 191.76L96.1798 191.76ZM72.2097 191.76L72.2097 168.09L95.8801 168.09L95.8801 191.76L72.2097 191.76ZM48.2397 191.76L48.2397 168.09L71.9101 168.09L71.9101 191.76L48.2397 191.76ZM71.9101 72.2098L71.9101 95.8802L48.2397 95.8802L48.2397 72.2098L71.9101 72.2098ZM95.8801 72.2098L95.8801 95.8802L72.2097 95.8802L72.2097 72.2098L95.8801 72.2098ZM119.85 72.2098L119.85 95.8802L96.1798 95.8802L96.1798 72.2098L119.85 72.2098ZM143.82 72.2098L143.82 95.8802L120.15 95.8802L120.15 72.2098L143.82 72.2098ZM167.79 72.2098L167.79 95.8802L144.12 95.8802L144.12 72.2098L167.79 72.2098ZM144.12 167.79L144.12 144.12L167.79 144.12L167.79 167.79L144.12 167.79ZM120.15 167.79L120.15 144.12L143.82 144.12L143.82 167.79L120.15 167.79ZM96.1798 167.79L96.1798 144.12L119.85 144.12L119.85 167.79L96.1798 167.79ZM72.2097 167.79L72.2097 144.12L95.8801 144.12L95.8801 167.79L72.2097 167.79ZM95.8801 96.1798L95.8801 119.85L72.2097 119.85L72.2097 96.1798L95.8801 96.1798ZM119.85 96.1798L119.85 119.85L96.1798 119.85L96.1798 96.1798L119.85 96.1798ZM143.82 96.1798L143.82 119.85L120.15 119.85L120.15 96.1798L143.82 96.1798ZM120.15 143.82L120.15 120.15L143.82 120.15L143.82 143.82L120.15 143.82ZM96.1798 143.82L96.1798 120.15L119.85 120.15L119.85 143.82L96.1798 143.82ZM95.8801 120.15L95.8801 143.82L72.2097 143.82L72.2097 120.15L95.8801 120.15ZM144.12 143.82L144.12 120.15L167.79 120.15L167.79 143.82L144.12 143.82ZM144.12 119.85L144.12 96.1798L167.79 96.1798L167.79 119.85L144.12 119.85ZM71.9101 96.1798L71.9101 119.85L48.2397 119.85L48.2397 96.1798L71.9101 96.1798ZM71.9101 120.15L71.9101 143.82L48.2397 143.82L48.2397 120.15L71.9101 120.15ZM71.9101 144.12L71.9101 167.79L48.2397 167.79L48.2397 144.12L71.9101 144.12ZM168.09 167.79L168.09 144.12L191.76 144.12L191.76 167.79L168.09 167.79ZM168.09 143.82L168.09 120.15L191.76 120.15L191.76 143.82L168.09 143.82ZM168.09 119.85L168.09 96.1798L191.76 96.1798L191.76 119.85L168.09 119.85ZM168.09 95.8802L168.09 72.2098L191.76 72.2098L191.76 95.8802L168.09 95.8802ZM47.9401 72.2098L47.9401 95.8802L24.2697 95.8802L24.2697 72.2098L47.9401 72.2098ZM47.9401 96.1798L47.9401 119.85L24.2697 119.85L24.2697 96.1798L47.9401 96.1798ZM47.9401 120.15L47.9401 143.82L24.2697 143.82L24.2697 120.15L47.9401 120.15ZM47.9401 144.12L47.9401 167.79L24.2697 167.79L24.2697 144.12L47.9401 144.12ZM47.9401 168.09L47.9401 191.76L24.2697 191.76L24.2697 168.09L47.9401 168.09ZM192.06 191.76L192.06 168.09L215.73 168.09L215.73 191.76L192.06 191.76ZM192.06 167.79L192.06 144.12L215.73 144.12L215.73 167.79L192.06 167.79ZM192.06 143.82L192.06 120.15L215.73 120.15L215.73 143.82L192.06 143.82ZM192.06 119.85L192.06 96.1798L215.73 96.1798L215.73 119.85L192.06 119.85ZM192.06 95.8802L192.06 72.2098L215.73 72.2098L215.73 95.8802L192.06 95.8802ZM192.06 71.9101L192.06 48.2397L215.73 48.2397L215.73 71.9101L192.06 71.9101ZM0.299623 71.9101L0.299623 48.2397L23.97 48.2397L23.97 71.9101L0.299623 71.9101ZM0.299624 95.8802L0.299623 72.2098L23.97 72.2098L23.97 95.8802L0.299624 95.8802ZM0.299624 119.85L0.299624 96.1798L23.97 96.1798L23.97 119.85L0.299624 119.85ZM0.299624 143.82L0.299624 120.15L23.97 120.15L23.97 143.82L0.299624 143.82ZM0.299625 167.79L0.299624 144.12L23.97 144.12L23.97 167.79L0.299625 167.79ZM0.299625 191.76L0.299625 168.09L23.97 168.09L23.97 191.76L0.299625 191.76ZM0.299625 215.73L0.299625 192.06L23.97 192.06L23.97 215.73L0.299625 215.73ZM0.299625 239.7L0.299625 216.03L23.97 216.03L23.97 239.7L0.299625 239.7ZM24.2697 239.7L24.2697 216.03L47.9401 216.03L47.9401 239.7L24.2697 239.7ZM48.2397 239.7L48.2397 216.03L71.9101 216.03L71.9101 239.7L48.2397 239.7ZM72.2097 239.7L72.2097 216.03L95.8801 216.03L95.8801 239.7L72.2097 239.7ZM96.1798 239.7L96.1798 216.03L119.85 216.03L119.85 239.7L96.1798 239.7ZM120.15 239.7L120.15 216.03L143.82 216.03L143.82 239.7L120.15 239.7ZM144.12 239.7L144.12 216.03L167.79 216.03L167.79 239.7L144.12 239.7ZM168.09 239.7L168.09 216.03L191.76 216.03L191.76 239.7L168.09 239.7ZM192.06 239.7L192.06 216.03L215.73 216.03L215.73 239.7L192.06 239.7ZM239.7 216.03L239.7 239.7L216.03 239.7L216.03 216.03L239.7 216.03ZM239.7 192.06L239.7 215.73L216.03 215.73L216.03 192.06L239.7 192.06ZM239.7 168.09L239.7 191.76L216.03 191.76L216.03 168.09L239.7 168.09ZM239.7 144.12L239.7 167.79L216.03 167.79L216.03 144.12L239.7 144.12ZM239.7 120.15L239.7 143.82L216.03 143.82L216.03 120.15L239.7 120.15ZM239.7 96.1798L239.7 119.85L216.03 119.85L216.03 96.1798L239.7 96.1798ZM239.7 72.2098L239.7 95.8802L216.03 95.8802L216.03 72.2098L239.7 72.2098ZM239.7 48.2397L239.7 71.9101L216.03 71.9101L216.03 48.2397L239.7 48.2397ZM239.7 24.2697L239.7 47.9401L216.03 47.9401L216.03 24.2697L239.7 24.2697ZM239.7 0.299649L239.7 23.9701L216.03 23.9701L216.03 0.29965L239.7 0.299649ZM215.73 0.29965L215.73 23.9701L192.06 23.9701L192.06 0.29965L215.73 0.29965ZM191.76 0.29965L191.76 23.9701L168.09 23.9701L168.09 0.29965L191.76 0.29965ZM167.79 0.29965L167.79 23.9701L144.12 23.9701L144.12 0.29965L167.79 0.29965ZM143.82 0.29965L143.82 23.9701L120.15 23.9701L120.15 0.299651L143.82 0.29965ZM119.85 0.299651L119.85 23.9701L96.1798 23.9701L96.1798 0.299651L119.85 0.299651ZM95.8801 0.299651L95.8801 23.9701L72.2097 23.9701L72.2097 0.299651L95.8801 0.299651ZM71.9101 0.299651L71.9101 23.9701L48.2397 23.9701L48.2397 0.299652L71.9101 0.299651ZM47.9401 0.299652L47.9401 23.9701L24.2697 23.9701L24.2697 0.299652L47.9401 0.299652ZM23.97 23.9701L0.299623 23.9701L0.299623 0.299652L23.97 0.299652L23.97 23.9701Z" fill="url(#paint0_angular_2785_2395)"/>
</g>
<rect width="24.3655" height="24.3655" transform="matrix(-1 0 0 1 168.365 216)" fill="white" fill-opacity="0.15"/>
<rect x="-0.25" y="0.25" width="23.8655" height="23.8655" transform="matrix(-1 0 0 1 167.865 216)" stroke="white" stroke-opacity="0.3" stroke-width="0.5"/>
<rect width="24.3655" height="24.3655" transform="matrix(-1 0 0 1 192.365 216)" fill="white" fill-opacity="0.15"/>
<rect x="-0.25" y="0.25" width="23.8655" height="23.8655" transform="matrix(-1 0 0 1 191.865 216)" stroke="white" stroke-opacity="0.3" stroke-width="0.5"/>
<rect width="24.3655" height="24.3655" transform="matrix(-1 0 0 1 192.365 192)" fill="white" fill-opacity="0.15"/>
<rect x="-0.25" y="0.25" width="23.8655" height="23.8655" transform="matrix(-1 0 0 1 191.865 192)" stroke="white" stroke-opacity="0.3" stroke-width="0.5"/>
<rect width="24.3655" height="24.3655" transform="matrix(-1 0 0 1 240.365 144)" fill="white" fill-opacity="0.15"/>
<rect x="-0.25" y="0.25" width="23.8655" height="23.8655" transform="matrix(-1 0 0 1 239.865 144)" stroke="white" stroke-opacity="0.3" stroke-width="0.5"/>
<rect width="24.3655" height="24.3655" transform="matrix(-1 0 0 1 216.365 216)" fill="white" fill-opacity="0.15"/>
<rect x="-0.25" y="0.25" width="23.8655" height="23.8655" transform="matrix(-1 0 0 1 215.865 216)" stroke="white" stroke-opacity="0.3" stroke-width="0.5"/>
<defs>
<radialGradient id="paint0_angular_2785_2395" cx="0" cy="0" r="1" gradientUnits="userSpaceOnUse" gradientTransform="translate(120 120) scale(120 120)">
<stop stop-color="white"/>
<stop offset="0.385596" stop-color="white" stop-opacity="0"/>
<stop offset="0.854167" stop-color="white" stop-opacity="0"/>
</radialGradient>
<clipPath id="clip0_2785_2395">
<rect width="240" height="240" fill="white" transform="translate(0 240) rotate(-90)"/>
</clipPath>
</defs>
</svg>
