<svg width="234" height="81" viewBox="0 0 234 81" fill="none" xmlns="http://www.w3.org/2000/svg">
<path d="M52.1695 78.5944V64.2251H47.2061V61.6204H59.9588V64.2251H55.0187V78.5944H52.1695Z" fill="white"/>
<path d="M66.4062 78.5722V61.6204H76.1549V64.2251H69.2555V68.267H74.8194V70.8717H69.2555V75.9676H76.8679V78.5722H66.4062Z" fill="white"/>
<path d="M91.6934 63.8212C88.2875 63.8212 85.5289 66.5158 85.5289 70.0182C85.5289 73.5206 88.2232 76.3951 91.537 76.3951C95.0321 76.3951 97.7921 73.6342 97.7921 70.1539C97.7921 66.6736 94.9882 63.8227 91.6934 63.8227M95.9891 77.878C94.7661 78.5502 93.1852 78.9777 91.6934 78.9777C86.5517 78.9777 82.4795 74.9593 82.4795 70.1096C82.4795 65.2599 86.5517 61.2195 91.6934 61.2195C96.8351 61.2195 100.818 65.058 100.818 70.1775C100.818 72.6244 99.6595 74.8945 98.0142 76.4659L101.286 78.935L99.2372 81.0001L95.9876 77.8795H95.9891V77.878Z" fill="white"/>
<path d="M118.643 61.5984H121.492V76.5514C120.222 77.8987 118.042 78.9778 114.658 78.9778C110.34 78.9778 107.871 76.777 107.871 72.3533V61.5984H110.72V70.7819C110.72 75.0022 111.72 76.4394 115.169 76.4394C116.55 76.4394 117.798 76.0797 118.644 75.4518V61.5984H118.643Z" fill="white"/>
<path d="M132.436 61.5999H129.587V78.5974H132.436V61.5999Z" fill="white"/>
<path d="M140.539 78.5724V61.5984H143.388V75.9677H150.443V78.5724H140.539Z" fill="white"/>
<path d="M164.694 67.3915C164.581 67.1674 164.426 66.7856 164.401 66.5837C164.361 66.7856 164.181 67.1453 164.07 67.3915L161.666 72.6687H167.119L164.694 67.3915ZM169.834 78.5945L168.298 75.2719H160.486L158.975 78.5945H155.791L164.426 60.9026L173.016 78.5945H169.834Z" fill="white"/>
<path d="M60.9272 15.582L66.9237 28.2001H55.033L60.9272 15.582ZM60.9842 0.226562L40.3486 41.7602H48.5806L52.0231 34.4561H69.9L73.3424 41.7602H81.6314L60.9842 0.226562Z" fill="white"/>
<path d="M138.597 2.00879H131.198V41.7587H138.597V2.00879Z" fill="white"/>
<path d="M25.2761 1.96313V15.7192H7.39916V1.96313H0V41.7603H7.39916V24.0463L4.70922 22.5059H7.39916H9.13206H25.2761V41.7603H32.6753V1.96313H25.2761Z" fill="white"/>
<path d="M216.296 1.96289L216.342 23.794L219.192 29.223L215.943 26.2321L187.372 2.00859L187.27 41.76H194.669L194.566 17.4672L223.592 41.76L223.696 1.96289H216.296Z" fill="white"/>
<path d="M120.712 37.3422C117.121 40.8623 112.48 42.6563 106.427 42.6563C93.8171 42.6563 84.4805 33.1323 84.4805 21.8836C84.4805 10.6349 93.1333 1.06519 105.743 1.06519C114.396 1.06519 119.458 5.48152 120.392 6.79345L116.482 11.9468C113.667 9.26695 110.075 7.79435 105.378 7.79435C97.7169 7.79435 92.4042 13.844 92.4042 22.1032C92.4042 29.8318 98.7659 35.9286 106.473 35.9286C112.515 35.9286 116.016 33.6629 117.315 32.4557L120.7 37.3437H120.712V37.3422Z" fill="white"/>
<path d="M151.688 1.96313V41.7131H176.791V34.9161H159.098V24.0699H172.038V17.2832H159.098V8.70409H175.172V1.96313H151.688Z" fill="white"/>
<path d="M60.9359 15.582L66.9324 28.2001H55.0534L60.9359 15.582ZM60.9812 0.226562L40.3457 41.7602H48.5777L52.0201 34.4443H69.8971L73.3395 41.7602H81.6285L60.9812 0.226562Z" fill="white"/>
<path d="M138.597 2.02051H131.198V41.7587H138.597V2.02051Z" fill="white"/>
<path d="M25.2863 1.96313V15.7192H7.41088V1.96313H0.0117188V41.7603H7.41088V24.0463L4.71948 22.5059H7.41088H9.14378H25.2863V41.7603H32.6855V1.96313H25.2863Z" fill="white"/>
<path d="M216.285 1.96289L216.33 23.794L219.181 29.223L215.931 26.2321L187.36 2.00859L187.258 41.76H194.657L194.555 17.4672L223.582 41.76L223.684 1.96289H216.285Z" fill="white"/>
<path d="M120.712 37.3424C117.121 40.8625 112.48 42.6564 106.438 42.6564C93.8288 42.6564 84.5039 33.1442 84.5039 21.8955C84.5039 10.6469 93.1567 1.07715 105.766 1.07715C114.419 1.07715 119.47 5.49348 120.405 6.80541L116.495 11.9588C113.68 9.27892 110.088 7.80631 105.402 7.80631C97.7417 7.80631 92.4291 13.8559 92.4291 22.1034C92.4291 29.832 98.7908 35.9288 106.498 35.9288C112.54 35.9288 116.029 33.6631 117.34 32.4558L120.725 37.3439H120.712V37.3424Z" fill="white"/>
<path d="M151.688 2.00879V41.7602H176.781V34.9618H159.098V24.1273H172.038V17.3303H159.098V8.74974H175.162V2.00879H151.688Z" fill="white"/>
<path d="M228.723 4.60917C228.723 3.14836 229.919 1.95288 231.367 1.95288C232.815 1.95288 234 3.13804 234 4.60917C234 6.0803 232.804 7.26545 231.367 7.26545C229.931 7.26545 228.723 6.06998 228.723 4.60917ZM233.465 4.60917C233.465 3.4476 232.508 2.47028 231.367 2.47028C230.226 2.47028 229.257 3.42549 229.257 4.60917C229.257 5.79285 230.214 6.74805 231.367 6.74805C232.52 6.74805 233.465 5.77074 233.465 4.60917ZM232.006 5.93141L231.059 4.9659L230.911 4.81701V5.93289H230.353V3.08054H231.163C231.801 3.08054 232.463 3.33409 232.463 4.02396C232.463 4.49566 232.145 4.80669 231.654 4.90988L232.703 5.93289H232.006V5.93141ZM231.151 4.56052C231.676 4.56052 231.927 4.34236 231.927 4.01954C231.927 3.74389 231.665 3.54783 231.243 3.54783H230.913V4.56052H231.151Z" fill="white"/>
</svg>
