<svg width="628" height="142" viewBox="0 0 628 142" fill="none" xmlns="http://www.w3.org/2000/svg">
<g clip-path="url(#clip0_6285_2070)">
<path d="M0 28.791H17.5166V44.7137C20.6455 33.8013 30.8204 27.322 44.7401 27.322C59.7684 27.322 67.1101 32.6339 71.9635 47.3762C76.1887 34.5489 88.0759 27.1777 104.816 27.1777C127.347 27.1777 136.733 39.8477 136.733 70.2241V113.126H119.217V71.5619C119.217 50.0387 113.267 41.4872 98.4109 41.4872C83.5551 41.4872 76.6691 50.3273 76.6691 71.2602V113.126H59.1525V71.7062C59.1525 49.5928 53.831 41.6314 39.2831 41.6314C24.7352 41.6314 17.5413 51.206 17.5413 72.8866V113.126H0V28.791Z" fill="#060A35"/>
<path d="M148.458 70.9586C148.458 41.92 167.231 27.1777 189.441 27.1777C203.521 27.1777 216.036 33.6701 221.197 45.3039V28.791H238.714V112.969H221.197V97.0461C216.184 108.391 203.521 115.028 189.601 115.028C167.379 115.028 148.458 100.141 148.458 70.9455V70.9586ZM221.665 70.9586C221.665 52.5308 210.246 41.1855 193.666 41.1855C177.086 41.1855 165.974 52.3865 165.974 70.9586C165.974 89.5307 177.233 100.876 193.974 100.876C210.714 100.876 221.665 89.5307 221.665 70.9586Z" fill="#060A35"/>
<path d="M239.353 140.235L241.225 127.709C242.95 128.011 243.726 128.011 244.662 128.011C252.644 128.011 255.613 123.591 255.613 113.715V28.7894H273.13V113.256C273.13 131.238 266.564 141.114 248.259 141.114C244.822 141.114 241.693 140.825 239.341 140.235H239.353ZM273.142 15.4243H255.625V0H273.142V15.4374V15.4243Z" fill="#FF0099"/>
<path d="M286.907 70.9586C286.907 45.0153 305.372 27.1777 332.115 27.1777C360.583 27.1777 377.804 46.9303 375.611 75.2344H304.436C305.052 91.603 315.855 100.876 333.224 100.876C345.739 100.876 353.869 96.9018 358.255 88.7831L374.367 91.1439C367.173 106.765 353.093 114.726 332.916 114.726C305.064 114.726 286.919 97.3346 286.919 70.9455L286.907 70.9586ZM359.178 62.2627C357.922 48.8452 348.227 40.2936 332.423 40.2936C316.619 40.2936 306.924 47.6648 304.892 62.2627H359.178Z" fill="#060A35"/>
<path d="M389.377 28.7912H406.893V44.1237C410.958 33.6572 421.133 27.3223 436.149 27.3223C460.86 27.3223 472.291 40.7398 472.291 67.4176V113.113H454.775V68.7423C454.775 50.3144 447.26 41.6186 430.68 41.6186C414.1 41.6186 406.906 52.0851 406.906 70.6572V113.113H389.389V28.7912H389.377Z" fill="#060A35"/>
<path d="M491.071 79.5083V41.6296H478.088V28.8022H491.071V13.3255L508.748 9.78418V28.8022H535.183V41.6296H508.748V77.5933C508.748 94.985 513.589 101.031 527.201 101.031C528.926 101.031 530.958 100.73 534.395 100.297L536.748 113.124C533.311 113.859 528.297 114.305 524.54 114.305C501.542 114.305 491.059 105.307 491.059 79.5214L491.071 79.5083Z" fill="#060A35"/>
<path d="M537.54 70.9586C537.54 41.92 556.313 27.1777 578.535 27.1777C592.615 27.1777 605.13 33.6701 610.291 45.3039V28.791H627.808V112.969H610.291V97.0461C605.278 108.391 592.615 115.028 578.695 115.028C556.485 115.028 537.552 100.141 537.552 70.9455L537.54 70.9586ZM610.76 70.9586C610.76 52.5307 599.34 41.1855 582.748 41.1855C566.155 41.1855 555.056 52.3865 555.056 70.9586C555.056 89.5307 566.315 100.876 583.056 100.876C599.796 100.876 610.747 89.5307 610.747 70.9586H610.76Z" fill="#060A35"/>
</g>
<defs>
<clipPath id="clip0_6285_2070">
<rect width="627.808" height="141.114" fill="white"/>
</clipPath>
</defs>
</svg>
