<svg width="247" height="46" viewBox="0 0 247 46" fill="none" xmlns="http://www.w3.org/2000/svg">
<path d="M101.884 44.7923C100.482 44.167 99.1813 43.3362 98.0251 42.3274C97.9763 43.2725 97.5832 44.1674 96.9198 44.8439C96.5541 45.2205 96.1139 45.5172 95.6273 45.7153C95.1406 45.9133 94.618 46.0084 94.0926 45.9946C93.5705 46.0094 93.0507 45.9179 92.5652 45.7256C92.0797 45.5332 91.6387 45.2441 91.269 44.8759C90.8968 44.4973 90.6056 44.0471 90.4131 43.5527C90.2207 43.0584 90.131 42.5301 90.1495 42.0001V3.99433C90.1372 3.46987 90.2298 2.94822 90.4221 2.45993C90.6143 1.97163 90.9022 1.52649 91.269 1.15056C92.0242 0.412795 93.0392 -0.000381064 94.0962 -0.000381064C95.1532 -0.000381064 96.1681 0.412795 96.9234 1.15056C97.2903 1.52637 97.5784 1.97149 97.7706 2.45982C97.9628 2.94814 98.0554 3.46984 98.0429 3.99433V15.8389C99.0963 14.7669 100.32 13.8752 101.663 13.1997C103.388 12.2853 105.311 11.806 107.264 11.8036C110.004 11.7768 112.693 12.5388 115.01 13.9982C117.348 15.4981 119.24 17.5977 120.486 20.077C121.852 22.8055 122.54 25.8219 122.491 28.8715C122.533 31.9269 121.852 34.9491 120.504 37.6927C119.288 40.1819 117.416 42.2938 115.088 43.8017C112.824 45.2547 110.185 46.0185 107.492 45.9999C105.558 46.007 103.644 45.595 101.884 44.7923ZM100.146 21.8359C98.5025 23.8054 97.6432 26.3101 97.7327 28.8715C97.6464 31.4417 98.5048 33.9547 100.146 35.9373C100.915 36.8165 101.863 37.5212 102.927 38.004C103.991 38.4869 105.147 38.7368 106.316 38.7368C107.485 38.7368 108.641 38.4869 109.705 38.004C110.769 37.5212 111.717 36.8165 112.486 35.9373C114.127 33.9546 114.985 31.4416 114.899 28.8715C114.989 26.3151 114.142 23.8138 112.516 21.8359C111.764 20.9394 110.818 20.2245 109.75 19.7449C108.681 19.2653 107.518 19.0335 106.346 19.0668C105.171 19.0352 104.003 19.2677 102.93 19.747C101.857 20.2263 100.906 20.9402 100.146 21.8359ZM208.479 43.8426C205.936 42.4129 203.839 40.3098 202.418 37.7656C200.916 35.0656 200.149 32.0198 200.195 28.932C200.15 25.8437 200.916 22.7974 202.418 20.0966C203.844 17.5491 205.94 15.4381 208.479 13.9911C211.084 12.5557 214.011 11.8029 216.987 11.8029C219.962 11.8029 222.889 12.5557 225.494 13.9911C228.045 15.4323 230.152 17.5441 231.583 20.0966C233.085 22.7977 233.851 25.8437 233.806 28.932C233.852 32.0197 233.085 35.0653 231.583 37.7656C230.157 40.3151 228.048 42.419 225.492 43.8426C222.881 45.2569 219.958 45.9977 216.987 45.9977C214.016 45.9977 211.09 45.2569 208.479 43.8426ZM212.517 20.2922C211.144 21.1397 210.029 22.3441 209.29 23.7762C208.465 25.369 208.049 27.1411 208.08 28.9337C208.048 30.715 208.463 32.4758 209.288 34.0557C210.033 35.4765 211.148 36.6703 212.517 37.5113C213.873 38.3148 215.422 38.7389 217 38.7389C218.578 38.7389 220.126 38.3148 221.483 37.5113C222.85 36.6689 223.965 35.4754 224.711 34.0557C225.536 32.4757 225.951 30.7148 225.918 28.9337C225.948 27.1414 225.533 25.3695 224.71 23.7762C223.97 22.3448 222.855 21.1406 221.483 20.2922C220.126 19.4887 218.578 19.0646 217 19.0646C215.422 19.0646 213.873 19.4887 212.517 20.2922ZM174.599 43.8426C172.085 42.4589 170.017 40.3916 168.634 37.8812C167.213 35.262 166.489 32.3227 166.532 29.3446C166.466 26.1104 167.231 22.9132 168.754 20.0574C170.118 17.5152 172.152 15.393 174.636 13.9199C176.996 12.5218 179.689 11.7845 182.433 11.7858C185.162 11.7902 187.834 12.5605 190.145 14.0089C192.545 15.4842 194.531 17.541 195.921 19.9881C197.35 22.4623 198.097 25.2704 198.085 28.1263C198.076 28.6241 197.958 29.114 197.74 29.5618C197.523 30.0096 197.209 30.4047 196.823 30.7193C196.056 31.3635 195.083 31.7107 194.081 31.6975H174.428C174.852 33.6979 175.964 35.4872 177.572 36.7554C179.194 38.0379 181.207 38.7282 183.277 38.7117C184.555 38.7549 185.832 38.6062 187.066 38.2707C187.814 38.045 188.532 37.731 189.205 37.3352C189.755 36.9914 190.131 36.7584 190.334 36.6363C191.017 36.2702 191.778 36.0692 192.553 36.0494C193 36.0438 193.443 36.1295 193.855 36.301C194.268 36.4726 194.64 36.7265 194.951 37.0471C195.268 37.3473 195.52 37.7089 195.692 38.1099C195.864 38.5108 195.952 38.9426 195.951 39.3787C195.921 40.0168 195.741 40.6391 195.426 41.1952C195.111 41.7513 194.669 42.2256 194.136 42.5799C192.747 43.6512 191.177 44.4672 189.501 44.9897C187.067 45.8023 184.493 46.1173 181.934 45.9159C179.375 45.7146 176.883 45.001 174.606 43.8177L174.599 43.8426ZM174.481 25.0585H189.699V24.9375C189.607 24.125 189.348 23.3401 188.94 22.6311C188.531 21.9221 187.982 21.304 187.325 20.8151C185.947 19.6757 184.211 19.0568 182.421 19.0668C177.984 19.065 175.383 21.0249 174.481 25.0585ZM60.8808 43.8426C58.3378 42.4129 56.2403 40.3098 54.82 37.7656C53.3175 35.0656 52.5511 32.0198 52.5971 28.932C52.5522 25.8435 53.3192 22.7972 54.8218 20.0966C56.2481 17.5495 58.3435 15.4386 60.8826 13.9911C63.4872 12.556 66.4139 11.8033 69.3892 11.8033C72.3646 11.8033 75.2913 12.556 77.8958 13.9911C80.4471 15.4317 82.5529 17.5437 83.9834 20.0966C85.4853 22.7974 86.2518 25.8437 86.2064 28.932C86.2524 32.0198 85.4859 35.0656 83.9834 37.7656C82.5589 40.3145 80.4526 42.4184 77.8994 43.8426C75.2885 45.2569 72.3646 45.9977 69.3937 45.9977C66.4227 45.9977 63.4989 45.2569 60.888 43.8426H60.8808ZM64.9184 20.2922C63.5458 21.1397 62.4304 22.3441 61.6919 23.7762C60.8675 25.3691 60.4522 27.1413 60.4833 28.9337C60.4508 30.7148 60.8656 32.4757 61.6901 34.0557C62.4349 35.4765 63.5502 36.6703 64.9184 37.5113C66.2752 38.3148 67.8239 38.7389 69.4017 38.7389C70.9795 38.7389 72.5282 38.3148 73.885 37.5113C75.2528 36.6698 76.368 35.4761 77.1133 34.0557C77.9378 32.4757 78.3527 30.7148 78.3201 28.9337C78.3505 27.1413 77.9353 25.3694 77.1115 23.7762C76.3725 22.3445 75.2572 21.1401 73.885 20.2922C72.5282 19.4887 70.9795 19.0646 69.4017 19.0646C67.8239 19.0646 66.2752 19.4887 64.9184 20.2922ZM155.814 44.2428C155.447 43.8668 155.159 43.4213 154.967 42.9326C154.776 42.4439 154.684 41.9218 154.698 41.3972V3.99433C154.687 3.46672 154.782 2.9423 154.98 2.45263C155.177 1.96296 155.471 1.51817 155.846 1.145C156.22 0.771842 156.665 0.478025 157.156 0.281234C157.647 0.0844434 158.173 -0.011255 158.701 -0.000102753C159.217 -0.00985931 159.729 0.0873863 160.205 0.285467C160.681 0.483548 161.111 0.778141 161.466 1.15056C161.833 1.52655 162.121 1.972 162.313 2.46068C162.505 2.94936 162.597 3.47141 162.584 3.99611V41.4008C162.595 41.9283 162.499 42.4525 162.301 42.9419C162.104 43.4314 161.81 43.876 161.436 44.249C161.062 44.6219 160.616 44.9156 160.125 45.1123C159.634 45.3089 159.109 45.4046 158.58 45.3934C158.064 45.4041 157.552 45.3073 157.075 45.1091C156.599 44.911 156.169 44.6159 155.814 44.2428ZM140.95 44.2428C140.584 43.8666 140.296 43.4211 140.104 42.9325C139.913 42.4438 139.821 41.9218 139.834 41.3972V3.99433C139.823 3.46672 139.919 2.9423 140.116 2.45263C140.314 1.96296 140.608 1.51817 140.982 1.145C141.356 0.771842 141.802 0.478025 142.293 0.281234C142.784 0.0844434 143.309 -0.011255 143.838 -0.000102753C144.354 -0.00978141 144.866 0.0874923 145.342 0.285561C145.819 0.483629 146.248 0.778179 146.605 1.15056C146.971 1.52688 147.259 1.97242 147.45 2.46105C147.642 2.94968 147.734 3.47157 147.721 3.99611V41.4008C147.732 41.9283 147.635 42.4525 147.438 42.9419C147.241 43.4314 146.946 43.876 146.572 44.249C146.198 44.6219 145.752 44.9156 145.262 45.1123C144.771 45.3089 144.246 45.4046 143.717 45.3934C143.201 45.4038 142.688 45.3068 142.212 45.1087C141.736 44.9106 141.306 44.6157 140.95 44.2428ZM127.119 44.2428C126.752 43.8668 126.464 43.4213 126.273 42.9326C126.081 42.4439 125.989 41.9218 126.003 41.3972V16.4009C125.989 15.8763 126.081 15.3543 126.273 14.8656C126.464 14.3769 126.752 13.9314 127.119 13.5554C127.874 12.8177 128.889 12.4046 129.945 12.4046C131.002 12.4046 132.017 12.8177 132.772 13.5554C133.138 13.9315 133.426 14.377 133.618 14.8656C133.81 15.3543 133.902 15.8762 133.889 16.4009V41.4008C133.903 41.9255 133.811 42.4475 133.619 42.9362C133.427 43.4249 133.139 43.8703 132.772 44.2463C132.017 44.984 131.002 45.3971 129.945 45.3971C128.889 45.3971 127.874 44.984 127.119 44.2463V44.2428ZM41.8836 44.2428C41.5166 43.8668 41.2288 43.4213 41.0371 42.9326C40.8455 42.4439 40.7538 41.9218 40.7677 41.3972V25.905C40.8666 24.1304 40.4321 22.3667 39.5198 20.84C39.0047 20.2059 38.3385 19.7109 37.582 19.4002C36.8256 19.0895 36.0031 18.9731 35.1899 19.0615C34.2533 19.0085 33.316 19.1533 32.4393 19.4864C31.5626 19.8195 30.7663 20.3335 30.1023 20.9947C28.8713 22.3277 28.2145 24.0899 28.2734 25.9015V41.3972C28.287 41.9218 28.1953 42.4438 28.0036 42.9325C27.812 43.4212 27.5243 43.8667 27.1575 44.2428C26.4025 44.9804 25.3878 45.3936 24.3311 45.3936C23.2744 45.3936 22.2598 44.9804 21.5048 44.2428C21.1375 43.867 20.8493 43.4216 20.6574 42.9328C20.4654 42.4441 20.3735 41.922 20.3871 41.3972V25.905C20.486 24.1304 20.0515 22.3667 19.1393 20.84C18.6247 20.2058 17.9587 19.7107 17.2025 19.4C16.4464 19.0893 15.6241 18.9729 14.8111 19.0615C13.8728 19.0077 12.9336 19.1524 12.0553 19.4862C11.177 19.8199 10.3793 20.3352 9.71463 20.9982C8.48296 22.3309 7.82602 24.0933 7.88567 25.905V41.4008C7.89926 41.9255 7.80737 42.4477 7.6154 42.9364C7.42343 43.4251 7.13529 43.8705 6.76797 44.2463C6.40268 44.623 5.96288 44.9199 5.47648 45.1179C4.99008 45.316 4.46771 45.4111 3.94254 45.397C3.41707 45.4113 2.89436 45.3164 2.40764 45.1183C1.92091 44.9202 1.48082 44.6233 1.11532 44.2463C0.748324 43.8704 0.460509 43.4249 0.268853 42.9362C0.0771965 42.4475 -0.0144197 41.9254 -0.000591514 41.4008V16.4009C-0.0142183 15.8763 0.0774906 15.3543 0.269136 14.8656C0.460781 14.3769 0.748489 13.9314 1.11532 13.5554C1.48102 13.1787 1.92115 12.8819 2.40782 12.6838C2.8945 12.4858 3.41711 12.3907 3.94254 12.4047C4.46884 12.3906 4.99232 12.4859 5.47968 12.6846C5.96703 12.8833 6.40759 13.1811 6.77332 13.5589C7.14047 13.9348 7.42851 14.3803 7.62046 14.869C7.81242 15.3577 7.90441 15.8797 7.89102 16.4045V16.5112C8.9502 15.2829 10.1974 14.2295 11.5864 13.39C13.3223 12.3307 15.322 11.7804 17.3567 11.8018C22.3301 11.8018 25.6369 13.9004 27.1949 18.0406C28.2417 16.427 29.5879 15.0277 31.1612 13.9182C33.0666 12.52 35.3757 11.7773 37.7408 11.8018C41.8408 11.8018 44.7197 13.0805 46.3098 15.6042C48.034 18.7539 48.848 22.3193 48.6611 25.9032V41.399C48.6743 41.9237 48.5823 42.4458 48.3904 42.9344C48.1984 43.4231 47.9104 43.8686 47.5434 44.2446C46.7884 44.9822 45.7738 45.3953 44.717 45.3953C43.6603 45.3953 42.6457 44.9822 41.8907 44.2446L41.8836 44.2428ZM241.267 45.3348C240.735 45.3914 240.197 45.3286 239.693 45.1509C239.189 44.9732 238.731 44.6852 238.353 44.3079C237.975 43.9307 237.686 43.4738 237.508 42.9708C237.33 42.4677 237.267 41.9313 237.323 41.4008V40.3711C237.267 39.8406 237.33 39.3041 237.508 38.8011C237.686 38.298 237.975 37.8411 238.353 37.4639C238.731 37.0867 239.189 36.7986 239.693 36.621C240.197 36.4433 240.735 36.3805 241.267 36.4371H242.054C242.586 36.3802 243.124 36.4428 243.629 36.6203C244.133 36.7979 244.591 37.0859 244.97 37.4631C245.348 37.8404 245.637 38.2974 245.815 38.8006C245.993 39.3038 246.056 39.8404 245.999 40.3711V41.4008C246.056 41.9313 245.993 42.4677 245.815 42.9708C245.637 43.4738 245.348 43.9307 244.97 44.3079C244.592 44.6852 244.134 44.9732 243.63 45.1509C243.126 45.3286 242.588 45.3914 242.056 45.3348H241.267ZM126.786 8.34801C126.435 8.01771 126.166 7.61136 125.998 7.16045C125.831 6.70955 125.77 6.22621 125.819 5.7479V4.60079C125.769 4.11578 125.836 3.62569 126.016 3.17231C126.196 2.71894 126.483 2.31574 126.853 1.99711C127.825 1.51858 128.895 1.26967 129.978 1.26967C131.062 1.26967 132.131 1.51858 133.103 1.99711C133.453 2.32774 133.722 2.73414 133.89 3.18496C134.057 3.63577 134.119 4.11896 134.069 4.59723V5.74612C134.126 6.23366 134.064 6.72754 133.889 7.18621C133.714 7.64487 133.431 8.0549 133.064 8.3818C132.098 8.92716 130.99 9.16891 129.884 9.0754C128.799 9.1736 127.712 8.91838 126.786 8.34801Z" fill="white"/>
</svg>
