<svg width="24" height="24" viewBox="0 0 24 24" fill="none" xmlns="http://www.w3.org/2000/svg">
<path id="Vector" d="M4.8 10.4C6.66667 14.1333 9.86667 17.2 13.6 19.2L16.5333 16.2667C16.9333 15.8667 17.4667 15.7334 17.8667 16C19.3333 16.5333 20.9333 16.8 22.6667 16.8C23.4667 16.8 24 17.3333 24 18.1333V22.6667C24 23.4667 23.4667 24 22.6667 24C10.1333 24 0 13.8667 0 1.33333C0 0.533333 0.533333 0 1.33333 0H6C6.8 0 7.33333 0.533333 7.33333 1.33333C7.33333 2.93333 7.6 4.53333 8.13333 6.13333C8.26667 6.53333 8.13333 7.06667 7.86667 7.46667L4.8 10.4Z" fill="white"/>
</svg>
